<?xml version="1.0" encoding="utf-8"?>
<!-- Generator: Adobe Illustrator 24.2.0, SVG Export Plug-In . SVG Version: 6.00 Build 0)  -->
<svg version="1.1" id="Слой_1" xmlns="http://www.w3.org/2000/svg" xmlns:xlink="http://www.w3.org/1999/xlink" x="0px" y="0px"
	 viewBox="0 0 799 799" style="enable-background:new 0 0 799 799;" xml:space="preserve">
<path d="M20.38,632.62c0-13.13,10.64-23.76,23.76-23.76h233.17c13.12,0,23.76,10.64,23.76,23.76c0,13.12-10.64,23.76-23.76,23.76
	H44.14C31.02,656.39,20.38,645.75,20.38,632.62z M370.36,684.9H44.14c-13.12,0-23.76,10.64-23.76,23.76s10.64,23.77,23.76,23.77
	h326.22c13.12,0,23.77-10.64,23.77-23.77S383.48,684.9,370.36,684.9z M75.41,168.85h174.87c31.64,0,58.59-20.36,68.44-48.67v0h96.44
	l-5.13,5.13c-9.29,9.29-9.29,24.31,0,33.6c4.64,4.65,10.72,6.98,16.8,6.98c6.09,0,12.17-2.33,16.81-6.98l45.67-45.69
	c9.18-8.92,9.39-24.25,0.01-33.61l-45.69-45.69c-9.29-9.29-24.33-9.29-33.62,0c-9.29,9.29-9.29,24.31,0,33.6l5.13,5.13h-96.44
	c-9.85-28.3-36.8-48.67-68.44-48.67H75.41c-39.95,0-72.44,32.49-72.44,72.45S35.46,168.85,75.41,168.85z M782.63,647.97
	c0,70.66-57.48,128.14-128.15,128.14c-70.65,0-128.12-57.48-128.12-128.14c0-62.5,44.97-114.69,104.25-125.88v-71.52H545
	l-38.73,38.73c-9.22,9.21-24.28,9.34-33.62,0c-9.27-9.29-9.27-24.34,0-33.62l5.13-5.11h-103.7c0,0,0,0,0,0.01
	c-9.8,27.61-36.19,47.43-67.12,47.43H70.23C30.96,498.01-1,466.07-1,426.81c0-39.27,31.96-71.22,71.23-71.22h79.31v-76.83
	l-5.12,5.14c-9.29,9.29-24.33,9.29-33.61,0c-9.29-9.27-9.29-24.32,0-33.6l34.94-34.94c9.36-9.32,15.16-17.73,27.55-17.73
	c13.89,0,18.73,9.98,27.56,17.73l34.94,34.94c15.01,15.02,4.17,40.57-16.8,40.57c-13.09,0-18.84-9.73-21.94-12.09v76.81h109.89
	c30.94,0,57.33,19.83,67.13,47.46h103.69l-5.13-5.13c-9.27-9.29-9.27-24.34,0-33.62c9.29-9.27,24.34-9.27,33.62,0L545,403.04h85.62
	v-61.38l-43.93-43.93c-9.29-9.29-9.29-24.32,0-33.6c9.29-9.29,24.34-9.29,33.6,0l10.33,10.32v-105.6
	c-45.4-0.75-53.98,1.86-70.27-3.01l-75.66,101.33l11.1-1.56c12.99-1.84,25.02,7.21,26.84,20.2c1.85,13-7.19,25.02-20.21,26.85
	l-68.5,9.68c-5.31,1.17-14.61-1.55-17.65-4.59c-2.96-1.49-8.06-8.07-9.18-15.62l-9.7-68.62c-1.8-13,7.23-25.02,20.23-26.85
	c13.01-1.84,25,7.22,26.85,20.21l1.73,12.39l75.59-101.17c-33.67-47.82,0.64-114.11,59.27-114.11h144.5
	c40.02,0,72.45,32.43,72.45,72.45c0,40.02-32.45,72.43-72.45,72.43h-47.41v105.6l10.33-10.32c9.27-9.29,24.32-9.29,33.6,0
	c9.29,9.28,9.29,24.31,0,33.6l-43.94,43.93c0,57,0.01,137.83,0.01,180.38C737.56,533.16,782.63,585.4,782.63,647.97z M718.28,602.08
	c-9.27-9.27-24.32-9.27-33.6,0l-47.24,47.25l-13.12-13.15c-9.27-9.28-24.31-9.28-33.61,0c-9.27,9.3-9.27,24.35,0,33.6l29.95,29.96
	c9.23,9.24,24.31,9.27,33.6,0l64.02-64.03C727.56,626.43,727.56,611.38,718.28,602.08z"/>
</svg>
