<svg xmlns="http://www.w3.org/2000/svg" viewBox="0 0 583.28 649.87"><defs><style>.cls-1{fill:#9283be;}.cls-2{fill:#72649e;}.cls-3{fill:#584c80;}.cls-4{fill:#372d54;}.cls-5{fill:#291f3b;}.cls-6,.cls-7{fill:none;}.cls-7{stroke:#fff;stroke-miterlimit:10;stroke-width:1.92px;}.cls-8{fill:#fff;}</style></defs><g id="Слой_1" data-name="Слой 1"><path class="cls-1" d="M175,323.34,108,161.66a175,175,0,0,1,133.94,0Z"/><path class="cls-2" d="M175,323.34l67-161.68a175.08,175.08,0,0,1,94.71,94.71Z"/><path class="cls-3" d="M175,323.34l161.68-67a175,175,0,0,1,0,133.94Z"/><path class="cls-4" d="M175,323.34l161.68,67A175.08,175.08,0,0,1,242,485Z"/><path class="cls-5" d="M175,323.34,242,485A175,175,0,0,1,108,485Z"/><path class="cls-6" d="M175,323.34,108,485a175.08,175.08,0,0,1-94.71-94.71Z"/><path class="cls-6" d="M175,323.34l-161.68,67a175,175,0,0,1,0-133.94Z"/><path class="cls-6" d="M175,323.34l-161.68-67A175.08,175.08,0,0,1,108,161.66Z"/><path class="cls-7" d="M177.49,55C326,55,446.41,175.44,446.41,324S326,592.88,177.49,592.88"/><path class="cls-8" d="M170.93,55a9,9,0,1,1,9,9A9,9,0,0,1,170.93,55Z"/><path class="cls-8" d="M170.93,590.7a9,9,0,1,1,9,9A9,9,0,0,1,170.93,590.7Z"/><line class="cls-7" x1="341.02" y1="111.54" x2="397.22" y2="38.64"/><circle class="cls-8" cx="339.83" cy="110.79" r="15.58" transform="translate(-16.53 138.48) rotate(-22.5)"/><path class="cls-1" d="M330.81,110.79a9,9,0,1,1,9,9A9,9,0,0,1,330.81,110.79Z"/><line class="cls-7" x1="422.66" y1="221.53" x2="519.66" y2="180.76"/><circle class="cls-8" cx="425.37" cy="220.93" r="15.58"/><circle class="cls-2" cx="425.37" cy="220.93" r="9.02"/><line class="cls-7" x1="441.49" y1="324.51" x2="540.43" y2="324.51"/><circle class="cls-8" cx="446.14" cy="324.78" r="15.58" transform="translate(-90.33 195.45) rotate(-22.5)"/><path class="cls-3" d="M437.12,324.78a9,9,0,1,1,9,9A9,9,0,0,1,437.12,324.78Z"/><line class="cls-7" x1="419.88" y1="427.41" x2="519.66" y2="469.35"/><circle class="cls-8" cx="424.82" cy="430.27" r="15.58"/><circle class="cls-4" cx="424.82" cy="430.27" r="9.02"/><line class="cls-7" x1="337.24" y1="534.76" x2="397.22" y2="612.56"/><circle class="cls-8" cx="339.55" cy="539.04" r="15.58" transform="translate(-180.44 170.97) rotate(-22.5)"/><path class="cls-5" d="M330.54,539a9,9,0,1,1,9,9A9,9,0,0,1,330.54,539Z"/><circle class="cls-8" cx="397.75" cy="40" r="40"/><circle class="cls-8" cx="521.84" cy="182.47" r="40"/><circle class="cls-8" cx="521.84" cy="468.94" r="40"/><circle class="cls-8" cx="543.28" cy="327.23" r="40"/><circle class="cls-8" cx="399.28" cy="609.87" r="40"/><circle class="cls-8" cx="175" cy="323.34" r="157.5"/></g></svg>