<svg xmlns="http://www.w3.org/2000/svg" viewBox="0 0 575.3 880.93"><defs><style>.cls-1{fill:#7e71a4;}.cls-2{fill:#675a8a;}.cls-3{fill:#534972;}.cls-4{fill:#403758;}.cls-5{fill:#2c263f;}.cls-6{fill:#241e38;}.cls-7,.cls-9{fill:none;}.cls-8{fill:#9283be;}.cls-9{stroke:#fff;stroke-miterlimit:10;stroke-width:1.92px;}.cls-10{fill:#fff;}</style></defs><g id="Слой_4" data-name="Слой 4"><path class="cls-1" d="M400.3,436.75l67-161.68a175,175,0,0,0-133.94,0Z"/><path class="cls-2" d="M400.3,436.75l-67-161.68a175.08,175.08,0,0,0-94.71,94.71Z"/><path class="cls-3" d="M400.3,436.75l-161.68-67a175,175,0,0,0,0,133.94Z"/><path class="cls-4" d="M400.3,436.75l-161.68,67a175,175,0,0,0,94.71,94.71Z"/><path class="cls-5" d="M400.3,436.75l-67,161.68a175,175,0,0,0,133.94,0Z"/><path class="cls-6" d="M400.3,436.75l67,161.68A174.91,174.91,0,0,0,562,503.72Z"/><path class="cls-7" d="M400.3,436.75l161.68,67a175,175,0,0,0,0-133.94Z"/><path class="cls-8" d="M400.3,436.75l161.68-67a175,175,0,0,0-94.71-94.71Z"/><path class="cls-9" d="M405.79,168.45c-148.52,0-268.92,120.4-268.92,268.92S257.27,706.3,405.79,706.3"/><line class="cls-9" x1="215.96" y1="246.3" x2="135.21" y2="166.5"/><circle class="cls-10" cx="215.63" cy="245.65" r="15.58" transform="translate(-93.84 350.86) rotate(-67.5)"/><path class="cls-1" d="M224.64,245.65a9,9,0,1,0-9,9A9,9,0,0,0,224.64,245.65Z"/><line class="cls-9" x1="160.62" y1="334.94" x2="63.63" y2="294.17"/><circle class="cls-10" cx="157.91" cy="334.34" r="15.58"/><circle class="cls-2" cx="157.91" cy="334.34" r="9.02"/><line class="cls-9" x1="141.79" y1="437.92" x2="42.86" y2="437.92"/><line class="cls-9" x1="239.58" y1="40.39" x2="302.86" y2="187.82"/><circle class="cls-10" cx="137.14" cy="438.19" r="15.58" transform="translate(-320.18 397.21) rotate(-67.5)"/><path class="cls-3" d="M146.16,438.19a9,9,0,1,0-9,9A9,9,0,0,0,146.16,438.19Z"/><line class="cls-9" x1="163.4" y1="540.82" x2="63.63" y2="582.77"/><circle class="cls-10" cx="158.46" cy="543.69" r="15.58"/><circle class="cls-4" cx="158.46" cy="543.69" r="9.02"/><line class="cls-9" x1="215.96" y1="628.01" x2="136.06" y2="715.97"/><circle class="cls-10" cx="215.63" cy="626.93" r="15.58" transform="translate(-446.09 586.22) rotate(-67.5)"/><path class="cls-5" d="M224.64,626.93a9,9,0,1,0-9,9A9,9,0,0,0,224.64,626.93Z"/><circle class="cls-10" cx="135.53" cy="162.4" r="40"/><circle class="cls-10" cx="302.86" cy="188.8" r="15.58" transform="translate(12.53 396.36) rotate(-67.5)"/><path class="cls-8" d="M311.88,188.8a9,9,0,1,0-9,9A9,9,0,0,0,311.88,188.8Z"/><circle class="cls-10" cx="240.75" cy="40" r="40"/><line class="cls-9" x1="304.56" y1="685.45" x2="240.6" y2="843.37"/><circle class="cls-10" cx="240.75" cy="840.93" r="40"/><circle class="cls-10" cx="61.45" cy="295.88" r="40"/><circle class="cls-10" cx="61.45" cy="582.35" r="40"/><circle class="cls-10" cx="40" cy="440.65" r="40"/><circle class="cls-10" cx="134" cy="713.29" r="40"/><circle class="cls-10" cx="400.3" cy="436.75" r="157.5"/><circle class="cls-10" cx="302.86" cy="686.16" r="15.58" transform="translate(-446.97 703.39) rotate(-67.5)"/><path class="cls-6" d="M311.88,686.16a9,9,0,1,0-9,9A9,9,0,0,0,311.88,686.16Z"/><path class="cls-10" d="M405.41,159.67a9,9,0,1,1-9,9A9,9,0,0,1,405.41,159.67Z"/><path class="cls-10" d="M405.41,696.73a9,9,0,1,1-9,9A9,9,0,0,1,405.41,696.73Z"/></g></svg>