<svg xmlns="http://www.w3.org/2000/svg" viewBox="0 0 641.15 598.47"><defs><style>.cls-1,.cls-5{fill:none;}.cls-1{stroke:#fff;stroke-miterlimit:10;stroke-width:1.92px;}.cls-2{fill:#9283be;}.cls-3{fill:#72649e;}.cls-4{fill:#584c80;}.cls-6{fill:#fff;}.cls-7{fill:#372d54;}</style></defs><g id="Слой_4" data-name="Слой 4"><path class="cls-1" d="M592.53,175c0,148.52-120.4,268.92-268.93,268.92S54.68,323.52,54.68,175"/><path class="cls-2" d="M323.6,175h-175a175,175,0,0,0,51.26,123.74Z"/><path class="cls-3" d="M323.6,175,199.86,298.74A175,175,0,0,0,323.6,350Z"/><path class="cls-3" d="M323.6,175V350a175,175,0,0,0,123.75-51.26Z"/><path class="cls-4" d="M323.6,175,447.35,298.74A175,175,0,0,0,498.6,175Z"/><path class="cls-4" d="M323.6,175h175A175,175,0,0,0,447.35,51.26Z"/><path class="cls-5" d="M323.6,175,447.35,51.26A175,175,0,0,0,323.6,0Z"/><path class="cls-5" d="M323.6,175V0A175,175,0,0,0,199.86,51.26Z"/><path class="cls-2" d="M323.6,175,199.86,51.26A175,175,0,0,0,148.6,175Z"/><line class="cls-1" x1="320.57" y1="444.91" x2="320.57" y2="543.85"/><line class="cls-1" x1="517.68" y1="363.53" x2="577.66" y2="441.33"/><line class="cls-1" x1="124.21" y1="356.38" x2="64.23" y2="434.18"/><path class="cls-6" d="M592.71,166.55a9,9,0,1,1-9,9A9,9,0,0,1,592.71,166.55Z"/><path class="cls-6" d="M57.05,166.55a9,9,0,1,1-9,9A9,9,0,0,1,57.05,166.55Z"/><circle class="cls-6" cx="516.57" cy="362.24" r="15.58" transform="matrix(0.92, -0.38, 0.38, 0.92, -99.3, 225.26)"/><path class="cls-2" d="M516.57,353.22a9,9,0,1,1-9,9A9,9,0,0,1,516.57,353.22Z"/><circle class="cls-6" cx="320.57" cy="441.76" r="15.58" transform="translate(-144.65 156.31) rotate(-22.5)"/><path class="cls-3" d="M320.57,432.74a9,9,0,1,1-9,9A9,9,0,0,1,320.57,432.74Z"/><circle class="cls-6" cx="124.79" cy="356.62" r="15.58" transform="translate(-126.97 74.9) rotate(-22.5)"/><path class="cls-7" d="M124.79,347.6a9,9,0,1,1-9,9A9,9,0,0,1,124.79,347.6Z"/><circle class="cls-6" cx="323.6" cy="175" r="157.5"/><circle class="cls-6" cx="40" cy="461.19" r="40"/><circle class="cls-6" cx="601.15" cy="461.19" r="40"/><circle class="cls-6" cx="320.57" cy="558.47" r="40"/></g></svg>