<svg xmlns="http://www.w3.org/2000/svg" viewBox="0 0 45 45"><defs><style>.cls-1{fill:#d4c6ff;}</style></defs><g id="Слой_1" data-name="Слой 1"><path class="cls-1" d="M41.6,19.46l.07-.05v8.92c0,2.09-7.3,5-19.17,5s-19.17-2.91-19.17-5V19.42l.07,0a5.71,5.71,0,0,0,.6.41l.1.06c.2.12.4.23.62.34l.17.09c.25.12.5.24.77.35l.16.07.73.28.21.08.91.3.21.07.83.23a2,2,0,0,0,.23.06l1,.25.25.06.93.2.22,0,1.13.2.28.05,1,.15.21,0,1.2.14.3,0,1.11.11h.16l1.25.1.31,0,1.19.07h.1l1.27,0h3.2l1.28,0h.1l1.19-.07.31,0,1.25-.1h.15L29.49,23l.31,0c.4,0,.8-.09,1.19-.15l.21,0c.34,0,.69-.1,1-.15l.28,0c.38-.07.76-.13,1.13-.21l.22,0,.93-.2.25-.05,1-.25.23-.06.83-.24.21-.06c.31-.1.62-.2.91-.31l.21-.07.73-.29.16-.06.77-.36.17-.09c.22-.11.42-.22.62-.34l.1-.06C41.22,19.73,41.42,19.59,41.6,19.46ZM41,31.53l-.1.06c-.2.12-.4.23-.62.34l-.17.09c-.25.12-.5.24-.77.35l-.16.07-.73.28-.21.08c-.29.1-.6.21-.91.3l-.21.07-.83.23-.23.07-1,.25-.25.05-.93.2-.22,0-1.13.2-.28,0-1,.15-.21,0c-.39.06-.79.11-1.19.15l-.31,0-1.11.11-.15,0L27,34.84l-.31,0-1.19.06h-.1L24.1,35H20.9l-1.27,0h-.1l-1.19-.06-.31,0-1.25-.1h-.16c-.37,0-.74-.07-1.11-.12l-.3,0c-.41,0-.8-.09-1.2-.15l-.21,0-1-.16-.28,0L11.37,34,11.15,34l-.93-.19L10,33.72l-1-.25-.23-.06-.83-.24-.21-.06-.91-.3-.21-.08-.73-.29-.16-.06c-.27-.12-.52-.23-.77-.36l-.17-.09L4.1,31.6,4,31.53a5.68,5.68,0,0,1-.6-.4l-.07-.05V40c0,2.09,7.29,5,19.17,5s19.17-2.91,19.17-5V31.08l-.07,0A5.71,5.71,0,0,1,41,31.53ZM41,8.2l-.1.06c-.2.11-.4.23-.62.33l-.17.09L39.34,9l-.16.06-.73.29-.21.07c-.29.11-.6.21-.91.31l-.21.06-.83.24-.23.06-1,.25-.25,0-.93.2-.22,0-1.13.2-.28.05-1,.15-.21,0c-.39.06-.79.11-1.19.15l-.31,0-1.11.12h-.15l-1.25.1-.31,0-1.19.07h-.1l-1.28.05h-.31l-1.29,0-1.28,0H20.9l-1.27-.05h-.1l-1.19-.07-.31,0c-.42,0-.84-.06-1.25-.09l-.16,0-1.11-.11-.3,0L14,11.11l-.21,0-1-.15-.28,0-1.13-.2-.22,0-.93-.2-.25,0-1-.25-.23-.06-.83-.24-.21-.06c-.31-.1-.62-.2-.91-.31L6.55,9.4l-.73-.29-.16-.06-.77-.36L4.72,8.6,4.1,8.27,4,8.21c-.22-.14-.42-.27-.6-.41l-.07,0v8.91c0,2.08,7.29,5,19.17,5s19.17-2.92,19.17-5V7.74l-.07,0C41.42,7.93,41.22,8.06,41,8.2ZM22.5,10c10.59,0,19.17-2.24,19.17-5S33.09,0,22.5,0,3.33,2.24,3.33,5,11.92,10,22.5,10Z"/></g></svg>