<svg xmlns="http://www.w3.org/2000/svg" viewBox="0 0 45 45"><defs><style>.cls-1{fill:#584c80;}</style></defs><g id="Слой_4" data-name="Слой 4"><path class="cls-1" d="M21,.4a5.44,5.44,0,0,0-5.36,5.36A5.36,5.36,0,0,0,21,11a5.29,5.29,0,0,0,5.28-5.28A5.36,5.36,0,0,0,21,.4Z"/><path class="cls-1" d="M35.5,24.22a5.27,5.27,0,1,0,.2,10.53c2.09.33,5.07-2.13,5.07-5.25A5.29,5.29,0,0,0,35.5,24.22Z"/><path class="cls-1" d="M6.4,24.22A5.29,5.29,0,0,0,1.13,29.5c0,3.11,2.91,5.48,5,5.24A5.26,5.26,0,1,0,6.4,24.22Z"/><path class="cls-1" d="M41.35,34.77a7.81,7.81,0,0,1-11.71,0,8.09,8.09,0,0,0-2.05,5.36v1.32a1.32,1.32,0,0,0,1.31,1.32H42.09a1.39,1.39,0,0,0,1.4-1.32V40.13A8.17,8.17,0,0,0,41.35,34.77Z"/><path class="cls-1" d="M26.85,11A7.9,7.9,0,0,1,21,13.67,8.07,8.07,0,0,1,15.05,11,7.86,7.86,0,0,0,13,16.31v1.32A1.32,1.32,0,0,0,14.31,19H27.59a1.32,1.32,0,0,0,1.31-1.32V16.31A7.86,7.86,0,0,0,26.85,11Z"/><path class="cls-1" d="M12.26,34.77a7.81,7.81,0,0,1-11.71,0,8.1,8.1,0,0,0-2.06,5.36v1.32A1.32,1.32,0,0,0-.19,42.77H13a1.32,1.32,0,0,0,1.31-1.32V40.13A8.09,8.09,0,0,0,12.26,34.77Z"/><path class="cls-1" d="M10.36,16.31a10.26,10.26,0,0,1,.16-1.75,17.36,17.36,0,0,0-5.46,7.16,8.45,8.45,0,0,1,1.34-.13A7.91,7.91,0,0,1,8,21.74a14.39,14.39,0,0,1,2.47-3.53,3.68,3.68,0,0,1-.06-.58Z"/><path class="cls-1" d="M31.38,14.56a10.26,10.26,0,0,1,.16,1.75v1.32a3.68,3.68,0,0,1-.06.58A14.66,14.66,0,0,1,34,21.74a7.91,7.91,0,0,1,1.55-.15,8.45,8.45,0,0,1,1.34.13A17.36,17.36,0,0,0,31.38,14.56Z"/><path class="cls-1" d="M25,42.16a15.2,15.2,0,0,1-8.14,0,4,4,0,0,1-1.39,2.34,17.56,17.56,0,0,0,5.5.9,17,17,0,0,0,5.42-.9A4,4,0,0,1,25,42.16Z"/></g></svg>