<svg xmlns="http://www.w3.org/2000/svg" viewBox="0 0 45 45"><defs><style>.cls-1{fill:#584c80;}</style></defs><g id="Слой_4" data-name="Слой 4"><path class="cls-1" d="M20.19,0h-15A5.19,5.19,0,0,0,0,5.19v15a.58.58,0,0,0,.58.58H20.19a.58.58,0,0,0,.58-.58V.58A.58.58,0,0,0,20.19,0ZM13.91,12.69H12.12v1.8a1.74,1.74,0,0,1-3.47,0v-1.8H6.86a1.73,1.73,0,1,1,0-3.46H8.65V7.43a1.74,1.74,0,0,1,3.47,0v1.8h1.79a1.73,1.73,0,1,1,0,3.46Z"/><path class="cls-1" d="M39.81,0h-15a.58.58,0,0,0-.58.58V20.19a.58.58,0,0,0,.58.58H44.42a.58.58,0,0,0,.58-.58v-15A5.19,5.19,0,0,0,39.81,0ZM38.13,12.69H31.07a1.73,1.73,0,0,1,0-3.46h7.06a1.73,1.73,0,0,1,0,3.46Z"/><path class="cls-1" d="M20.19,24.23H.58a.58.58,0,0,0-.58.58v15A5.19,5.19,0,0,0,5.19,45h15a.58.58,0,0,0,.58-.58V24.81A.58.58,0,0,0,20.19,24.23ZM14.1,37.76a1.73,1.73,0,0,1-2.44,0l-1.28-1.27L9.11,37.76a1.73,1.73,0,0,1-2.44-2.45L7.94,34,6.67,32.77a1.73,1.73,0,0,1,2.44-2.45l1.27,1.27,1.28-1.27a1.73,1.73,0,0,1,2.44,2.45L12.83,34l1.27,1.27A1.73,1.73,0,0,1,14.1,37.76Z"/><path class="cls-1" d="M44.42,24.23H24.81a.58.58,0,0,0-.58.58V44.42a.58.58,0,0,0,.58.58h15A5.19,5.19,0,0,0,45,39.81v-15A.58.58,0,0,0,44.42,24.23Zm-6.29,14H31.07a1.74,1.74,0,0,1,0-3.47h7.06a1.74,1.74,0,0,1,0,3.47Zm0-5H31.07a1.73,1.73,0,1,1,0-3.46h7.06a1.73,1.73,0,0,1,0,3.46Z"/></g></svg>