<svg xmlns="http://www.w3.org/2000/svg" viewBox="0 0 45 45"><defs><style>.cls-1{fill:#9182bd;}</style></defs><g id="Слой_1" data-name="Слой 1"><path class="cls-1" d="M32,17.36l1.44-2-3-3-2,1.44a11.79,11.79,0,0,0-3.85-1.59L24.26,9.8H20l-.36,2.41a11.75,11.75,0,0,0-3.86,1.59l-2-1.44-3,3,1.44,2a11.79,11.79,0,0,0-1.59,3.85l-2.41.37v4.3l2.41.37a11.79,11.79,0,0,0,1.59,3.85l-1.44,2,3,3,2-1.44a11.75,11.75,0,0,0,3.86,1.59L20,37.66h4.3l.37-2.41a11.79,11.79,0,0,0,3.85-1.59l2,1.44,3-3L32,30.1a12,12,0,0,0,1.6-3.85l2.4-.37v-4.3l-2.4-.37A12,12,0,0,0,32,17.36ZM22.11,32a8.27,8.27,0,1,1,8.27-8.27A8.26,8.26,0,0,1,22.11,32Zm-6.72-8.67,5-2.63v1.73L16.9,24.05l3.46,1.69v1.71l-5-2.65Zm7.23-3.91h1l-1.81,9.2h-1Zm1.5,1.29,5,2.64V24.8l-5,2.66V25.74l3.48-1.67-3.48-1.66ZM43.92,33l-6.28,3.49A.49.49,0,0,1,36.9,36L37,28.82a.49.49,0,0,1,.75-.42l1.18.71a.5.5,0,0,0,.73-.29,18.45,18.45,0,0,0-6.76-20,.49.49,0,0,1-.11-.69l1.13-1.63a.5.5,0,0,1,.7-.12,21.35,21.35,0,0,1,7.59,24.21.49.49,0,0,0,.22.58l1.49.9A.5.5,0,0,1,43.92,33ZM3.26,22.09l-2-.16a.49.49,0,0,1-.45-.55A21.35,21.35,0,0,1,18,2.7a.48.48,0,0,0,.4-.47l0-1.74a.5.5,0,0,1,.75-.42l6.17,3.7a.49.49,0,0,1,0,.86L19,8.12a.5.5,0,0,1-.74-.44l0-1.38a.5.5,0,0,0-.61-.49A18.4,18.4,0,0,0,3.79,21.66.48.48,0,0,1,3.26,22.09ZM30.94,42.51a.5.5,0,0,1-.25.67A21.34,21.34,0,0,1,5.93,37.65a.49.49,0,0,0-.61-.1l-1.52.84A.5.5,0,0,1,3.06,38l.13-7.19a.49.49,0,0,1,.75-.42L10.1,34a.5.5,0,0,1,0,.86l-1.2.67a.49.49,0,0,0-.12.77,18.38,18.38,0,0,0,20.68,4.13.49.49,0,0,1,.64.24Z"/></g></svg>