<svg xmlns="http://www.w3.org/2000/svg" viewBox="0 0 45 45"><defs><style>.cls-1{fill:#584c80;}</style></defs><g id="Слой_4" data-name="Слой 4"><circle class="cls-1" cx="35.69" cy="35.69" r="1.55"/><path class="cls-1" d="M35.69,31a4.66,4.66,0,1,0,4.65,4.66A4.66,4.66,0,0,0,35.69,31Zm0,7.76a3.1,3.1,0,1,1,3.1-3.1A3.1,3.1,0,0,1,35.69,38.79Z"/><path class="cls-1" d="M43,38.28l.14-.39L45,37.42V34l-1.87-.47L43,33.1a6,6,0,0,0-.3-.74L42.51,32l1-1.65-2.44-2.44-1.65,1L39,28.69c-.24-.11-.48-.21-.74-.3l-.39-.14-.47-1.87H34l-.47,1.87-.39.14a6,6,0,0,0-.74.3l-.38.18-1.65-1-2.44,2.44,1,1.65-.18.38c-.11.24-.21.48-.3.74l-.14.39L26.38,34v3.45l1.87.48.14.39a6.74,6.74,0,0,0,.3.74l.18.37-1,1.66,2.44,2.44,1.65-1,.38.18c.24.11.48.21.74.3l.39.14L34,45h3.45l.48-1.87.39-.14a6.74,6.74,0,0,0,.74-.3l.37-.18,1.66,1,2.44-2.44-1-1.65.18-.38A6,6,0,0,0,43,38.28Zm-7.3,3.62a6.21,6.21,0,1,1,6.21-6.21A6.22,6.22,0,0,1,35.69,41.9Z"/><polygon class="cls-1" points="26.15 16.07 25.16 15.7 23.6 18.3 25.15 19.08 26.15 16.07"/><path class="cls-1" d="M30.26,19.22A2.34,2.34,0,0,0,28.75,17l-1.14-.43-1.55,4.66L22.5,19.49l-3.56,1.78-1.55-4.66L16.25,17a2.34,2.34,0,0,0-1.51,2.18v2.5H30.26Z"/><path class="cls-1" d="M17.84,9.87V7.2a1.54,1.54,0,0,0,0,2.67Z"/><path class="cls-1" d="M22.5,13.19a3.1,3.1,0,0,0,3.1-3.1V6.93a6,6,0,0,1-3.1-1.24,6,6,0,0,1-3.1,1.24v3.16A3.1,3.1,0,0,0,22.5,13.19Z"/><path class="cls-1" d="M18.75,5.43A4.5,4.5,0,0,0,22,4.11l.55-.55.55.55a4.5,4.5,0,0,0,3.2,1.32h.13a3.13,3.13,0,0,1,1.55.43V5.43a5.43,5.43,0,0,0-10.86,0v.43a3.13,3.13,0,0,1,1.55-.43Z"/><polygon class="cls-1" points="19.85 19.08 21.4 18.3 19.84 15.7 18.85 16.07 19.85 19.08"/><path class="cls-1" d="M27.16,9.87a1.54,1.54,0,0,0,0-2.67Z"/><path class="cls-1" d="M24.05,14.53v-.06a4.58,4.58,0,0,1-3.1,0v.06l1.55,2.58Z"/><path class="cls-1" d="M0,45H12.41V27.93H0Zm10.86-1.55H9.31V41.9h1.55Zm0-9.31H4.66V32.59h6.2ZM1.55,29.48h9.31V31H1.55Zm0,3.11H3.1v1.55H1.55Zm0,3.1h9.31v1.55H1.55Zm0,3.1h9.31v1.55H1.55Zm0,3.11H7.76v1.55H1.55Z"/><polygon class="cls-1" points="19.17 33.13 18.07 32.04 14.42 35.69 18.07 39.34 19.17 38.24 17.39 36.47 23.28 36.47 23.28 34.91 17.39 34.91 19.17 33.13"/><path class="cls-1" d="M9.54,6.76l1.78,1.77H7.76a2.34,2.34,0,0,0-2.33,2.33v14H7v-14a.77.77,0,0,1,.78-.77h3.56L9.54,11.87,10.63,13l3.66-3.65L10.63,5.66Z"/><path class="cls-1" d="M35.69,10.86v9.77l-1.78-1.78L32.81,20l3.66,3.65L40.12,20,39,18.85l-1.78,1.78V10.86a2.33,2.33,0,0,0-2.33-2.33H31v1.56h3.88A.77.77,0,0,1,35.69,10.86Z"/></g></svg>