<svg xmlns="http://www.w3.org/2000/svg" viewBox="0 0 45 45"><defs><style>.cls-1{fill:#584c80;}</style></defs><g id="Слой_4" data-name="Слой 4"><rect class="cls-1" x="18.48" y="32.95" width="8.04" height="3.21"/><path class="cls-1" d="M22.5,3.21A19.29,19.29,0,1,0,41.79,22.5,19.29,19.29,0,0,0,22.5,3.21Zm-7.8,26,5.63-5.63a2.29,2.29,0,0,1-.24-1,2.41,2.41,0,0,1,2.41-2.41,2.29,2.29,0,0,1,1,.24l1.62-1.61,1.13,1.13-1.61,1.62a2.29,2.29,0,0,1,.24,1,2.41,2.41,0,0,1-2.41,2.41,2.29,2.29,0,0,1-1-.24L15.84,30.3ZM28.13,37a.81.81,0,0,1-.81.81H17.68a.8.8,0,0,1-.8-.81V32.14a.8.8,0,0,1,.8-.8h9.64a.8.8,0,0,1,.81.8Zm9.6-13.66a15.14,15.14,0,0,1-3.88,9.41L35,33.86,33.86,35l-1.7-1.7a.81.81,0,0,1,0-1.14A13.79,13.79,0,0,0,35,27.92l-1.49-.54.55-1.51,1.49.54a13.5,13.5,0,0,0-.32-8.72l-1.43.64-.65-1.47,1.43-.64a13.71,13.71,0,0,0-6.27-6l-.59,1.46L26.27,11l.59-1.46a13.56,13.56,0,0,0-8.72,0L18.73,11l-1.49.61-.58-1.46a13.73,13.73,0,0,0-6.28,6l1.44.64-.66,1.47-1.43-.64a13.57,13.57,0,0,0-.32,8.72l1.49-.54.55,1.51L10,27.92a13.59,13.59,0,0,0,2.87,4.24.8.8,0,0,1,0,1.14L11.14,35,10,33.86l1.15-1.15A15.14,15.14,0,0,1,7.27,23.3H5.63V21.7H7.27a15.19,15.19,0,0,1,3.9-9.4L10,11.14,11.14,10l1.16,1.17a15.19,15.19,0,0,1,9.4-3.9V5.63h1.6V7.27a15.19,15.19,0,0,1,9.4,3.9L33.86,10,35,11.14,33.83,12.3a15.19,15.19,0,0,1,3.9,9.4h1.65v1.6Z"/><path class="cls-1" d="M22.5,0A22.5,22.5,0,1,0,45,22.5,22.5,22.5,0,0,0,22.5,0Zm0,43.39A20.89,20.89,0,1,1,43.39,22.5,20.89,20.89,0,0,1,22.5,43.39Z"/></g></svg>