<svg xmlns="http://www.w3.org/2000/svg" viewBox="0 0 45 45"><defs><style>.cls-1{fill:#daceff;}</style></defs><g id="Слой_1" data-name="Слой 1"><path class="cls-1" d="M35,0H2.64A2.64,2.64,0,0,0,0,2.64v8H27.11ZM8,8H5.36V5.36H8Zm5.27,0H10.63V5.36h2.64Zm5.27,0H15.91V5.36h2.63ZM29.83,22l-2.37,1.37-.71-.61a6.56,6.56,0,0,0-2.06-1.19l-.88-.31V18.54H21.17v2.74l-.88.31a6.32,6.32,0,0,0-2.05,1.19l-.71.61L15.15,22,13.83,24.3l2.36,1.36-.17.92a6.67,6.67,0,0,0-.12,1.19A6.78,6.78,0,0,0,16,29l.17.91-2.35,1.37,1.32,2.28,2.37-1.37.72.61A6.71,6.71,0,0,0,20.3,34l.88.31V37h2.64V34.27L24.7,34a6.51,6.51,0,0,0,2.05-1.19l.72-.61,2.37,1.37,1.32-2.28L28.8,29.88,29,29a6.78,6.78,0,0,0,.12-1.2A6.67,6.67,0,0,0,29,26.58l-.17-.92,2.36-1.36ZM22.5,31.73a4,4,0,1,1,4-4A4,4,0,0,1,22.5,31.73ZM42.36,0h-4L28.43,13.27H0V42.36A2.64,2.64,0,0,0,2.64,45H42.36A2.64,2.64,0,0,0,45,42.36V2.64A2.64,2.64,0,0,0,42.36,0ZM31.73,27.77a6,6,0,0,1,0,.74l3.06,1.77L30.8,37.13l-3.1-1.78a9.08,9.08,0,0,1-1.25.73v3.56H18.54V36.08a9.36,9.36,0,0,1-1.26-.73l-3.09,1.78-4-6.85,3.06-1.77a6,6,0,0,1,0-.74,5.85,5.85,0,0,1,0-.73l-3.06-1.77,4-6.86,3.09,1.79a8.27,8.27,0,0,1,1.26-.73V15.91h7.91v3.56a9.26,9.26,0,0,1,1.25.73l3.1-1.79,3.95,6.86L31.69,27A5.85,5.85,0,0,1,31.73,27.77Zm-7.91,0a1.32,1.32,0,1,1-1.32-1.31A1.32,1.32,0,0,1,23.82,27.77Z"/></g></svg>