<svg xmlns="http://www.w3.org/2000/svg" viewBox="0 0 45 45"><defs><style>.cls-1{fill:#a493d5;}</style></defs><g id="Слой_1" data-name="Слой 1"><path class="cls-1" d="M20.89,41a1.61,1.61,0,1,1,1.61,1.61A1.6,1.6,0,0,1,20.89,41ZM9.64,37H35.36V44.2a.8.8,0,0,1-.81.8H10.45a.8.8,0,0,1-.81-.8Zm9.65,4a3.21,3.21,0,1,0,3.21-3.21A3.21,3.21,0,0,0,19.29,41ZM35.36.8V35.36H9.64V.8a.81.81,0,0,1,.81-.8h24.1A.81.81,0,0,1,35.36.8ZM30.74,8h2.07V10h1.38V7.27a.69.69,0,0,0-.7-.69H30.74ZM19.29,2.41a.8.8,0,0,0,.8.8h4.82a.8.8,0,1,0,0-1.6H20.09A.8.8,0,0,0,19.29,2.41ZM11,10h1.38V8H14.4V6.58H11.64a.69.69,0,0,0-.69.69Zm3.45,22.4H12.33V30.36H11v2.77a.69.69,0,0,0,.7.69H14.4Zm8.5.52,9.77-5.47a.79.79,0,0,0,.41-.7V15.43h0a.78.78,0,0,0-.39-.69L22.91,8.83a.83.83,0,0,0-.81,0L12.33,14.3a.74.74,0,0,0-.41.69V26.36a.75.75,0,0,0,.39.68l9.77,5.9a.78.78,0,0,0,.53.11A.71.71,0,0,0,22.9,33Zm11.29-2.6H32.81v2.08H30.74v1.38H33.5a.69.69,0,0,0,.69-.7ZM31.46,15.89V26.33l-8.95,5-9-5.43V15.46l9-5Zm-1.88.69a.78.78,0,0,0-1.08-.26l-6,3.65-6-3.65a.79.79,0,1,0-.82,1.35l6,3.66v7.11a.79.79,0,0,0,1.58,0V21.35l6-3.68A.79.79,0,0,0,29.58,16.58Z"/></g></svg>