<svg xmlns="http://www.w3.org/2000/svg" viewBox="0 0 45 45"><defs><style>.cls-1{fill:#584c80;}</style></defs><g id="Слой_4" data-name="Слой 4"><path class="cls-1" d="M24.83,12.41A12.42,12.42,0,1,0,12.41,24.83,12.43,12.43,0,0,0,24.83,12.41Zm-23.28,0A10.87,10.87,0,1,1,12.41,23.28,10.87,10.87,0,0,1,1.55,12.41Z"/><circle class="cls-1" cx="12.41" cy="12.41" r="0.78"/><path class="cls-1" d="M21.72,12.41a9.31,9.31,0,1,0-9.31,9.31A9.32,9.32,0,0,0,21.72,12.41Zm-3.1-2.32a2.33,2.33,0,1,1-2.33,2.32A2.33,2.33,0,0,1,18.62,10.09ZM6.21,14.74a2.33,2.33,0,1,1,2.32-2.33A2.33,2.33,0,0,1,6.21,14.74Zm3.88-2.33a2.33,2.33,0,1,1,2.32,2.33A2.32,2.32,0,0,1,10.09,12.41Z"/><circle class="cls-1" cx="6.21" cy="12.41" r="0.78"/><circle class="cls-1" cx="18.62" cy="12.41" r="0.78"/><path class="cls-1" d="M10.36,26.21a6.42,6.42,0,0,1,.45,1.72H14a6.42,6.42,0,0,1,.45-1.72,13.85,13.85,0,0,1-2.06.17,13.83,13.83,0,0,1-2.05-.17Z"/><circle class="cls-1" cx="12.41" cy="41.12" r="0.78"/><path class="cls-1" d="M14.12,29.48h-3.4L8.61,40a4,4,0,0,0-.08.77v.31a3.88,3.88,0,1,0,7.76,0v-.31a4,4,0,0,0-.07-.77Zm-1.71,14a2.33,2.33,0,1,1,2.33-2.33A2.33,2.33,0,0,1,12.41,43.45Z"/><path class="cls-1" d="M44.22,34.14H33.36a.77.77,0,0,0-.77.77v9.31a.77.77,0,0,0,.77.78H44.22a.78.78,0,0,0,.78-.78V34.91A.78.78,0,0,0,44.22,34.14ZM34.14,38.79h6.2v1.55h-6.2Zm9.31,4.66H34.14V41.9h9.31Zm0-3.11H41.9V38.79h1.55Zm0-3.1H34.14V35.69h9.31Z"/><path class="cls-1" d="M44.22,17.07H33.36a.77.77,0,0,0-.77.77v9.32a.77.77,0,0,0,.77.77H44.22a.78.78,0,0,0,.78-.77V17.84A.78.78,0,0,0,44.22,17.07Zm-3.88,9.31h-6.2V24.83h6.2Zm3.11,0H41.9V24.83h1.55Zm0-3.1H34.14V21.72h9.31Zm0-3.11H34.14V18.62h9.31Z"/><path class="cls-1" d="M44.22,0H33.36a.77.77,0,0,0-.77.78v9.31a.77.77,0,0,0,.77.77H44.22a.78.78,0,0,0,.78-.77V.78A.78.78,0,0,0,44.22,0ZM34.14,4.66h1.55V6.21H34.14Zm9.31,4.65H34.14V7.76h9.31Zm0-3.1H37.24V4.66h6.21Zm0-3.11H34.14V1.55h9.31Z"/><path class="cls-1" d="M24.73,19a13.26,13.26,0,0,1-.84,1.35l2.94,3H31V21.72H27.48Z"/><path class="cls-1" d="M19.05,24.68a14.17,14.17,0,0,1-1.42.67l9.88,15H31V38.79H28.35Z"/><path class="cls-1" d="M25.28,7a15.07,15.07,0,0,1,.56,1.64l2.41-2.41H31V4.66H27.61Z"/></g></svg>