<svg xmlns="http://www.w3.org/2000/svg" viewBox="0 0 45 45"><defs><style>.cls-1{fill:#9182bd;}</style></defs><g id="Слой_1" data-name="Слой 1"><path class="cls-1" d="M1.2,35.6a1.34,1.34,0,0,1,1.34-1.34H15.67a1.34,1.34,0,0,1,0,2.68H2.54A1.34,1.34,0,0,1,1.2,35.6Zm19.72,2.94H2.54a1.34,1.34,0,1,0,0,2.68H20.92a1.34,1.34,0,0,0,0-2.68ZM4.3,9.48h9.85A4.1,4.1,0,0,0,18,6.74h5.43L23.15,7a1.34,1.34,0,0,0,1,2.28A1.33,1.33,0,0,0,25,8.92l2.58-2.57a1.36,1.36,0,0,0,0-1.9L25,1.88a1.34,1.34,0,0,0-1.89,1.89l.29.29H18a4.1,4.1,0,0,0-3.86-2.74H4.3a4.08,4.08,0,0,0,0,8.16Zm39.83,27a7.22,7.22,0,1,1-8.56-7.09v-4H30.75l-2.18,2.18a1.34,1.34,0,0,1-1.89-1.9l.29-.28H21.12A4,4,0,0,1,17.34,28H4a4,4,0,0,1,0-8H8.48V15.67L8.19,16A1.34,1.34,0,0,1,6.3,16a1.32,1.32,0,0,1,0-1.89l2-2c.52-.53.85-1,1.55-1s1,.56,1.55,1l2,2a1.34,1.34,0,0,1-.95,2.28,1.68,1.68,0,0,1-1.23-.68V20h6.18a4,4,0,0,1,3.79,2.67H27l-.29-.29a1.34,1.34,0,0,1,1.89-1.89l2.18,2.18h4.82V19.21L33.1,16.74a1.34,1.34,0,0,1,0-1.89,1.32,1.32,0,0,1,1.89,0l.58.58V9.48c-2.55,0-3,.1-3.95-.17L27.35,15l.63-.09a1.34,1.34,0,1,1,.37,2.65l-3.86.54A1.34,1.34,0,0,1,23,17l-.54-3.86a1.34,1.34,0,1,1,2.65-.37l.1.69,4.25-5.69a4.09,4.09,0,0,1,3.34-6.43h8.14a4.08,4.08,0,0,1,0,8.16H38.25v5.95l.58-.58a1.34,1.34,0,1,1,1.89,1.89l-2.47,2.47V29.37A7.22,7.22,0,0,1,44.13,36.46Zm-3.62-2.58a1.34,1.34,0,0,0-1.89,0L36,36.54l-.74-.74a1.34,1.34,0,0,0-1.89,0,1.32,1.32,0,0,0,0,1.89L35,39.38a1.34,1.34,0,0,0,1.89,0l3.61-3.61A1.34,1.34,0,0,0,40.51,33.88Z"/></g></svg>