<svg xmlns="http://www.w3.org/2000/svg" viewBox="0 0 45 45"><defs><style>.cls-1{fill:#584c80;}</style></defs><g id="Слой_4" data-name="Слой 4"><path class="cls-1" d="M8.21,4A2.34,2.34,0,0,0,8.33.78H4.86A2.33,2.33,0,0,0,8.21,4ZM6.59,1.55a.78.78,0,1,1,0,1.55.77.77,0,0,1-.77-.77A.78.78,0,0,1,6.59,1.55Z"/><path class="cls-1" d="M9.21,5.2A3.88,3.88,0,0,1,3.5,0H.39V7.76a3.1,3.1,0,0,0,3.1,3.1h25.6a3.1,3.1,0,0,0,3.11-3.1V0H9.69A3.87,3.87,0,0,1,9.21,5.2Zm19.11,1a.77.77,0,0,1-.78.77H17.46a.77.77,0,0,1-.78-.77.78.78,0,0,1,.78-.78H27.54A.78.78,0,0,1,28.32,6.21ZM12.8,1.55H23.66a.78.78,0,0,1,.78.78.77.77,0,0,1-.78.77H12.8A.76.76,0,0,1,12,2.33.77.77,0,0,1,12.8,1.55Zm0,3.88h1.55a.78.78,0,0,1,.78.78.77.77,0,0,1-.78.77H12.8A.76.76,0,0,1,12,6.21.77.77,0,0,1,12.8,5.43Z"/><path class="cls-1" d="M29.09,14H3.49a3.1,3.1,0,0,0-3.1,3.1V27.93A3.1,3.1,0,0,0,3.49,31h25.6a3.1,3.1,0,0,0,3.11-3.1V17.07A3.1,3.1,0,0,0,29.09,14ZM12.8,17.84h1.55a.78.78,0,1,1,0,1.56H12.8a.78.78,0,0,1,0-1.56Zm0,3.88H23.66a.78.78,0,0,1,0,1.56H12.8a.78.78,0,0,1,0-1.56ZM9.34,25.24a3.88,3.88,0,1,1,1.13-2.74A3.84,3.84,0,0,1,9.34,25.24Zm5,1.92H12.8a.78.78,0,0,1,0-1.56h1.55a.78.78,0,0,1,0,1.56Zm13.19,0H17.46a.78.78,0,1,1,0-1.56H27.54a.78.78,0,0,1,0,1.56Zm0-3.88h-.77a.78.78,0,1,1,0-1.56h.77a.78.78,0,0,1,0,1.56Zm0-3.88H17.46a.78.78,0,1,1,0-1.56H27.54a.78.78,0,1,1,0,1.56Z"/><path class="cls-1" d="M6.59,20.17A2.33,2.33,0,1,0,8.92,22.5,2.32,2.32,0,0,0,6.59,20.17Zm0,3.11a.78.78,0,1,1,.78-.78A.78.78,0,0,1,6.59,23.28Z"/><path class="cls-1" d="M29.09,34.14H3.49a3.1,3.1,0,0,0-3.1,3.1V45H3.5a3.88,3.88,0,1,1,6.19,0H32.2V37.24A3.1,3.1,0,0,0,29.09,34.14ZM12.8,38h1.55a.77.77,0,0,1,.78.77.78.78,0,0,1-.78.78H12.8a.77.77,0,0,1-.77-.78A.76.76,0,0,1,12.8,38Zm10.86,5.43H12.8a.77.77,0,0,1-.77-.78.76.76,0,0,1,.77-.77H23.66a.77.77,0,0,1,.78.77A.78.78,0,0,1,23.66,43.45Zm3.88,0h-.77a.78.78,0,0,1-.78-.78.77.77,0,0,1,.78-.77h.77a.77.77,0,0,1,.78.77A.78.78,0,0,1,27.54,43.45Zm0-3.88H17.46a.78.78,0,0,1-.78-.78.77.77,0,0,1,.78-.77H27.54a.77.77,0,0,1,.78.77A.78.78,0,0,1,27.54,39.57Z"/><path class="cls-1" d="M6.59,40.34a2.37,2.37,0,0,0-2.12,1.38,2.34,2.34,0,0,0,.39,2.5H8.33a2.34,2.34,0,0,0,.39-2.5A2.37,2.37,0,0,0,6.59,40.34Zm0,3.11a.78.78,0,0,1-.77-.78.78.78,0,0,1,1.55,0A.78.78,0,0,1,6.59,43.45Z"/><path class="cls-1" d="M40,7.76a4.66,4.66,0,1,0,4.65,4.65A4.66,4.66,0,0,0,40,7.76Zm0,7.76a3.11,3.11,0,1,1,3.1-3.11A3.11,3.11,0,0,1,40,15.52Z"/><path class="cls-1" d="M40.73,6.26V1.55A.77.77,0,0,0,40.51,1,.75.75,0,0,0,40,.78a.77.77,0,0,0-.78.77V6.26A5.75,5.75,0,0,1,40.73,6.26Z"/><path class="cls-1" d="M39.18,18.57V43.45a.77.77,0,0,0,.78.77.76.76,0,0,0,.77-.77V18.57A5.75,5.75,0,0,1,39.18,18.57Z"/><circle class="cls-1" cx="39.96" cy="12.41" r="1.55"/></g></svg>