<svg xmlns="http://www.w3.org/2000/svg" viewBox="0 0 45 45"><defs><style>.cls-1{fill:#584c80;}</style></defs><g id="Слой_4" data-name="Слой 4"><circle class="cls-1" cx="32.14" cy="29.73" r="0.8"/><path class="cls-1" d="M20.08,29.73A12.06,12.06,0,0,1,36.16,18.37v-16A2.42,2.42,0,0,0,33.75,0V7.23a.79.79,0,0,1-.5.74.67.67,0,0,1-.31.07.82.82,0,0,1-.57-.24L30.53,6,28.69,7.8a.81.81,0,0,1-1.37-.57V0H4.82A2.41,2.41,0,0,0,2.41,2.41V42.59A2.41,2.41,0,0,0,4.82,45H33.75a2.42,2.42,0,0,0,2.41-2.41v-1.5A12,12,0,0,1,20.08,29.73Zm8-16.87h4.82v1.6H28.12ZM10.44,3.21h8V4.82h-8Zm-4.82,0H8.83V4.82H5.62Zm0,3.22H18.48V8H5.62Zm0,6.43H26.51v1.6H5.62Zm0,4.82H21.69v1.61H5.62Zm8,22.5h-8V38.57h8Zm0-3.22h-8v-1.6h8Zm3.21-8H5.62V27.32H16.87Zm1.61-4.82H5.62V22.5H18.48Z"/><path class="cls-1" d="M42.39,27.68a10.45,10.45,0,1,0-6.23,11.7h0A10.46,10.46,0,0,0,42.39,27.68ZM24.1,30.54H22.5V28.93h1.6Zm7.23-10.45h1.61V21.7H31.33Zm1.61,19.29H31.33V37.77h1.61Zm1.56-9.24a2.4,2.4,0,0,1-4.63.4H27.32V28.93h2.55a2.43,2.43,0,0,1,1.46-1.46V23.3h1.61v4.17A2.41,2.41,0,0,1,34.5,30.14Zm7.28.4H40.17V28.93h1.61Z"/><path class="cls-1" d="M31.1,4.25l1,1V0H28.92V5.29l1-1A.81.81,0,0,1,31.1,4.25Z"/></g></svg>