<svg xmlns="http://www.w3.org/2000/svg" viewBox="0 0 45 45"><defs><style>.cls-1{fill:#584c80;}</style></defs><g id="Слой_4" data-name="Слой 4"><path class="cls-1" d="M3.75,11.25h37.5A3.75,3.75,0,0,0,45,7.5V3.75A3.75,3.75,0,0,0,41.25,0H3.75A3.75,3.75,0,0,0,0,3.75V7.5A3.75,3.75,0,0,0,3.75,11.25ZM38.44,5.62a.94.94,0,1,1-.94.94A.94.94,0,0,1,38.44,5.62Zm-3.75,0a.94.94,0,1,1-.94.94A.95.95,0,0,1,34.69,5.62Zm-3.75,0a.94.94,0,1,1-.94.94A.94.94,0,0,1,30.94,5.62Zm-3.75,0a.94.94,0,1,1-.94.94A.94.94,0,0,1,27.19,5.62ZM5.63,3.75A1.88,1.88,0,1,1,3.75,5.62,1.87,1.87,0,0,1,5.63,3.75Zm35.62,9.37H3.75A3.76,3.76,0,0,0,0,16.87v3.75a3.75,3.75,0,0,0,3.75,3.75h37.5A3.75,3.75,0,0,0,45,20.62V16.87A3.76,3.76,0,0,0,41.25,13.12ZM5.63,20.62A1.88,1.88,0,1,1,7.5,18.75,1.88,1.88,0,0,1,5.63,20.62Zm21.56,0a.94.94,0,1,1,.93-.93A.94.94,0,0,1,27.19,20.62Zm3.75,0a.94.94,0,1,1,.93-.93A.94.94,0,0,1,30.94,20.62Zm3.75,0a.94.94,0,1,1,.94-.93A.94.94,0,0,1,34.69,20.62Zm3.75,0a.94.94,0,1,1,.93-.93A.94.94,0,0,1,38.44,20.62Zm2.81,5.63H3.75A3.75,3.75,0,0,0,0,30v3.75A3.75,3.75,0,0,0,3.75,37.5H15.94a.94.94,0,0,0-.94.94v.93h-.94a1,1,0,0,0-.94.94v.94H4.69a.94.94,0,1,0,0,1.87h8.43v.94a1,1,0,0,0,.94.94h7.5a.94.94,0,0,0,.94-.94v-.94h8.44a.94.94,0,0,0,0-1.87H22.5v-.94a.94.94,0,0,0-.94-.94h-.94v-.93a.94.94,0,0,0-.93-.94H41.25A3.75,3.75,0,0,0,45,33.75V30A3.75,3.75,0,0,0,41.25,26.25ZM5.63,33.75A1.88,1.88,0,1,1,7.5,31.87,1.88,1.88,0,0,1,5.63,33.75Zm21.56,0a.94.94,0,1,1,.93-.94A.94.94,0,0,1,27.19,33.75Zm3.75,0a.94.94,0,1,1,.93-.94A.94.94,0,0,1,30.94,33.75Zm3.75,0a.94.94,0,1,1,.94-.94A1,1,0,0,1,34.69,33.75Zm3.75,0a.94.94,0,1,1,.93-.94A.94.94,0,0,1,38.44,33.75Z"/></g></svg>