<svg xmlns="http://www.w3.org/2000/svg" viewBox="0 0 45 45"><defs><style>.cls-1{fill:#9182bd;}</style></defs><g id="Слой_1" data-name="Слой 1"><path class="cls-1" d="M41.41,0H3.59A3.59,3.59,0,0,0,0,3.59V41.41A3.59,3.59,0,0,0,3.59,45H41.41A3.59,3.59,0,0,0,45,41.41V3.59A3.59,3.59,0,0,0,41.41,0Zm-2,35.7H36.18a5.17,5.17,0,0,1-10,0H6.56a1.32,1.32,0,0,1,0-2.64H26.19a5.17,5.17,0,0,1,10,0h3.27a1.32,1.32,0,0,1,0,2.64ZM5.24,22.5a1.32,1.32,0,0,1,1.32-1.32H18a5.16,5.16,0,0,1,10,0H39.46a1.32,1.32,0,1,1,0,2.64H28a5.16,5.16,0,0,1-10,0H6.56A1.32,1.32,0,0,1,5.24,22.5ZM39.45,11.94H19.82a5.17,5.17,0,0,1-10,0H6.56a1.32,1.32,0,1,1,0-2.64H9.83a5.17,5.17,0,0,1,10,0H39.46a1.32,1.32,0,1,1,0,2.64Zm-22.1-1.32a2.53,2.53,0,1,1-2.53-2.53A2.53,2.53,0,0,1,17.35,10.62ZM20.48,22.5A2.53,2.53,0,1,1,23,25,2.53,2.53,0,0,1,20.48,22.5ZM33.71,34.38a2.53,2.53,0,1,1-2.53-2.53A2.53,2.53,0,0,1,33.71,34.38Z"/></g></svg>