<svg xmlns="http://www.w3.org/2000/svg" viewBox="0 0 45 45"><defs><style>.cls-1{fill:#584c80;}</style></defs><g id="Слой_4" data-name="Слой 4"><path class="cls-1" d="M14,8H41a4,4,0,0,0,0-8H14a4,4,0,0,0,0,8Z"/><circle class="cls-1" cx="4" cy="4" r="4"/><path class="cls-1" d="M41,12.33H14a4,4,0,0,0,0,8H41a4,4,0,1,0,0-8Z"/><circle class="cls-1" cx="4" cy="16.33" r="4"/><path class="cls-1" d="M41,24.67H14a4,4,0,0,0,0,8H41a4,4,0,0,0,0-8Z"/><circle class="cls-1" cx="4" cy="28.67" r="4"/><rect class="cls-1" x="10" y="37" width="35" height="8" rx="4"/><circle class="cls-1" cx="4" cy="41" r="4"/></g></svg>