<svg xmlns="http://www.w3.org/2000/svg" viewBox="0 0 45 45"><defs><style>.cls-1{fill:#584c80;}</style></defs><g id="Слой_4" data-name="Слой 4"><path class="cls-1" d="M6.76,43.83,18.5,32.08a3.89,3.89,0,0,0,.77-4.49l6.46-6.46,4.9-1.65,3.61,4.09a1.29,1.29,0,0,0,1.32.39,1.32,1.32,0,0,0,.95-1l1.11-5.35,5.32-1.08a1.34,1.34,0,0,0,1-1,1.32,1.32,0,0,0-.4-1.34l-4.06-3.62L41.2,5.46A1.36,1.36,0,0,0,39.54,3.8L34.38,5.51,30.76,1.45a1.33,1.33,0,0,0-2.29.61L27.39,7.38,22,8.49a1.32,1.32,0,0,0-1,.95,1.29,1.29,0,0,0,.39,1.32l4.09,3.61-1.65,4.9-6.46,6.46a3.89,3.89,0,0,0-4.49.77L1.17,38.24a3.92,3.92,0,0,0,0,5.59,3.92,3.92,0,0,0,5.59,0Z"/><path class="cls-1" d="M22.24,17.16a1.32,1.32,0,1,0-1.86,0A1.3,1.3,0,0,0,22.24,17.16Z"/><path class="cls-1" d="M29.7,24.62a1.32,1.32,0,1,0-1.86,0A1.3,1.3,0,0,0,29.7,24.62Z"/><circle class="cls-1" cx="39.95" cy="19.96" r="1.32"/><circle class="cls-1" cx="25.04" cy="5.05" r="1.32"/><circle class="cls-1" cx="36.23" cy="1.32" r="1.32"/><circle class="cls-1" cx="43.68" cy="8.77" r="1.32"/></g></svg>