<svg xmlns="http://www.w3.org/2000/svg" viewBox="0 0 45 45"><defs><style>.cls-1{fill:#584c80;}</style></defs><g id="Слой_4" data-name="Слой 4"><path class="cls-1" d="M41.84,14.15H40.61V27.7c0,2.11-1.23,4-3.69,4H12.8v.64c0,1.87,2.12,3.75,4.3,3.75H35.54l7.05,4.15-1-4.15h.27C44,36.11,45,34.23,45,32.36v-15A2.91,2.91,0,0,0,41.84,14.15Z"/><path class="cls-1" d="M33.32,4.74H5.3C2.84,4.74,0,6.93,0,9V26C0,28,2.4,29.37,4.71,29.59l-1.5,5.69,9.61-5.65h20.5c2.46,0,4.74-1.5,4.74-3.61V9C38.06,6.93,35.78,4.74,33.32,4.74ZM9.58,19.08a2.54,2.54,0,1,1,2.53-2.54A2.54,2.54,0,0,1,9.58,19.08Zm9.45,0a2.54,2.54,0,1,1,2.53-2.54A2.54,2.54,0,0,1,19,19.08Zm9.45,0A2.54,2.54,0,1,1,31,16.54,2.54,2.54,0,0,1,28.48,19.08Z"/></g></svg>