<svg xmlns="http://www.w3.org/2000/svg" viewBox="0 0 45 45"><defs><style>.cls-1{fill:#584c80;}</style></defs><g id="Слой_4" data-name="Слой 4"><path class="cls-1" d="M30.53,12.05a2.41,2.41,0,0,1-2.41-2.41V4H11.25A2.41,2.41,0,0,0,8.84,6.43h12.1a.78.78,0,0,1,.21,0l.07,0a.78.78,0,0,1,.24.16l8,8a1,1,0,0,1,.16.24s0,.05,0,.07a.52.52,0,0,1,0,.21s0,0,0,0V41h4a2.41,2.41,0,0,0,2.41-2.41V12.05Z"/><path class="cls-1" d="M20.09,13.66V8H3.21A2.41,2.41,0,0,0,.8,10.45V42.59A2.41,2.41,0,0,0,3.21,45h22.5a2.41,2.41,0,0,0,2.41-2.41V16.07H22.5A2.41,2.41,0,0,1,20.09,13.66ZM8,19.29H9.64v1.6H8Zm-4.82,0H6.43v1.6H3.21Zm0,4.82h9.65v1.6H3.21Zm14.47,1.6H14.46v-1.6h3.22Zm1.6,8v1.61H14.46V33.75Zm-1.6-4.82v1.61H11.25V28.93Zm-14.47,0H9.64v1.61H3.21Zm0,4.82h9.65v1.61H3.21Zm6.43,6.43H3.21V38.57H9.64Zm8,0H11.25V38.57h6.43Zm3.21,0H19.28V38.57h1.61Zm-1.61-9.64V28.93h1.61v1.61Zm6.43,9.64H22.5V38.57h3.21Zm0-4.82H20.89V33.75h4.82Zm0-4.82H22.5V28.93h3.21Zm0-4.83H19.28v-1.6h6.43Zm0-4.82H11.25v-1.6H25.71Z"/><path class="cls-1" d="M44.19,8H38.57a2.41,2.41,0,0,1-2.41-2.41V0H19.28a2.41,2.41,0,0,0-2.41,2.41H29a.78.78,0,0,1,.21,0l.07,0a.78.78,0,0,1,.24.16l8,8a.78.78,0,0,1,.16.24l0,.08a.65.65,0,0,1,0,.2.43.43,0,0,0,0,.05V37h4a2.41,2.41,0,0,0,2.41-2.41Z"/><path class="cls-1" d="M27,14.46l-5.3-5.29v4.49a.8.8,0,0,0,.81.8Z"/><path class="cls-1" d="M38.57,6.43h4.49L37.77,1.14V5.63A.8.8,0,0,0,38.57,6.43Z"/><path class="cls-1" d="M35,10.45l-5.29-5.3V9.64a.8.8,0,0,0,.8.81Z"/></g></svg>