<svg xmlns="http://www.w3.org/2000/svg" viewBox="0 0 45 45"><defs><style>.cls-1{fill:#af9cda;}</style></defs><g id="Слой_1" data-name="Слой 1"><path class="cls-1" d="M28.13,41.25h3.75V45H13.12V41.25h3.76V37.5H28.13ZM0,33.75a1.88,1.88,0,0,0,1.87,1.88H43.13A1.88,1.88,0,0,0,45,33.75V31.88H0ZM45,1.87V30H0V1.87A1.87,1.87,0,0,1,1.87,0H43.13A1.87,1.87,0,0,1,45,1.87ZM11.25,25.31H8.44V22.5H6.56v3.75a.94.94,0,0,0,.94.94h3.75Zm0-20.62H7.5a.94.94,0,0,0-.94.94V9.38H8.44V6.56h2.81ZM21.56,15.58l-8.44-4.22v9.27a1.88,1.88,0,0,0,1,1.67l7.4,3.7ZM22.5,14,31,9.69h0l0,0-.08-.05-.06,0-7.5-3.75a1.91,1.91,0,0,0-1.68,0l-7.5,3.75-.06,0L14,9.66l0,0Zm9.38-2.59-8.44,4.22V26l7.4-3.7a1.88,1.88,0,0,0,1-1.67ZM38.44,22.5H36.56v2.81H33.75v1.88H37.5a.94.94,0,0,0,.94-.94Zm0-16.87a.94.94,0,0,0-.94-.94H33.75V6.56h2.81V9.38h1.88Z"/></g></svg>