<svg xmlns="http://www.w3.org/2000/svg" viewBox="0 0 457.53 476.98"><defs><style>.cls-1,.cls-11{fill:#9283be;}.cls-2{fill:#eda785;}.cls-3{fill:#dad7e2;}.cls-4{fill:#534972;}.cls-5{fill:#eda886;}.cls-6{fill:#c3c0cb;}.cls-7{fill:#1e172b;}.cls-8{fill:#a67860;}.cls-9{fill:#323657;}.cls-10{opacity:0.69;}.cls-11{opacity:0.72;}.cls-12{fill:#fff;}.cls-13{fill:#eea987;}.cls-14{fill:#6c5e90;}.cls-15{opacity:0.5;}.cls-16{fill:#dfdfdf;}.cls-17{fill:#e5e5e5;}.cls-18{fill:#2d3038;}.cls-19{fill:#131521;}.cls-20{fill:#c5c8cb;}.cls-21{fill:#16202e;}.cls-22{fill:#1d3b54;}.cls-23,.cls-42{fill:#403758;}.cls-24{fill:#b7b7b7;opacity:0.1;}.cls-25{fill:#8599c1;opacity:0.3;}.cls-26{fill:#241e38;}.cls-27{fill:#cbbcb6;}.cls-28{fill:#e9d7ce;}.cls-29{fill:#424773;}.cls-30{fill:#292c47;}.cls-31{fill:#3a3f47;}.cls-32{fill:#e1d1c9;}.cls-33{fill:#908682;}.cls-34{fill:#5e5854;}.cls-35{fill:#beb1ab;}.cls-36{fill:#2c263f;}.cls-37{fill:#372d54;}.cls-38{fill:#2e436e;}.cls-39{fill:#d8c6c0;}.cls-40{fill:#c68c71;}.cls-41{fill:#ecd9d2;}.cls-42{fill-rule:evenodd;}</style></defs><g id="Слой_3" data-name="Слой 3"><path class="cls-1" d="M31.8,134.27a46.84,46.84,0,0,0,6.7,11.31l-4,8.37,8,6,8,6,6.92-6.17a46.82,46.82,0,0,0,12.74,3.27l3.09,8.73,10-1.42,10-1.42.53-9.25a47.26,47.26,0,0,0,11.32-6.71l8.36,4,6-8.05,6-8.06L119.42,134a47.39,47.39,0,0,0,3.28-12.74l8.73-3.09-1.43-10-1.42-10-9.25-.52a46.9,46.9,0,0,0-6.7-11.32l4-8.37-8.06-6-8-6-6.92,6.17a46.82,46.82,0,0,0-12.74-3.27l-3.09-8.73-10,1.43L57.83,63l-.53,9.24A47.26,47.26,0,0,0,46,78.94l-8.36-4-6,8.06-6,8L31.71,98a47.37,47.37,0,0,0-3.28,12.75l-8.72,3.09,1.42,10,1.42,10ZM70.58,81.08A35.27,35.27,0,1,1,40.64,121,35.28,35.28,0,0,1,70.58,81.08Z"/><path class="cls-1" d="M29.9,36.29A21.6,21.6,0,0,0,33,41.48l-1.83,3.84,3.7,2.77,3.69,2.76L41.7,48a21.72,21.72,0,0,0,5.84,1.5l1.42,4,4.57-.65,4.57-.66L58.34,48a21.21,21.21,0,0,0,5.18-3.07l3.84,1.83,2.77-3.69,2.77-3.7-2.83-3.17a21.63,21.63,0,0,0,1.5-5.84l4-1.42-.65-4.56-.65-4.57L70,19.55A21.63,21.63,0,0,0,67,14.36l1.83-3.84L65.09,7.75,61.4,5,58.23,7.81a21.82,21.82,0,0,0-5.84-1.5L51,2.31,46.4,3l-4.57.66-.24,4.23a21.63,21.63,0,0,0-5.19,3.08L32.57,9.1,29.8,12.79,27,16.48l2.83,3.17a21.07,21.07,0,0,0-1.5,5.85l-4,1.41L25,31.48l.65,4.57ZM47.68,11.91A16.17,16.17,0,1,1,34,30.2,16.17,16.17,0,0,1,47.68,11.91Z"/><path class="cls-2" d="M340.51,154s24.65-8,26.66-7.12,2.27,2.31,0,3.16-23.64,8.45-23.64,8.45,30.47-4.39,32.28-4c1.06.2,1.74,2.9.55,3.47s-31.23,6.73-31.23,6.73,28.46-4.05,29.87-3.28a2.14,2.14,0,0,1-.84,3.8c-2.1.45-28.37,5.77-28.37,5.77s20.82-1.58,21.62-.17c.48.86,1.17,3.15-4.2,3.39s-18.08,2.18-18.08,2.18Z"/><path class="cls-2" d="M313.33,167.84s8-3.17,8.56-8.21c.48-4.28,4-9.59,5.13-11.23,1.46-2.19,3.64-10.54,6.19-8.76s-3,13.93-3.65,16.7,10.21-3.13,12.93-2.6,10.14,19.63,2.26,22.79-18,1.15-19.33,2a51.59,51.59,0,0,1-5.65,2.53Z"/><path class="cls-3" d="M217.14,311c.18,2.31.38,4.5.55,6.47H103.51c0-1.93.1-4.11.14-6.47.38-19,.95-50.25.7-62-.32-16.83-3.86-60.55-4.56-63.08,0,0-25.06-36.39-51.33,35.46-5.43,14.8,44.31,51.9,38.13,53s-5.92,12.87-5.92,12.87-46.84-40.79-45.88-52.81c.54-6.68,37.21-103.68,42.82-107.69,3.81-2.74,27.8-12.36,40.23-17.07,5.75-2.2,10.13-3.72,11-3.78,2.84-.18,37.92,3.19,37.92,3.19s5,1.72,10.18,4.08c8.78,4,22.46,10.33,32.27,15,3.17,1.51,7.14,3.54,10.44,5.29q-.6,17.88-2.12,38.37s-1.83,29.85-2,60c-1.58,6.83-1.31,22.69-1.31,22.69-.44,15,1.24,30.48,1.68,39.11C216.22,299,216.68,305.34,217.14,311Z"/><path class="cls-4" d="M222.08,311c-1.65-10.67-3.22-21.79-4.51-32.42v-.08c-.21-1.73-.41-3.45-.62-5.15a2.28,2.28,0,0,0,0-.26c-.83-7.2-1.5-14.08-2-20.39a63.59,63.59,0,0,1,.64-14.17c2-32.24,2.92-66.23,2.92-66.23,1-13.93,1.62-26.93,2-39,0,0-44-20.81-48-22,0,0,8.35,19.62,14.62,63.47,2.42,16.84,6.88,45.19,10.12,74.13,1.28,11.42,3.38,23,5.39,33.85,1.89,10.26,3.7,19.93,4.68,28.31.07.51.12,1,.18,1.52.15,1.45.33,3.11.53,4.95h15.11C222.75,315.33,222.41,313.16,222.08,311Z"/><path class="cls-4" d="M144.48,259.7c-2,19.45-4.2,35.19-6,51.29q-.36,3.21-.69,6.47H91.49q.92-3.21,1.76-6.47c5-18.75,8.94-37.88,8.94-49.49,0,0-9.64-69.34-12.87-80.51,0,0-29.16,21.57-36,36.5-6.1,13.35,38.58,54.13,38.06,55.51-3,8-14.67,22.71-14.67,22.71S7.55,221.4,8.47,212.24c.66-6.66,58.67-80.72,64.26-84.73,3.24-2.32,27.2-10.81,39-15.45,2.16-.86,9.16-3.49,11.09-4.22,2.48,2.77,20,21.63,26.08,93.31C149.88,213.23,146.65,238.81,144.48,259.7Z"/><path class="cls-5" d="M132.12,109.63s-.24-12-4.88-36.41C126,66.7,165.1,90.39,165.1,90.39s-.12,2.28-.2,5.36c0,1.63-.07,3.48-.06,5.34,0,.65,0,1.3,0,2,0,1.72.11,3.37.26,4.77a22.15,22.15,0,0,0,1.31,4.7C168.05,116.23,145.29,119.06,132.12,109.63Z"/><path class="cls-1" d="M156.53,122.25,163,131s-3.8,5.09-10.54,1.33Z"/><path class="cls-1" d="M161.27,131.31S185.86,226,180.79,299.65l-8.27,14.58L164.78,299s-2.12-131.79-8.86-167.87Z"/><path class="cls-5" d="M163.47,114.13l-6.94,8.12s-11.14-2.16-14.41-8S163.47,114.13,163.47,114.13Z"/><path class="cls-6" d="M165.06,107s-.81,6.19-8.53,15.23L165,133.58l4.56-23.5Z"/><path class="cls-6" d="M131.48,101.14s13.78,16.66,25.05,21.11l-5.24,13L125.07,107Z"/><path class="cls-4" d="M334.05,181.36s-59.41,64.55-73.43,61.1c-6.49-1.6-16.31-12.79-24.42-23.31-2.67-3.46-5.3-7.1-7.79-10.69v0c-10-14.37-17.75-28.15-17.75-28.15s-29.42-34.48-5.81-49.85c0,0,9.95-1,15.61,3.18,5.22,3.85,17.93,28.12,20,32.62s18.12,36.22,19.62,37.16,17.26-8.53,25.69-14.2c13.62-9.17,30.73-25.14,30.73-25.14Z"/><path class="cls-2" d="M185.69,30.43s8.59,15.93,4.33,18.41c-3.51,2,4.13,17.67,5.13,20.23s-6.38,4.41-7.94,6.05S181,97,174.93,97.6,141.5,88.69,134.05,81s-13.57-42.74-8.59-57.49S170.53,2.61,185.69,30.43Z"/><path class="cls-7" d="M187.41,33.88s8.77-17.2-7.16-30-45.31,9.64-48.62,10.49S109.54,16.55,119,49.53c8.15,28.32,9.29,29.52,9.29,29.52s6.07-16.41,9.52-18.91c5.38-3.91,17.17-3,17.17-3s-5.62-14.92,3.16-17S178.52,30.58,187.41,33.88Z"/><path class="cls-2" d="M145.64,48.63c-.77-2.05-3.27-10.84-10.82-5.68s4.7,21.74,6,22S152.16,65.85,145.64,48.63Z"/><path class="cls-8" d="M164.84,101.09c0,.65,0,1.3,0,2-22.37-7.51-26.7-18.81-26.7-18.81,7,4.94,26.73,11.52,26.73,11.52C164.86,97.38,164.83,99.23,164.84,101.09Z"/><path class="cls-2" d="M83.34,272.75a7.82,7.82,0,0,0,4.36,1.76c3.87,0,8.28-4.24,12.33-.42s-4.48,20.09-7.55,22-10-1.52-17.51-10.54S83.34,272.75,83.34,272.75Z"/><path class="cls-2" d="M98.48,273a159.91,159.91,0,0,1,16.18,6.77c7.32,3.57,15.92,9,15,10.88-1.33,2.82-7.86-2.46-15.36-5.51-6.91-2.81-6-1.09-6-1.09s-.23-.5,6.7,4c7.45,4.88,15.24,10.44,14.55,12-.85,1.9-1.12,2.06-4.11.74,1.55,1.13,1.46,1.73,1.05,2.43-2.14,3.63-14.2-1.82-19-4,3.67,1.68,6.18,3.32,3.43,4.7-3.14,1.57-19.84-6.91-26.12-9.37C78,291.91,98.48,273,98.48,273Z"/><path class="cls-9" d="M91.41,273s-1.7,10-14.67,22.72c0,0-29.71-32.79-35-38.92L65,243.3Z"/><rect class="cls-1" x="24.51" y="310.99" width="408.87" height="6.47"/><rect class="cls-1" x="218.34" y="49.93" width="26.77" height="26.77" rx="9.66"/><g class="cls-10"><rect class="cls-11" x="255.12" y="14.48" width="92.61" height="8.31" rx="3"/><rect class="cls-11" x="255.12" y="27.92" width="105.52" height="8.31" rx="3"/></g><rect class="cls-1" x="218.34" y="11.97" width="26.77" height="26.77" rx="9.66"/><g class="cls-10"><rect class="cls-11" x="255.12" y="52.44" width="69.61" height="8.31" rx="3"/><rect class="cls-11" x="255.12" y="65.87" width="85.62" height="8.31" rx="3"/></g><g class="cls-10"><rect class="cls-11" x="255.12" y="90.39" width="100.99" height="8.31" rx="3"/><rect class="cls-11" x="255.12" y="103.83" width="92.61" height="8.31" rx="3"/></g><rect class="cls-1" x="218.34" y="87.88" width="26.77" height="26.77" rx="9.66"/><path class="cls-12" d="M230.81,69.78l-7.42-6.45a1.46,1.46,0,0,1,1.91-2.21l5.25,4.56L238,57.33a1.46,1.46,0,1,1,2.18,2Z"/><path class="cls-12" d="M230.81,107.74l-7.42-6.46a1.46,1.46,0,1,1,1.91-2.2l5.25,4.56L238,95.29a1.46,1.46,0,1,1,2.18,1.94Z"/><path class="cls-12" d="M231.23,28.62l0-.59a5.25,5.25,0,0,1,1.41-3.92c1-1.2,1.58-2.08,1.58-3.1s-.72-1.92-2.15-2a4,4,0,0,0-2.28.71l-.55-1.43a6,6,0,0,1,3.24-.91c2.6,0,3.78,1.61,3.78,3.33,0,1.54-.86,2.65-2,3.94A4.54,4.54,0,0,0,233,28l0,.59Zm-.5,3.17a1.34,1.34,0,0,1,1.36-1.43,1.42,1.42,0,1,1-1.36,1.43Z"/><rect class="cls-1" x="407.67" y="239.14" width="26.77" height="26.77" rx="9.66"/><rect class="cls-1" x="407.67" y="201.19" width="26.77" height="26.77" rx="9.66"/><path class="cls-12" d="M420.14,259l-7.43-6.45a1.46,1.46,0,1,1,1.91-2.21l5.26,4.57,7.46-8.36a1.46,1.46,0,0,1,2.18,2Z"/><path class="cls-3" d="M323.16,377c1.23,5.35,1,17.8,1,17.8.34,11.81-1,23.94-1.32,30.71l0,.63c-.09,1.6-.19,3.3-.31,5h88.34c0-1.62-.06-3.3-.09-5-.18-10-.34-20.94-.35-28.76,20.19-5.33,42-12.29,41.58-17.38s-16.15-82.34-20.54-85.48c-3-2.16-21.83-9.7-31.59-13.41a69.75,69.75,0,0,0-8.66-3c-2.24-.14-29.77,2.5-29.77,2.5s-4,1.35-8,3.21c-6.89,3.16-17.63,8.1-25.33,11.77-2.49,1.18-5.6,2.78-8.19,4.15q.46,14,1.66,30.12S323,353.3,323.16,377Zm87.52,8.92c1.09-14.68,5.52-39.9,6-41.68,0,0,2.07,2,2.09,2s.68.1.69.09a4.62,4.62,0,0,1,.62.23s13.37,18.68,13.52,28.71C433.68,380,423.24,383.42,410.68,385.89Z"/><path class="cls-4" d="M319.24,431.12h11.58q.39-2.44.84-5c2-11.05,4.55-23.53,5.92-35.79h0c2.55-22.71,6.05-45,7.94-58.19C350.44,297.7,357,282.3,357,282.3c-3.13.94-37.71,17.28-37.71,17.28.31,9.51.78,19.72,1.58,30.65,0,0,.77,26.68,2.3,52a50.83,50.83,0,0,1,.5,11.13c-.39,4.95-.93,10.35-1.57,16,0,.08,0,.15,0,.21l-.48,4.05s0,0,0,.06c-.49,4.09-1,8.27-1.62,12.45C319.72,427.78,319.49,429.46,319.24,431.12Z"/><path class="cls-4" d="M352.34,393C355,399.25,364,414.57,364,414.57s6.56-1.61,16.2-4.11c.64,5.47,1.28,10.62,1.89,15.65.21,1.68.41,3.35.61,5h34.41q-.61-2.52-1.17-5c-2.1-9.32-3.57-18-3.79-24.31,23.08-6.59,45.7-14,45.35-17.51-.52-5.23-17.86-86.06-22.25-89.21-2.54-1.82-21.35-8.49-30.58-12.13-1.68-.66-7.44-2.83-8.95-3.4-2,2.18-15.46,17.07-20.22,73.33-.6,7,.63,19.78,2,32.57C363.55,389.18,351.89,392,352.34,393ZM415.27,373c1.39-11.21,3-22.48,4.1-26.43A44.73,44.73,0,0,1,423,365.9C422.9,368.23,419.94,370.61,415.27,373Z"/><path class="cls-5" d="M392.65,279s-3.5-6.61-2.53-25.4c.27-5.21-27.34,12.34-27.34,12.34s.09,1.79.15,4.21c0,1,.05,2.12.05,3.25v.94c0,.52,0,1,0,1.53s0,1.25-.07,1.85-.08,1.31-.14,1.9a17.76,17.76,0,0,1-1,3.69C360.46,286.23,382.31,286.4,392.65,279Z"/><path class="cls-1" d="M369.51,291l-5.09,6.84s3,4,8.27,1Z"/><path class="cls-1" d="M365.78,298.07s-18.64,45.53-14.67,103.36L357,412.11l6.63-9.09s1.07-76.81,6.36-105.14Z"/><path class="cls-5" d="M364.06,284.58l5.45,6.37s8.74-1.69,11.31-6.26S364.06,284.58,364.06,284.58Z"/><path class="cls-6" d="M362.81,279s.63,4.86,6.7,11.95l-6.63,8.9L359.3,281.4Z"/><path class="cls-6" d="M391,273.16s-12.64,14.3-21.48,17.79l4.11,10.17,20.17-22.26Z"/><path class="cls-4" d="M261,402.53s16.78-16.27,27.78-19c5.09-1.25,11.79-8.27,18.16-16.53,2.1-2.72,4.16-5.57,6.12-8.4h0C320.9,347.33,327,336.52,327,336.52s23.1-27.07,4.56-39.14c0,0-7.94-.17-12.3,2.2s-14,22.37-15.65,25.91-19.17,36.32-20.35,37.06-3.13,3.43-10.15,7.22c-8.6,4.62-22.11,18.17-22.11,18.17Z"/><path class="cls-13" d="M341.57,421.37a10.64,10.64,0,0,0,3.35-.63s1.75-1.13,3.05-1.85a10,10,0,0,1,1-.52,19.36,19.36,0,0,0,5.64-2.69c2.21-1.68,9.4-8.41,9.4-8.41l-4.65-7.15-2.15-7.07s-16.77,1.66-19,3a5.47,5.47,0,0,0-.61.42c-1.79,1.31-2.57,3-3.43,3.82-.31.3-3.23,3.42-3.07,4.69a4.22,4.22,0,0,0,2.19,3.43s.59,3.42,2.36,5a6.23,6.23,0,0,0,3.19,4.46S339.67,421,341.57,421.37Z"/><path class="cls-2" d="M368.28,205.12s-30.32-7.31-23.93,31.07S358,277.69,376.47,270s17.19-32.2,18.29-44.22S378,205.68,368.28,205.12Z"/><path class="cls-2" d="M384.21,231.7c.45-3.37,7.14-4.51,7.6.56s-3.24,13.91-5.76,13S383.58,236.35,384.21,231.7Z"/><path class="cls-7" d="M393,245.44s-.61-12.07-5-12.51-5.15,4.41-5.15,4.41l-4.46.77s1.56-10.55-2.81-12.46-28.59,5.4-32.07,2.25-1.51-24.58,4.92-27.42,24.16-9.16,36.95-.22c0,0,10.09-1,11.47,7.15S395.81,239.44,393,245.44Z"/><path class="cls-4" d="M351.51,393.05,364,414.57s33.16-8.55,40.9-10.73l-17.69-21S361.16,388.75,351.51,393.05Z"/><path class="cls-8" d="M362.89,277.72h0a29,29,0,0,0,22.57-14.18A33.61,33.61,0,0,1,363,273.4v.94c0,.52,0,1,0,1.53S362.92,277.12,362.89,277.72Z"/><rect class="cls-4" x="337.84" y="420.75" width="19.44" height="7.4"/><polygon class="cls-1" points="339.18 345.93 348.02 428.15 231.62 428.15 222.78 345.93 339.18 345.93"/><rect class="cls-14" x="122.32" y="427.98" width="316.37" height="5.01"/><path class="cls-1" d="M291.86,385.72c.94,4.57-1.2,8.88-4.77,9.61s-7.22-2.39-8.15-7,1.2-8.88,4.77-9.61S290.93,381.14,291.86,385.72Z"/><g class="cls-15"><rect class="cls-16" x="36.01" y="235.39" width="122.97" height="118.9" rx="10"/></g><polygon class="cls-1" points="47.41 340.58 46.56 339.68 68.6 318.88 90.92 323.71 112.23 299.41 130.82 300.45 145.29 280.49 146.3 281.21 131.42 301.73 112.76 300.68 91.37 325.08 68.98 320.23 47.41 340.58"/><path class="cls-17" d="M94.38,323.69a3.32,3.32,0,1,1-3.94-2.53A3.32,3.32,0,0,1,94.38,323.69Z"/><path class="cls-1" d="M92,328.24a3.93,3.93,0,1,1,3-4.68A3.93,3.93,0,0,1,92,328.24Zm-1.4-6.47a2.69,2.69,0,1,0,3.2,2.06A2.69,2.69,0,0,0,90.57,321.77Z"/><path class="cls-17" d="M115.73,299.55a3.31,3.31,0,1,1-3.94-2.53A3.32,3.32,0,0,1,115.73,299.55Z"/><path class="cls-1" d="M113.32,304.1a3.93,3.93,0,1,1,3-4.68A3.95,3.95,0,0,1,113.32,304.1Zm-1.4-6.48a2.69,2.69,0,1,0,3.2,2.06A2.69,2.69,0,0,0,111.92,297.62Z"/><path class="cls-17" d="M134.18,300.29a3.31,3.31,0,1,1-3.94-2.54A3.32,3.32,0,0,1,134.18,300.29Z"/><path class="cls-1" d="M131.77,304.84a3.93,3.93,0,1,1,3-4.68A3.94,3.94,0,0,1,131.77,304.84Zm-1.4-6.48a2.69,2.69,0,1,0,3.2,2.06A2.7,2.7,0,0,0,130.37,298.36Z"/><path class="cls-17" d="M72,319.16a3.31,3.31,0,1,1-3.94-2.54A3.31,3.31,0,0,1,72,319.16Z"/><path class="cls-1" d="M69.6,323.7a3.93,3.93,0,1,1,3-4.67A3.93,3.93,0,0,1,69.6,323.7Zm-1.4-6.47a2.69,2.69,0,1,0,3.2,2.06A2.7,2.7,0,0,0,68.2,317.23Z"/><rect class="cls-12" x="65.46" y="332.17" width="13.56" height="2.61"/><rect class="cls-12" x="74.89" y="305.38" width="13.56" height="2.61"/><rect class="cls-12" x="103.02" y="324.05" width="13.56" height="2.61"/><rect class="cls-12" x="115.18" y="287.38" width="13.56" height="2.61"/><rect class="cls-12" x="134.87" y="309.23" width="13.56" height="2.61"/><rect class="cls-1" x="45.05" y="244.48" width="48.29" height="4.74"/><rect class="cls-12" x="45.05" y="257.23" width="48.29" height="4.74"/><rect class="cls-12" x="45.05" y="269.98" width="48.29" height="4.74"/><rect class="cls-1" x="103.2" y="244.48" width="8.06" height="4.74"/><rect class="cls-12" x="103.2" y="257.23" width="8.06" height="4.74"/><rect class="cls-12" x="103.2" y="269.98" width="8.06" height="4.74"/><path class="cls-3" d="M238.85,307.8s-6.34-14.36,1-13.17a26.76,26.76,0,0,1,5.08,6.28c1.94,3.2,6,11.65,5.84,14.51s-2.18,5-4.38,9.58c0,0-4.56,8.52-4.76,9.54l-4.82-2.5s4.09-8.15,7-15.31Z"/><rect class="cls-14" x="179.57" y="325.96" width="98.52" height="16.75" transform="translate(59.37 -33.67) rotate(9.66)"/><rect class="cls-18" x="175.04" y="319.26" width="5.26" height="12.71" transform="translate(57.19 -25.21) rotate(9.66)"/><path class="cls-2" d="M202.16,429.46H201s.4-4.52-.71-4.56-3.85,3.67-5.49,4.25-10,1.06-10.1-.49,3.24-2.17,4.25-2.61,6-5.27,6.87-5.85,2.4-4.58,2.4-4.58l4.69-.2s.27,3.74.55,5.72a16.44,16.44,0,0,1,.2,1.85C203.66,424.68,202.16,429.46,202.16,429.46Z"/><path class="cls-2" d="M232.42,428.57h-1v-4.21c-.83.07-3.62,2.71-4.49,3.48s-2,.73-5.68,1-4-1.95-3.4-2.69,2.43-1.07,3.4-1.53,4.79-4.77,5.81-5.79,1.64-3.94,1.64-3.94l4.25.37a26.14,26.14,0,0,0,.45,4.91h0c0,.19.08.38.13.56C234.18,423,232.42,428.57,232.42,428.57Z"/><path class="cls-9" d="M216.7,333.26A42.09,42.09,0,0,0,215,338c-.14,1-3.91,10.06-5,16.18-.65,3.67-2.45,15.16-2.6,16.62-.25,2.5-1.42,8-1.61,10.57-.1,1.43-7.13,23.34-8.83,34.77A21.14,21.14,0,0,0,204,416a119.92,119.92,0,0,0,9.6-28.59,114.6,114.6,0,0,1,5.49-19.64c1.6-4.16,10.65-15.94,11.6-17.26s6.86-8.64,1.26-16.56S216.7,333.26,216.7,333.26Z"/><path class="cls-9" d="M236.94,366.92c-.51,3.41,0,7.89,1.1,20.36s-1.88,27.57-1.88,27.57a14.91,14.91,0,0,1-8,0c.09-.87,0-30.4,0-33s-.76-5.61-.95-8.63a62.24,62.24,0,0,0-2.17-9.73c-.32-1.16-.66-2.32-1-3.45h0q-.27-1-.54-1.86c-1.51-5.26-3.55-25.58-3.55-25.58s11.3-9.11,16.81-.53,2.68,14.81,2.48,15.88S237.45,363.51,236.94,366.92Z"/><path class="cls-19" d="M232.25,348.6c-.09.19-5.72,12.7-7.17,14.86-.32-1.16-.66-2.32-1-3.45h0Z"/><path class="cls-20" d="M232.42,428.57h-1v-4.21c-.83.07-3.62,2.71-4.49,3.48s-2,.73-5.68,1-4-1.95-3.4-2.69,2.43-1.07,3.4-1.53c3.89.21,8.64-5.26,10.92-5.25,1.21,0,1.2.68,1.23.8h0c0,.19.08.38.13.56C234.18,423,232.42,428.57,232.42,428.57Z"/><path class="cls-20" d="M202.16,429.46H201s.4-4.52-.71-4.56-3.85,3.67-5.49,4.25-10,1.06-10.1-.49,3.24-2.17,4.25-2.61c3.48,0,9.12-3.83,10.87-4.6a6.25,6.25,0,0,1,3.64-.31,16.44,16.44,0,0,1,.2,1.85C203.66,424.68,202.16,429.46,202.16,429.46Z"/><path class="cls-2" d="M226.68,285.57s1.8,4.78.4,8.47c0,0,6.62-.43,6.87-1.21s-.27-7.92.64-10S226.68,285.57,226.68,285.57Z"/><path class="cls-3" d="M226,292.42s-3.91,1.39-5.68,1.78-5.46,2.14-5.16,8.73A137.13,137.13,0,0,0,217,318.06a59.9,59.9,0,0,1-.5,13.55,49.48,49.48,0,0,0,20.39,0s-2-6-1.9-7.52,6.51-14.26,6.81-16.27S243.42,297,240.46,295s-5.36-1.7-6.61-2.58S227.87,291.79,226,292.42Z"/><path class="cls-3" d="M241.12,342a54.78,54.78,0,0,1-28.75,0A39.88,39.88,0,0,0,215,334.9h0a42.29,42.29,0,0,0,1-4.75h0a43.14,43.14,0,0,0-.39-15.4c1.85-15.21,24.86-19.75,26.7-14.93s-3.57,25.54-3.84,27.32S241.12,342,241.12,342Z"/><path class="cls-2" d="M232.45,266.42c-2.66-.91-9.85-1.88-11.69,9.15s2.17,11.23,6.29,10.91,10.56-7.76,11.06-10S240,269,232.45,266.42Z"/><path class="cls-21" d="M222.24,270.66s2.19,4.7,5.07,6.33c0,0,1.81,5,5.72,7,0,0,10.37-6.86,4.35-15S222.92,267.31,222.24,270.66Z"/><path class="cls-2" d="M227.06,275.37a1.35,1.35,0,0,1,2.48.06c.7,1.58-1.8,4.35-2.49,4.2S226.17,277.54,227.06,275.37Z"/><path class="cls-21" d="M237,270.23c.22-.35,7.09-3.53,8.52,3.11S240,287.71,238.8,291s.55,11.11.55,11.11-4.19-4-5.45-8.1C232.51,289.49,232,278,237,270.23Z"/><path class="cls-1" d="M237.37,270a6.91,6.91,0,0,0-2.37,4.28,5.18,5.18,0,0,1,.45-3.29A1.9,1.9,0,0,1,237.37,270Z"/><path class="cls-22" d="M215,334.9a42.29,42.29,0,0,0,1-4.75l.2-1.46a4.86,4.86,0,0,0,1.21-1.86c.36-1.07,3-14.26,3-14.26S223.22,325,215,334.9Z"/><path class="cls-2" d="M203.22,335.67a15.48,15.48,0,0,1-2.73,2.25c-.67.21-2-.93-6.7-1.28-.41,0-1.15.34-1,.89a7.4,7.4,0,0,0,3.11,2.28c.89.23,5,1.88,7.09,1.07s3.41-3.4,3.41-3.4Z"/><path class="cls-3" d="M219.26,294.56s-5.48,2.17-5.81,9.79-.62,11.6-.92,12.78-.87,5.9-2.25,8.75-10.12,11.49-10.12,11.49l4.25,4s12.25-12.29,13-14.54,3.81-17.88,4-20.52C221.65,304.19,224.45,294.72,219.26,294.56Z"/><path class="cls-23" d="M167.58,314.84c0,.26,0,.52,0,.79h10c0-.27,0-.53,0-.79ZM55.75,312.07c0,.31,0,.61,0,.91,0,1.27.07,2.53.17,3.78a60.54,60.54,0,0,0,17.72,38.45c.3.31.59.6.89.88q1.8,1.74,3.74,3.31A60.69,60.69,0,0,0,116.71,373h.73a60.7,60.7,0,0,0,30.3-8.47,61.27,61.27,0,0,0,26.76-33c.48-1.43.91-2.88,1.29-4.36a61.24,61.24,0,0,0,1.48-8.06h0c.06-.59.13-1.17.17-1.77s.1-1.13.13-1.7c0-.27,0-.53,0-.79q0-.85.06-1.71c0-.36,0-.71,0-1.06A61,61,0,0,0,126,251.82q-.84-.13-1.71-.24c-.62-.08-1.25-.15-1.88-.2s-1.15-.1-1.71-.14c-1.32-.09-2.64-.12-4-.12-1.12,0-2.24,0-3.35.09q-2.83.15-5.62.56a61.13,61.13,0,0,0-47,36.22c-.09.2-.17.4-.25.6s-.16.39-.23.58c-.47,1.12-.89,2.26-1.28,3.42a59,59,0,0,0-2.32,9.25c-.15.84-.27,1.68-.39,2.54,0,.14,0,.28,0,.44,0,0,0,0,0,0a1.64,1.64,0,0,0,0,.22,1.87,1.87,0,0,0,0,.25v.06s0,.08,0,.13a1.11,1.11,0,0,0,0,.19c0,.15,0,.3,0,.46-.09.93-.16,1.88-.2,2.82,0,.13,0,.26,0,.39l0,.62C55.76,310.68,55.75,311.37,55.75,312.07Zm13.66,19-.24-.59c-.17-.44-.33-.88-.49-1.33L68.31,328c-.09-.27-.18-.54-.26-.81,0,0,0,0,0-.06a.42.42,0,0,1,0-.15c-.15-.45-.27-.91-.4-1.37l-.14-.53c-.14-.48-.26-1-.37-1.47,0,0,0-.1,0-.16-.1-.45-.2-.91-.29-1.37,0-.19-.08-.38-.11-.57-.11-.57-.21-1.16-.3-1.74-.16-1-.28-2.06-.38-3.11l-.09-1.07h0c0-.12,0-.23,0-.35,0-.48,0-1-.07-1.45v-.15c0-.1,0-.22,0-.34,0-.42,0-.84,0-1.27s0-.79,0-1.17a45,45,0,0,1,.33-4.68,4.28,4.28,0,0,1,.05-.49v0s0,0,0,0a0,0,0,0,1,0,0,.31.31,0,0,1,0-.1v0a0,0,0,0,1,0,0,50.56,50.56,0,0,1,7.56-20.84,51.21,51.21,0,0,1,18.49-17.29,49.71,49.71,0,0,1,6.19-2.88c.67-.26,1.37-.51,2.06-.74a49.84,49.84,0,0,1,12.15-2.47c1.35-.12,2.7-.17,4.08-.17.41,0,.82,0,1.23,0s1,0,1.42,0l1,.07.28,0,1.71.15.43.06c.22,0,.46.05.68.09s.51.06.77.1L126,262l.16,0,1.32.27.08,0,.55.12c.41.09.82.19,1.22.3a4.58,4.58,0,0,1,.53.14c.47.12.94.25,1.4.39s.89.27,1.34.42l.61.2c.88.3,1.75.62,2.6,1l.71.29,1.07.47c.28.12.57.25.85.39s.84.4,1.25.61.93.47,1.38.73,1,.56,1.53.86c1,.61,2.05,1.26,3,1.94.42.29.83.59,1.25.9s1,.76,1.52,1.15.88.71,1.31,1.08.88.76,1.31,1.15a50.8,50.8,0,0,1,16.66,37.68c0,.35,0,.7,0,1.06,0,.57,0,1.14-.07,1.71,0,.26,0,.52,0,.79,0,.57-.09,1.14-.15,1.7-.17,1.62-.41,3.21-.72,4.79a49.11,49.11,0,0,1-1.29,5.05c-.4,1.32-.86,2.61-1.37,3.87a51,51,0,0,1-46.57,32h-.73a51,51,0,0,1-45-27l-.67-1.3-.39-.83c-.16-.32-.31-.64-.46-1l-.14-.32c-.13-.29-.26-.57-.37-.87Z"/><circle class="cls-24" cx="116.71" cy="312.08" r="50.77" transform="translate(-123.67 81.36) rotate(-25.67)"/><path class="cls-25" d="M151,274.39S84.88,266.19,71.7,336h0A51,51,0,0,1,151,274.39Z"/><rect class="cls-23" x="45.58" y="392.68" width="28.06" height="1.67"/><rect class="cls-26" x="49.34" y="398.68" width="2.46" height="75.76" transform="translate(101.14 873.12) rotate(180)"/><rect class="cls-27" x="69.25" y="392.21" width="19.51" height="2.38"/><rect class="cls-1" x="75.31" y="371.91" width="7.39" height="22.44"/><rect class="cls-1" x="35.51" y="394.37" width="108.08" height="4.31"/><path class="cls-1" d="M14.77,368.3s-1.18,16.58,2.06,18.56c2,1.24,10.12,5.44,9.88,6.22s-4.57,7-4.57,7S6.6,389.84,6.1,386.62s.76-24.27,2.9-25.25c1.6-.73,2.44-.12,4.46,1.37C16.29,364.84,14.77,368.3,14.77,368.3Z"/><path class="cls-28" d="M43.09,373l1.37-.5s-1.71-4-2.45-3.92-1.93.4-1.93.4Z"/><path class="cls-1" d="M43.41,373.73c-.18-.14-2.92-5.39-2.92-5.39l-5.84.8,3.16,6.22Z"/><path class="cls-29" d="M33.89,464.1s-.48,3.35-.54,3.86-5.38-.3-5.38-.3l-.43-4S33.23,463.63,33.89,464.1Z"/><path class="cls-30" d="M33.4,467.53a14.41,14.41,0,0,0,3.32,2.9c1.63.88,4.18,1.23,5.15,2.14.69.66,2.53,3.5-4.23,3.44s-10,.4-10.76-.69,1.05-8,1.05-8S29.53,467.88,33.4,467.53Z"/><path class="cls-29" d="M67.94,464.13s-.48,3.35-.54,3.86-5.37-.3-5.37-.3l-.43-4S67.28,463.66,67.94,464.13Z"/><path class="cls-30" d="M67.46,467.56a14.27,14.27,0,0,0,3.31,2.9c1.63.88,7.62,1.61,8.59,2.52.69.66,1.85,3.31-7.67,3.06-6.76-.18-10,.4-10.75-.69s1.05-8,1.05-8S63.5,468,67.46,467.56Z"/><path class="cls-30" d="M16.75,406.16s19.32,3.27,23.69,3.95,28,6.58,31,8.37c2.36,1.43-1.23,35.73-2.07,48.82H60L59.35,428c-11.18.28-19.16-2.61-27.31-1.38s-14.94,3-20.11-3.94C11.93,422.72,11.74,407.67,16.75,406.16Z"/><path class="cls-30" d="M35.79,467.33l-9.08-.56L25.82,428a55.52,55.52,0,0,1-10.36-.65L8.13,410.34c6.43,1.28,27,6.48,29.77,8.14C40.25,419.91,36.63,454.25,35.79,467.33Z"/><path class="cls-2" d="M25.64,333.72s7.09-2,9.79,3.55,1.48,15.92-2.09,16.9-8.71-.15-10.19-3.57-2.66-8.29-2.31-11.44S23.76,334.48,25.64,333.72Z"/><path class="cls-2" d="M31.48,353.07s-.07,4.19.39,5.08-9.87.66-9.87.66,1.63-5,.71-9.3S31.48,353.07,31.48,353.07Z"/><path class="cls-31" d="M22.15,347.93s.55,1.12,3.23.94,6.19-3.4,7.33-3.69,1.2-.94,1.2-.94l.6,1.07,1.16.18s-.79-3.23.94-4.37-.78-10.3-9.49-8.09c0,0-6.66,1.22-6.75,4.93S20.86,346,22.15,347.93Z"/><path class="cls-32" d="M32.41,358s0-1.7-.8-1.87-8.12-1.17-9.06-.8l-.41,2.25S24,358.75,32.41,358Z"/><path class="cls-2" d="M34.54,343.48c-.2-1.39-1.79-3-2.7-.82s.62,5.34,1.64,5.17S34.8,345.38,34.54,343.48Z"/><path class="cls-9" d="M63.17,378.17h0C63.21,378.19,63.22,378.19,63.17,378.17Z"/><path class="cls-31" d="M23.58,334.72s-8.64-.41-1.51,13.08Z"/><polygon class="cls-33" points="4.33 471.93 4.97 473.74 32.12 465.32 30.82 461.66 4.33 471.93"/><rect class="cls-33" x="29.97" y="434.52" width="3.09" height="29.52"/><rect class="cls-34" x="22.41" y="432.95" width="18.2" height="1.74"/><polygon class="cls-33" points="58.93 471.93 58.29 473.74 31.14 465.32 32.33 461.44 58.93 471.93"/><polygon class="cls-33" points="39.8 473.54 39.8 475.64 31.14 465.32 32.33 461.44 39.8 473.54"/><path class="cls-35" d="M61.47,474.44a2.54,2.54,0,1,1-2.54-2.53A2.54,2.54,0,0,1,61.47,474.44Z"/><path class="cls-35" d="M40,474.44a2.54,2.54,0,1,1-2.54-2.53A2.54,2.54,0,0,1,40,474.44Z"/><path class="cls-35" d="M6.87,474.44a2.54,2.54,0,1,1-2.54-2.53A2.54,2.54,0,0,1,6.87,474.44Z"/><rect class="cls-36" x="10.07" y="426.37" width="43.12" height="6.59" rx="2.38"/><rect class="cls-26" x="127.31" y="398.68" width="2.46" height="75.76"/><rect class="cls-23" x="47.11" y="337.72" width="63.79" height="45" rx="2"/><rect class="cls-37" x="49.61" y="340.15" width="58.79" height="35.51"/><rect class="cls-14" x="49.61" y="340.15" width="58.79" height="2.83"/><rect class="cls-14" x="51.27" y="345.1" width="12.93" height="2.63" rx="0.95"/><rect class="cls-14" x="51.27" y="349.49" width="12.93" height="24.71" rx="4.67"/><path class="cls-38" d="M92.21,394.43v-.8s-1.12-5-9.09-5-7.8,5.78-7.8,5.78Z"/><path class="cls-2" d="M75.22,389.39a7.71,7.71,0,0,0,2.37-.52c.63-.38,4.42-2.93,5.31-2.52s6.82,2.22,6.62,3.09-.76.78-1.18.63a30.89,30.89,0,0,0-5.1-.91s4.23,1.55,4.25,2.67-.89,1.4-1.29,1.83-.88,1.48-2,1.56-6.41-1.77-7.5-1.85a30.19,30.19,0,0,1-3.26-.11A29.84,29.84,0,0,1,75.22,389.39Z"/><path class="cls-1" d="M43.73,360.4c-5.51-1-11.32-2.36-11.32-2.36l-10.27-.42S12.71,359.7,9,361.37c-.35.16-.35,8.41-1.32,10.58l3.08,6.49S12.54,391.31,12.9,397c.17,2.62-.48,25.38-.48,25.38s.93.45,7.94,1.23,24.53-.28,24.64-1.11-3.4-30.83-3.55-32.39c-.24-2.38.69-13.4.69-13.4,1.32,1.77,4.69,9.79,8.19,13.6C52.4,392.58,62.62,394,64.55,394c4.19.14,11.85,1,12.07.57.18-.25.67-6.79.19-6.95s-14.63-1-18.27-2.89c-1.33-.71-5.32-9.39-5.32-9.39S46.77,361.77,43.73,360.4Z"/><rect class="cls-36" y="380.57" width="29.73" height="41.18" rx="10.73"/><path class="cls-36" d="M24.46,431.31a13.62,13.62,0,0,1-10.56-4.37C8,420.38,9,408.84,9.07,408.35a1.65,1.65,0,0,1,3.29.33c0,.13-1,10.58,4,16A10.32,10.32,0,0,0,24.46,428a1.66,1.66,0,1,1,0,3.31Z"/><path class="cls-14" d="M66.81,357.91a12.15,12.15,0,0,0,2.86,7.84A11.82,11.82,0,0,0,71,367.13l.43.36.5.37A12.13,12.13,0,0,0,77.51,370c.36,0,.73.07,1.1.08H79c.39,0,.78,0,1.17-.05s.85-.11,1.26-.19a12.18,12.18,0,0,0,5-2.28,12.51,12.51,0,0,0,1.23-1.08l.22-.23a11.21,11.21,0,0,0,.77-.91,12.19,12.19,0,1,0-21.84-7.45Z"/><path class="cls-39" d="M71.06,364.64l.9,3.22A12.13,12.13,0,0,0,77.51,370c.36,0,.73.07,1.1.08H79c.39,0,.78,0,1.17-.05s.85-.11,1.26-.19a12.18,12.18,0,0,0,5-2.28c.17-1.06.36-2.24.52-3.35-.9-.33-3.75-1.3-5.55-1.91l-.07,0-.12,0-.31-.1-.28-.09-.72-.25h-.06l-2.42.18-.4,0h-.13l-.06,0c-.14,0-.57.14-1.13.32h0C74.27,362.79,71.94,363.63,71.06,364.64Z"/><path class="cls-5" d="M78.37,351.85s-2.9.49-2.41,5S79,361,79.19,361s2.57.05,2.7-5.51C81.89,355.52,81.93,351.42,78.37,351.85Z"/><path class="cls-5" d="M77.1,359.71A10.32,10.32,0,0,1,77,362c-.17.4,2.33,1.69,3.89.22a16.78,16.78,0,0,1-.22-2.76C80.79,358.73,77.1,359.71,77.1,359.71Z"/><path class="cls-5" d="M75.9,355.6s-.32-.33-.43,0,.51,1.88.47,1.95.06.13.14.06A17.85,17.85,0,0,0,75.9,355.6Z"/><path class="cls-5" d="M81.86,355.48s.31-.35.43,0a5.78,5.78,0,0,1-.39,2s-.1.15-.18.08A16.48,16.48,0,0,1,81.86,355.48Z"/><path class="cls-1" d="M75.72,355.22c.1.62.19,1.08.19,1.08l.42.55a12,12,0,0,1,0-1.41,2.26,2.26,0,0,0,.09-.34,3.3,3.3,0,0,1,.13-.57,6.21,6.21,0,0,1,4.65.14,3,3,0,0,0,0,.4c0,.25,0,.52.14.56s.12,1.43.12,1.43l.33-.39s.1-.71.2-1.52h0l.06-.57A3.79,3.79,0,0,0,81,351.4a5.23,5.23,0,0,0-3.77,0,1.29,1.29,0,0,0-.56.15A5.39,5.39,0,0,0,75.72,355.22Z"/><path class="cls-40" d="M80.5,360.42A1.88,1.88,0,0,1,79,361a2.13,2.13,0,0,1-1.55-.59A1.88,1.88,0,0,0,79,361.51,1.91,1.91,0,0,0,80.5,360.42Z"/><path class="cls-5" d="M81.21,362.25A3.18,3.18,0,0,1,79,363.74c-.93.08-1.74-1.11-2.12-1.69A5.67,5.67,0,0,1,81.21,362.25Z"/><path class="cls-41" d="M77.1,361.62A7.94,7.94,0,0,0,79,363.23l-.78,1.21-1.34-2.39Z"/><path class="cls-41" d="M80.85,361.8a5.31,5.31,0,0,1-1.9,1.43l.87,1.25,1.51-2.19Z"/><path class="cls-1" d="M79,363.23l-.67,1a1.42,1.42,0,0,0,1.37,0Z"/><path class="cls-9" d="M70.29,364.45v.06c.08.27.36,1.28.73,2.62l.43.36.5.37A12.13,12.13,0,0,0,77.51,370c-.18-4.22-.68-8-.68-8-.4.1-.77.2-1.13.31h0a25.42,25.42,0,0,0-5.2,2h0A1.13,1.13,0,0,0,70.29,364.45Z"/><path class="cls-9" d="M81.44,369.86a12.18,12.18,0,0,0,5-2.28,12.51,12.51,0,0,0,1.23-1.08l.22-.23c.21-.91.36-1.5.36-1.54h0s-1.51-1-6.85-2.41h0C81.4,362.44,81.4,365.86,81.44,369.86Z"/><path class="cls-1" d="M78.57,364.37c.05,1.11.05,3.26,0,5.72H79c.39,0,.78,0,1.17-.05a38.18,38.18,0,0,0-.81-5.69c-.06-.24-.1-.37-.1-.37l-.72.12C78.56,364.19,78.56,364.27,78.57,364.37Z"/><path class="cls-9" d="M69.67,365.75A11.82,11.82,0,0,0,71,367.13l.43.36-1-3.17h0a.77.77,0,0,0-.19.18A6.57,6.57,0,0,0,69.67,365.75Z"/><path class="cls-9" d="M87.66,366.5l.22-.23a11.21,11.21,0,0,0,.77-.91,1.35,1.35,0,0,0-.4-.63h0Z"/><path class="cls-12" d="M420.55,217.83l0-.59a5.16,5.16,0,0,1,1.4-3.91c1-1.2,1.59-2.09,1.59-3.11s-.73-1.92-2.16-1.94a4,4,0,0,0-2.28.7l-.55-1.43a6,6,0,0,1,3.24-.9c2.61,0,3.78,1.6,3.78,3.32,0,1.54-.86,2.65-1.94,3.94a4.46,4.46,0,0,0-1.29,3.33l0,.59Zm-.5,3.17a1.34,1.34,0,0,1,1.36-1.43,1.42,1.42,0,1,1-1.36,1.43Z"/><path class="cls-42" d="M293.06,382.22h-4a6.64,6.64,0,0,0-.17-1.66,6.33,6.33,0,0,0-1.11-2.34,11.06,11.06,0,0,0,2.1-1.16,9.34,9.34,0,0,1,1.15,1l2.1-2.89a2.29,2.29,0,0,0,.32-.56c.22-.6-.14-1.14-1-1.08a4.27,4.27,0,0,0-2.6,1.73l-1,1.07a10.65,10.65,0,0,1-1.91,1A6.81,6.81,0,0,0,284.7,376c-.91-.26-1.1.69-.57.91a8,8,0,0,1,1.64.86,12.38,12.38,0,0,1-3,.48v-3.61a13.41,13.41,0,0,1,5.58,1.43l4.67-6.34c.46-.75.56-1.6-.32-1.84a3.07,3.07,0,0,0-2.59.84L286,372.91a.84.84,0,0,0-.21-.21c-.94-.65-2.5.09-3.54,1a.82.82,0,0,0-.52-.67c-1.71-.85-4.3,1.64-5.66,3a13.58,13.58,0,0,1,5.42-1.36v3.59l-.53-.05a10.75,10.75,0,0,1-4-1.23c-.65-.35-1.15.43-.73.79a8.51,8.51,0,0,0,4.67,1.52l.58,0v2.89h-5.18a5.8,5.8,0,0,1,.57-1.9c.31-.7-.77-.83-1.11-.23a7.7,7.7,0,0,0-.6,2.13h-4a6.47,6.47,0,0,1,.57-2l-1.07,1-1.31,1.27c-1,1-.92,1.61-.42,2.21a1.67,1.67,0,0,0,1.51.42l-1.05,1.33c-.45.7-.47,1.19-.07,1.66a1.22,1.22,0,0,0,1.91,0l1.18-.86-2.29,2.78-.78,1.14c-.34.58-.31,1.19.26,1.46a2.23,2.23,0,0,0,2.66-.63l2.6-2.85A9.32,9.32,0,0,1,277,388a7.74,7.74,0,0,0,1.85,1.39c.74.29,1.28-.49.71-.87a9.16,9.16,0,0,1-1.44-.93,14.14,14.14,0,0,1,3.34-.64v2.87a.64.64,0,0,0,.64.53h0a.6.6,0,0,0,.6-.53V386.9a9.25,9.25,0,0,1,4.65,1.11c.74.42,1.31-.59.68-.91a12.2,12.2,0,0,0-5.32-1.26v-2.58h5.07a7,7,0,0,1-.5,1.55c-.24.6.61,1.22,1.09.26a8,8,0,0,0,.54-1.81h4.15a7.69,7.69,0,0,1-3.69,5.85l-2.23,3.64c-.32.51-1.48,1.71-.69,2s1.72-.8,2.12-1.27l5.85-7.42,3-3.22,2.23-1.76-6.34,10.14L293,392c-.18.52.41.7,1,.24,2.21-1.79,3.73-3.8,6.4-5.25.56-.31,1-.07,1,.28.13,1.54-1,3.32-2.48,4.81l.07.07a8.35,8.35,0,0,0,2.84-3.88c.23-.72.41-2.31-1.17-1.85-2.29.66-4.47,2.91-6.08,4.39l4.52-6.75,2.3-4c.23-.59-.6-1-1.35-.42l-6.75,6.06-.45.55,1.11-1.77,3.63-4.89a6.25,6.25,0,0,0,.95-1.69c.21-.7-.65-1-1.56-.54a10.9,10.9,0,0,0-2.47,2l-1.62,1.77a6.54,6.54,0,0,1,.19,1Zm-21.88,1h3.93a7,7,0,0,0,.05.79,6.6,6.6,0,0,0,1.14,3,10.1,10.1,0,0,0-2.27,1.43,7.35,7.35,0,0,1-2.85-5.22Zm19.88-5.14,1.77-1.95c.77-.66,2-1.17,2.56-.6s-.26,1.71-.69,2.38l-1.95,2.88a7.56,7.56,0,0,0-1.69-2.71Zm-4.2,12.26L285.41,392a1.75,1.75,0,0,1-2,.77c-.36-.14-.33-.63-.2-.91l.51-.78a14.06,14.06,0,0,0,3.12-.7Zm-4.8.8-.33.42c-.65.82-1.45,2.08-3,2.23a.84.84,0,0,1-.89-1,7.89,7.89,0,0,1,1.11-2,14.33,14.33,0,0,0,3.12.36Zm-3.45-.44-1.37,1.5a22.7,22.7,0,0,1-4.84,4.34,1.56,1.56,0,0,1-1.54-.15c-.52-.53,0-1.33.48-2.05l2.76-3.71,1-1.38a12.33,12.33,0,0,0,3.46,1.45Zm-2.33-7.48h5.21v2.59a14.49,14.49,0,0,0-4.21.8,4.74,4.74,0,0,1-.92-2.45c0-.35-.07-.66-.08-.94Zm10.43-4.64a4,4,0,0,1,1,2.14,10.63,10.63,0,0,1,.14,1.46h-5.15v-2.88a15.3,15.3,0,0,0,4-.72Z"/></g></svg>