<svg xmlns="http://www.w3.org/2000/svg" viewBox="0 0 284.89 617.96"><defs><style>.cls-1{isolation:isolate;}.cls-2,.cls-4{fill:#9283be;}.cls-3{fill:#fbcb43;}.cls-4,.cls-6,.cls-8{mix-blend-mode:multiply;}.cls-5,.cls-6{fill:#e6e6e6;}.cls-7{fill:#666;}.cls-8{fill:#e0afb6;}.cls-9{fill:#ccc;}.cls-10{fill:#dc4437;}.cls-11{fill:#f2f2f2;}.cls-12{fill:#f9d16e;}.cls-13{fill:#333;}.cls-14{fill:#b3b3b3;}.cls-15{fill:#fff;}.cls-16{fill:#999;}.cls-17{fill:#77a7fb;}.cls-18{fill:#4d4d4d;}.cls-19{fill:gray;}</style></defs><g class="cls-1"><g id="Слой_3" data-name="Слой 3"><path class="cls-2" d="M182.74,428.4c-1.77,0-3.2,2-3.2,4.53s1.43,4.53,3.2,4.53,3.2-2,3.2-4.53S184.51,428.4,182.74,428.4Z"/><rect class="cls-3" x="187.58" y="428.4" width="71.59" height="9.07"/><rect class="cls-2" x="187.58" y="428.4" width="71.59" height="9.07"/><rect class="cls-4" x="187.58" y="430.83" width="71.59" height="6.63"/><rect class="cls-4" x="187.58" y="434.15" width="71.59" height="3.31"/><rect class="cls-5" x="182.62" y="428.4" width="5.59" height="9.07"/><polygon class="cls-5" points="259.17 428.4 274.65 432.93 259.17 437.46 259.17 428.4"/><polygon class="cls-6" points="259.17 434.15 274.65 432.93 259.17 437.46 259.17 434.15"/><polygon class="cls-6" points="259.17 430.83 274.65 432.93 259.17 437.46 259.17 430.83"/><path class="cls-7" d="M272,432.13h5a.8.8,0,0,1,0,1.6h-5Z"/><path class="cls-5" d="M185.29,452.65a.76.76,0,0,0,.75-.76h0a.76.76,0,0,0-.75-.76h-5a.75.75,0,0,0-.75.76h0a.76.76,0,0,0,.75.76Z"/><polygon class="cls-2" points="183.03 451.13 194.5 447.78 195.31 451.89 194.5 456.16 183.03 452.62 183.03 451.13"/><rect class="cls-2" x="194.5" y="447.78" width="64.56" height="8.38"/><polygon class="cls-4" points="259.06 456.16 259.06 454.03 194.5 454.03 190.12 454.81 194.5 456.16 259.06 456.16"/><path class="cls-2" d="M238.75,447.29h33.51c2.93,0,5.32,2.11,5.32,4.71v.14c0,2.6-2.39,4.71-5.32,4.71H238.75Z"/><path class="cls-8" d="M277.55,451.58c.37,3.83-3.22,5.27-5.29,5.27H238.75V454.7h36A3.39,3.39,0,0,0,277.55,451.58Z"/><path class="cls-4" d="M238.75,456.16H194.5L186,453.55l8.46-1.66,44.25-1.45v1.45h22.31v-1.54H242.72v-1.61h28.44v3.15h3.63c1,0,2,.18,2.45-1.54,0,.25.34,1.39.34,1.65v.14c0,2.6-2.39,4.71-5.32,4.71H238.75Z"/><polygon class="cls-5" points="264.15 447.17 242.72 447.78 242.72 446.3 266.1 444.57 271.16 447.78 271.16 449.76 261.06 449.76 264.15 447.17"/><polygon class="cls-9" points="265.45 445.96 271.16 448.74 271.16 449.76 261.06 449.76 264.15 447.17 242.72 447.78 265.45 445.96"/><path class="cls-10" d="M107.19,581.71H72.27v-3.23h34.92a57.82,57.82,0,0,0,22.57-4.55c5.39-2.43,11.81-6.87,11.81-14.26V381.17h3.24v178.5C144.81,575.73,121.73,581.71,107.19,581.71Z"/><path class="cls-11" d="M109.42,537H75.71a18.25,18.25,0,0,0-18.25,18.26v40.51A18.25,18.25,0,0,0,75.71,614h33.71a18.25,18.25,0,0,0,18.25-18.25V555.27A18.25,18.25,0,0,0,109.42,537Z"/><path class="cls-10" d="M109.42,615.34H75.71a19.58,19.58,0,0,1-19.55-19.56V555.27a19.57,19.57,0,0,1,19.55-19.56h33.71A19.57,19.57,0,0,1,129,555.27v40.51A19.58,19.58,0,0,1,109.42,615.34Zm-33.71-77a17,17,0,0,0-16.94,16.95v40.51a17,17,0,0,0,16.94,16.94h33.71a17,17,0,0,0,16.94-16.94V555.27a17,17,0,0,0-16.94-16.95Z"/><path class="cls-12" d="M92.57,560.41a13.25,13.25,0,0,0-4,25.87v6.32l8-.86v-5.46a13.25,13.25,0,0,0-4-25.87Z"/><path class="cls-10" d="M87.77,593.45v-6.62a14,14,0,1,1,9.59,0v5.59Zm4.8-32.27a12.48,12.48,0,0,0-3.8,24.37l.53.17v6l6.53-.7v-5.33l.53-.17a12.48,12.48,0,0,0-3.79-24.37Z"/><path class="cls-3" d="M89.85,601.32a3.76,3.76,0,0,0,5.43,0Z"/><path class="cls-10" d="M92.57,603.24a4.58,4.58,0,0,1-3.26-1.38l-1.3-1.3h9.11l-1.3,1.3A4.56,4.56,0,0,1,92.57,603.24Z"/><polygon class="cls-10" points="97.94 594.74 87.2 596.52 87.2 597.82 97.94 596.03 97.94 594.74"/><polygon class="cls-10" points="97.94 592.87 87.2 594.65 87.2 595.95 97.94 594.17 97.94 592.87"/><polygon class="cls-10" points="97.94 598.02 97.94 596.61 87.2 598.39 87.2 599.8 97.94 598.02"/><polygon class="cls-10" points="97.94 592.3 97.94 590.98 87.2 590.98 87.2 594.08 97.94 592.3"/><polygon class="cls-10" points="87.2 600.37 87.2 601.58 97.94 601.58 97.94 598.59 87.2 600.37"/><path class="cls-3" d="M75.82,575.89l-14-.8c0,.53,0,1.06.1,1.59Z"/><path class="cls-3" d="M81.71,586.75l-10.48,9.39c.36.36.74.7,1.13,1Z"/><path class="cls-3" d="M78.88,583.81l-12.5,6.32c.27.43.55.87.85,1.29Z"/><path class="cls-3" d="M75.82,571.5l-13.2-4.42c-.12.52-.23,1-.32,1.58Z"/><path class="cls-3" d="M76.71,580.15,63.15,583c.15.5.32,1,.5,1.48Z"/><path class="cls-3" d="M85,589l-7.63,11.69c.44.25.88.49,1.33.72Z"/><path class="cls-3" d="M87.7,557.77,85,544.24c-.55.14-1.08.3-1.61.46Z"/><path class="cls-3" d="M77.1,567.22l-11.65-7.67c-.26.48-.5,1-.73,1.47Z"/><path class="cls-3" d="M77.2,547.4q-.72.42-1.41.87l7.63,11.41Z"/><path class="cls-3" d="M79.71,563,70.5,552.64c-.39.39-.76.8-1.12,1.21Z"/><path class="cls-3" d="M109.39,575.89l13.79.79c0-.53.08-1.06.1-1.59Z"/><path class="cls-3" d="M91.73,543.3l.84,13.55.83-13.55H91.73Z"/><path class="cls-3" d="M103.46,586.75l9.32,10.42c.39-.33.76-.68,1.13-1Z"/><path class="cls-3" d="M100.13,589l6.3,12.42c.46-.23.9-.47,1.34-.72Z"/><path class="cls-3" d="M108.39,580.1l13.1,4.32c.18-.48.34-1,.49-1.48Z"/><path class="cls-3" d="M107.9,567.06l12.42-6.24c-.23-.5-.48-1-.74-1.47Z"/><path class="cls-3" d="M106.34,583.81l11.58,7.59c.29-.43.57-.86.84-1.3Z"/><path class="cls-3" d="M122.51,567.07l-13.12,4.37,13.44-2.8C122.74,568.11,122.63,567.58,122.51,567.07Z"/><path class="cls-3" d="M105.45,563.06l10.32-9.18c-.36-.42-.73-.82-1.12-1.22Z"/><path class="cls-3" d="M101.9,559.68l7.52-11.36q-.69-.45-1.41-.87Z"/><path class="cls-3" d="M100.2,544.25l-2.74,13.52,4.35-13.06C101.28,544.54,100.74,544.38,100.2,544.25Z"/><path class="cls-13" d="M203.72,540H178.91c-5.51,0-11.06-2.86-15.24-7.85a31.57,31.57,0,0,1-6.91-20.36V393.52h3.33V511.74A28.3,28.3,0,0,0,166.22,530c3.55,4.24,8.17,6.66,12.69,6.66h24.81Z"/><path class="cls-13" d="M270.73,475H185.15c-3.57,0-6.5,4.3-6.5,9.56V608.4c0,5.26,2.93,9.56,6.5,9.56h85.58c3.57,0,6.49-4.3,6.49-9.56V484.55C277.22,479.29,274.3,475,270.73,475Z"/><rect class="cls-5" x="185.15" y="478.61" width="85.04" height="133.24"/><rect class="cls-14" x="205.13" y="471.05" width="45.61" height="9.55"/><rect class="cls-15" x="208.9" y="474.64" width="38.07" height="8.69"/><rect class="cls-14" x="208.9" y="493.88" width="38.07" height="2.7"/><rect class="cls-14" x="187.86" y="503.7" width="68.48" height="2.7"/><rect class="cls-14" x="193.51" y="509.01" width="25.6" height="2.7"/><rect class="cls-14" x="187.83" y="514.33" width="49.87" height="2.7"/><rect class="cls-14" x="187.82" y="519.64" width="68.52" height="2.7"/><rect class="cls-14" x="193.51" y="524.96" width="62.83" height="2.7"/><rect class="cls-14" x="193.51" y="530.27" width="44.19" height="2.7"/><rect class="cls-14" x="257.73" y="530.27" width="10.01" height="2.7"/><rect class="cls-14" x="257.73" y="509.01" width="10.01" height="2.7"/><rect class="cls-14" x="187.78" y="535.59" width="68.56" height="2.7"/><rect class="cls-14" x="193.51" y="540.9" width="62.83" height="2.7"/><rect class="cls-14" x="193.51" y="546.22" width="74.39" height="2.7"/><rect class="cls-14" x="187.73" y="551.54" width="68.61" height="2.7"/><rect class="cls-14" x="193.51" y="556.85" width="74.36" height="2.7"/><rect class="cls-14" x="187.7" y="562.16" width="68.64" height="2.7"/><rect class="cls-14" x="193.51" y="567.48" width="62.83" height="2.7"/><rect class="cls-14" x="193.51" y="572.8" width="74.32" height="2.7"/><rect class="cls-14" x="187.66" y="578.11" width="80.15" height="2.7"/><rect class="cls-14" x="187.65" y="583.43" width="80.15" height="2.7"/><rect class="cls-14" x="193.51" y="594.06" width="62.83" height="2.7"/><rect class="cls-14" x="193.51" y="599.91" width="27.46" height="2.7"/><rect class="cls-14" x="218.17" y="488.95" width="19.52" height="2.7"/><rect class="cls-5" x="192.11" y="502.4" width="2.79" height="106.75"/><rect class="cls-5" x="254.94" y="502.4" width="2.79" height="106.75"/><polygon class="cls-2" points="262.94 511.74 258.56 506.92 259.71 505.87 262.53 508.98 265.18 503.36 266.58 504.03 262.94 511.74"/><polygon class="cls-2" points="262.94 533 258.56 528.18 259.71 527.13 262.53 530.24 265.18 524.63 266.58 525.29 262.94 533"/><polygon class="cls-2" points="262.94 549.22 258.56 544.39 259.71 543.35 262.53 546.45 265.18 540.84 266.58 541.5 262.94 549.22"/><path class="cls-5" d="M113.81,472.31H95.45v-2.87h18.36c6.63,0,13.72-8.14,13.72-20.26v-83.3h2.87v83.3a27.56,27.56,0,0,1-5.12,16.63C122.15,470,118,472.31,113.81,472.31Z"/><path class="cls-5" d="M102.27,429.16H34.79c-2.81,0-5.12,2.86-5.12,6.35v82.17c0,3.49,2.31,6.34,5.12,6.34h67.48c2.82,0,5.12-2.85,5.12-6.34V435.51C107.39,432,105.09,429.16,102.27,429.16Zm-67,8.55a2.37,2.37,0,1,1,2.28-2.36A2.31,2.31,0,0,1,35.27,437.71Zm6.09,0a2.37,2.37,0,1,1,2.27-2.36A2.32,2.32,0,0,1,41.36,437.71Zm6.08,0a2.37,2.37,0,1,1,2.27-2.36A2.31,2.31,0,0,1,47.44,437.71Zm6.08,0a2.37,2.37,0,1,1,2.28-2.36A2.32,2.32,0,0,1,53.52,437.71Zm6.09,0a2.37,2.37,0,1,1,2.27-2.36A2.32,2.32,0,0,1,59.61,437.71Zm6.08,0A2.37,2.37,0,1,1,68,435.35,2.32,2.32,0,0,1,65.69,437.71Zm6.09,0a2.37,2.37,0,1,1,2.27-2.36A2.32,2.32,0,0,1,71.78,437.71Zm6.08,0a2.37,2.37,0,1,1,2.27-2.36A2.31,2.31,0,0,1,77.86,437.71Zm6.08,0a2.37,2.37,0,1,1,2.28-2.36A2.32,2.32,0,0,1,83.94,437.71Zm6.09,0a2.37,2.37,0,1,1,2.27-2.36A2.32,2.32,0,0,1,90,437.71Zm6.08,0a2.37,2.37,0,1,1,2.28-2.36A2.32,2.32,0,0,1,96.11,437.71Zm6.09,0a2.32,2.32,0,0,1-2.28-2.36,2.35,2.35,0,0,1,.3-1.16,2.23,2.23,0,0,1,2-1.21,2.37,2.37,0,0,1,0,4.73Z"/><path class="cls-7" d="M101.69,434.72a2.76,2.76,0,0,1-1.56-.31l.37-.56a2.23,2.23,0,0,0,1.19.2c2.24,0,4.06-2.15,4.06-4.78s-1.82-4.77-4.06-4.77-4.06,2.14-4.06,4.77H97c0-3,2.12-5.45,4.73-5.45s4.73,2.45,4.73,5.45S104.3,434.72,101.69,434.72Z"/><path class="cls-7" d="M95.5,434.72a2.73,2.73,0,0,1-1.55-.31l.36-.56a2.27,2.27,0,0,0,1.19.2c2.24,0,4.06-2.15,4.06-4.78s-1.82-4.77-4.06-4.77-4,2.14-4,4.77h-.68c0-3,2.12-5.45,4.73-5.45s4.73,2.45,4.73,5.45S98.11,434.72,95.5,434.72Z"/><path class="cls-7" d="M89.5,434.72a2.76,2.76,0,0,1-1.56-.31l.37-.56a2.25,2.25,0,0,0,1.19.2c2.24,0,4.06-2.15,4.06-4.78s-1.82-4.77-4.06-4.77-4.06,2.14-4.06,4.77h-.67c0-3,2.12-5.45,4.73-5.45s4.73,2.45,4.73,5.45S92.11,434.72,89.5,434.72Z"/><path class="cls-7" d="M83.41,434.72a2.76,2.76,0,0,1-1.56-.31l.37-.56a2.23,2.23,0,0,0,1.19.2c2.23,0,4-2.15,4-4.78s-1.82-4.77-4-4.77-4.06,2.14-4.06,4.77h-.67c0-3,2.12-5.45,4.73-5.45s4.73,2.45,4.73,5.45S86,434.72,83.41,434.72Z"/><path class="cls-7" d="M77.31,434.72a2.73,2.73,0,0,1-1.55-.31l.36-.56a2.27,2.27,0,0,0,1.19.2c2.24,0,4.06-2.15,4.06-4.78s-1.82-4.77-4.06-4.77-4,2.14-4,4.77h-.68c0-3,2.12-5.45,4.73-5.45S82,426.27,82,429.27,79.92,434.72,77.31,434.72Z"/><path class="cls-7" d="M71.22,434.72a2.76,2.76,0,0,1-1.56-.31l.37-.56a2.23,2.23,0,0,0,1.19.2c2.24,0,4.06-2.15,4.06-4.78s-1.82-4.77-4.06-4.77-4.06,2.14-4.06,4.77h-.67c0-3,2.12-5.45,4.73-5.45S76,426.27,76,429.27,73.83,434.72,71.22,434.72Z"/><path class="cls-7" d="M65.13,434.72a2.76,2.76,0,0,1-1.56-.31l.37-.56a2.23,2.23,0,0,0,1.19.2c2.23,0,4.05-2.15,4.05-4.78s-1.82-4.77-4.05-4.77-4.06,2.14-4.06,4.77H60.4c0-3,2.12-5.45,4.73-5.45s4.73,2.45,4.73,5.45S67.73,434.72,65.13,434.72Z"/><path class="cls-7" d="M59,434.72a2.71,2.71,0,0,1-1.55-.31l.36-.56a2.27,2.27,0,0,0,1.19.2c2.24,0,4.06-2.15,4.06-4.78S61.27,424.5,59,424.5,55,426.64,55,429.27H54.3c0-3,2.12-5.45,4.73-5.45s4.73,2.45,4.73,5.45S61.64,434.72,59,434.72Z"/><path class="cls-7" d="M52.94,434.72a2.76,2.76,0,0,1-1.56-.31l.37-.56a2.23,2.23,0,0,0,1.19.2c2.24,0,4.05-2.15,4.05-4.78s-1.81-4.77-4.05-4.77-4.06,2.14-4.06,4.77h-.67c0-3,2.12-5.45,4.73-5.45s4.73,2.45,4.73,5.45S55.55,434.72,52.94,434.72Z"/><path class="cls-7" d="M46.84,434.72a2.79,2.79,0,0,1-1.56-.31l.38-.56a2.21,2.21,0,0,0,1.18.2c2.24,0,4.06-2.15,4.06-4.78s-1.82-4.77-4.06-4.77-4.05,2.14-4.05,4.77h-.68c0-3,2.13-5.45,4.73-5.45s4.73,2.45,4.73,5.45S49.45,434.72,46.84,434.72Z"/><path class="cls-7" d="M40.75,434.72a2.78,2.78,0,0,1-1.56-.31l.37-.56a2.27,2.27,0,0,0,1.19.2c2.24,0,4.06-2.15,4.06-4.78S43,424.5,40.75,424.5s-4.06,2.14-4.06,4.77H36c0-3,2.12-5.45,4.73-5.45s4.73,2.45,4.73,5.45S43.36,434.72,40.75,434.72Z"/><path class="cls-7" d="M34.66,434.72a2.76,2.76,0,0,1-1.56-.31l.37-.56a2.23,2.23,0,0,0,1.19.2c2.23,0,4.05-2.15,4.05-4.78s-1.82-4.77-4.05-4.77-4.06,2.14-4.06,4.77a3.48,3.48,0,0,0,.52,2l-.5.44a4.18,4.18,0,0,1-.7-2.4c0-3,2.13-5.45,4.74-5.45s4.73,2.45,4.73,5.45S37.27,434.72,34.66,434.72Z"/><path class="cls-2" d="M104.65,439.53h-.11v-.12H33.06v.12H33v80h.11v.11h71.48v-.11h.11Zm-71.48,7.06h2.89v3.25H33.17Zm34.19,31.07v-3.25h2.88v3.25Zm2.88.22v3.26H67.36v-3.26Zm-3.11-.22H64.25v-3.25h2.88Zm0,.22v3.26H64.25v-3.26ZM64,481.14H61.14v-3.26H64Zm0,.22v3.25H61.14v-3.25Zm.22,0h2.88v3.25H64.25Zm3.11,0h2.88v3.25H67.36Zm3.1,0h2.89v3.25H70.46Zm0-.22v-3.26h2.89v3.26Zm0-3.48v-3.25h2.89v3.25Zm0-3.48v-3.25h2.89v3.25Zm-.22,0H67.36v-3.25h2.88Zm-3.11,0H64.25v-3.25h2.88Zm-3.1,0H61.14v-3.25H64Zm0,.23v3.25H61.14v-3.25Zm-3.11,3.25H58v-3.25h2.89Zm0,.22v3.26H58v-3.26Zm0,3.48v3.25H58v-3.25Zm0,3.48v3.25H58v-3.25Zm.22,0H64v3.25H61.14Zm3.11,0h2.88v3.25H64.25Zm3.11,0h2.88v3.25H67.36Zm3.1,0h2.89v3.25H70.46Zm3.11,0h2.89v3.25H73.57Zm0-.23v-3.25h2.89v3.25Zm0-3.47v-3.26h2.89v3.26Zm0-3.48v-3.25h2.89v3.25Zm0-3.48v-3.25h2.89v3.25Zm0-3.47v-3.26h2.89v3.26Zm-.22,0H70.46v-3.26h2.89Zm-3.11,0H67.36v-3.26h2.88Zm-3.11,0H64.25v-3.26h2.88Zm-3.1,0H61.14v-3.26H64Zm-3.11,0H58v-3.26h2.89Zm0,.22v3.25H58v-3.25Zm-3.11,3.25H54.93v-3.25h2.88Zm0,.23v3.25H54.93v-3.25Zm0,3.47v3.26H54.93v-3.26Zm0,3.48v3.25H54.93v-3.25Zm0,3.48v3.25H54.93v-3.25Zm0,3.47v3.26H54.93v-3.26Zm.22,0h2.89v3.26H58Zm3.11,0H64v3.26H61.14Zm3.11,0h2.88v3.26H64.25Zm3.11,0h2.88v3.26H67.36Zm3.1,0h2.89v3.26H70.46Zm3.11,0h2.89v3.26H73.57Zm3.11,0h2.88v3.26H76.68Zm0-.22v-3.25h2.88v3.25Zm0-3.48v-3.25h2.88v3.25Zm0-3.47v-3.26h2.88v3.26Zm0-3.48v-3.25h2.88v3.25Zm0-3.48v-3.25h2.88v3.25Zm0-3.47v-3.26h2.88v3.26Zm0-3.48V464h2.88v3.25Zm-.22,0H73.57V464h2.89Zm-3.11,0H70.46V464h2.89Zm-3.11,0H67.36V464h2.88Zm-3.11,0H64.25V464h2.88Zm-3.1,0H61.14V464H64Zm-3.11,0H58V464h2.89Zm-3.11,0H54.93V464h2.88Zm0,.22v3.26H54.93v-3.26Zm-3.11,3.26H51.82v-3.26H54.7Zm0,.22v3.25H51.82v-3.25Zm0,3.48v3.25H51.82v-3.25Zm0,3.47v3.26H51.82v-3.26Zm0,3.48v3.25H51.82v-3.25Zm0,3.48v3.25H51.82v-3.25Zm0,3.47v3.26H51.82v-3.26Zm0,3.48V495H51.82v-3.25Zm.23,0h2.88V495H54.93Zm3.1,0h2.89V495H58Zm3.11,0H64V495H61.14Zm3.11,0h2.88V495H64.25Zm3.11,0h2.88V495H67.36Zm3.1,0h2.89V495H70.46Zm3.11,0h2.89V495H73.57Zm3.11,0h2.88V495H76.68Zm3.11,0h2.88V495H79.79Zm0-.22v-3.26h2.88v3.26Zm0-3.48v-3.25h2.88v3.25Zm0-3.48v-3.25h2.88v3.25Zm0-3.47v-3.26h2.88v3.26Zm0-3.48v-3.25h2.88v3.25Zm0-3.48v-3.25h2.88v3.25Zm0-3.47v-3.26h2.88v3.26Zm0-3.48V464h2.88v3.25Zm0-3.48V460.5h2.88v3.25Zm-.23,0H76.68V460.5h2.88Zm-3.1,0H73.57V460.5h2.89Zm-3.11,0H70.46V460.5h2.89Zm-3.11,0H67.36V460.5h2.88Zm-3.11,0H64.25V460.5h2.88Zm-3.1,0H61.14V460.5H64Zm-3.11,0H58V460.5h2.89Zm-3.11,0H54.93V460.5h2.88Zm-3.11,0H51.82V460.5H54.7Zm0,.23v3.25H51.82V464Zm-3.11,3.25H48.71V464h2.88Zm0,.22v3.26H48.71v-3.26Zm0,3.48v3.25H48.71v-3.25Zm0,3.48v3.25H48.71v-3.25Zm0,3.47v3.26H48.71v-3.26Zm0,3.48v3.25H48.71v-3.25Zm0,3.48v3.25H48.71v-3.25Zm0,3.47v3.26H48.71v-3.26Zm0,3.48V495H48.71v-3.25Zm0,3.48v3.25H48.71v-3.25Zm.23,0H54.7v3.25H51.82Zm3.11,0h2.88v3.25H54.93Zm3.1,0h2.89v3.25H58Zm3.11,0H64v3.25H61.14Zm3.11,0h2.88v3.25H64.25Zm3.11,0h2.88v3.25H67.36Zm3.1,0h2.89v3.25H70.46Zm3.11,0h2.89v3.25H73.57Zm3.11,0h2.88v3.25H76.68Zm3.11,0h2.88v3.25H79.79Zm3.11,0h2.88v3.25H82.9Zm0-.23v-3.25h2.88V495Zm0-3.47v-3.26h2.88v3.26Zm0-3.48v-3.25h2.88v3.25Zm0-3.48v-3.25h2.88v3.25Zm0-3.47v-3.26h2.88v3.26Zm0-3.48v-3.25h2.88v3.25Zm0-3.48v-3.25h2.88v3.25Zm0-3.47v-3.26h2.88v3.26Zm0-3.48V464h2.88v3.25Zm0-3.48V460.5h2.88v3.25Zm0-3.48V457h2.88v3.25Zm-.23,0H79.79V457h2.88Zm-3.11,0H76.68V457h2.88Zm-3.1,0H73.57V457h2.89Zm-3.11,0H70.46V457h2.89Zm-3.11,0H67.36V457h2.88Zm-3.11,0H64.25V457h2.88Zm-3.1,0H61.14V457H64Zm-3.11,0H58V457h2.89Zm-3.11,0H54.93V457h2.88Zm-3.11,0H51.82V457H54.7Zm-3.11,0H48.71V457h2.88Zm0,.23v3.25H48.71V460.5Zm-3.1,3.25H45.61V460.5h2.88Zm0,.23v3.25H45.61V464Zm0,3.47v3.26H45.61v-3.26Zm0,3.48v3.25H45.61v-3.25Zm0,3.48v3.25H45.61v-3.25Zm0,3.47v3.26H45.61v-3.26Zm0,3.48v3.25H45.61v-3.25Zm0,3.48v3.25H45.61v-3.25Zm0,3.47v3.26H45.61v-3.26Zm0,3.48V495H45.61v-3.25Zm0,3.48v3.25H45.61v-3.25Zm0,3.48V502H45.61v-3.25Zm.22,0h2.88V502H48.71Zm3.11,0H54.7V502H51.82Zm3.11,0h2.88V502H54.93Zm3.1,0h2.89V502H58Zm3.11,0H64V502H61.14Zm3.11,0h2.88V502H64.25Zm3.11,0h2.88V502H67.36Zm3.1,0h2.89V502H70.46Zm3.11,0h2.89V502H73.57Zm3.11,0h2.88V502H76.68Zm3.11,0h2.88V502H79.79Zm3.11,0h2.88V502H82.9Zm3.1,0h2.89V502H86Zm0-.23v-3.25h2.89v3.25ZM86,495v-3.25h2.89V495Zm0-3.47v-3.26h2.89v3.26Zm0-3.48v-3.25h2.89v3.25Zm0-3.48v-3.25h2.89v3.25Zm0-3.47v-3.26h2.89v3.26Zm0-3.48v-3.25h2.89v3.25Zm0-3.48v-3.25h2.89v3.25Zm0-3.47v-3.26h2.89v3.26Zm0-3.48V464h2.89v3.25Zm0-3.48V460.5h2.89v3.25Zm0-3.48V457h2.89v3.25Zm0-3.47v-3.25h2.89v3.25Zm-.22,0H82.9v-3.25h2.88Zm-3.11,0H79.79v-3.25h2.88Zm-3.11,0H76.68v-3.25h2.88Zm-3.1,0H73.57v-3.25h2.89Zm-3.11,0H70.46v-3.25h2.89Zm-3.11,0H67.36v-3.25h2.88Zm-3.11,0H64.25v-3.25h2.88Zm-3.1,0H61.14v-3.25H64Zm-3.11,0H58v-3.25h2.89Zm-3.11,0H54.93v-3.25h2.88Zm-3.11,0H51.82v-3.25H54.7Zm-3.11,0H48.71v-3.25h2.88Zm-3.1,0H45.61v-3.25h2.88Zm0,.22v3.25H45.61V457Zm-3.11,3.25H42.5V457h2.88Zm0,.23v3.25H42.5V460.5Zm0,3.48v3.25H42.5V464Zm0,3.47v3.26H42.5v-3.26Zm0,3.48v3.25H42.5v-3.25Zm0,3.48v3.25H42.5v-3.25Zm0,3.47v3.26H42.5v-3.26Zm0,3.48v3.25H42.5v-3.25Zm0,3.48v3.25H42.5v-3.25Zm0,3.47v3.26H42.5v-3.26Zm0,3.48V495H42.5v-3.25Zm0,3.48v3.25H42.5v-3.25Zm0,3.48V502H42.5v-3.25Zm0,3.47v3.25H42.5v-3.25Zm.23,0h2.88v3.25H45.61Zm3.1,0h2.88v3.25H48.71Zm3.11,0H54.7v3.25H51.82Zm3.11,0h2.88v3.25H54.93Zm3.1,0h2.89v3.25H58Zm3.11,0H64v3.25H61.14Zm3.11,0h2.88v3.25H64.25Zm3.11,0h2.88v3.25H67.36Zm3.1,0h2.89v3.25H70.46Zm3.11,0h2.89v3.25H73.57Zm3.11,0h2.88v3.25H76.68Zm3.11,0h2.88v3.25H79.79Zm3.11,0h2.88v3.25H82.9Zm3.1,0h2.89v3.25H86Zm3.11,0H92v3.25H89.11Zm0-.22v-3.25H92V502Zm0-3.48v-3.25H92v3.25Zm0-3.48v-3.25H92V495Zm0-3.47v-3.26H92v3.26Zm0-3.48v-3.25H92v3.25Zm0-3.48v-3.25H92v3.25Zm0-3.47v-3.26H92v3.26Zm0-3.48v-3.25H92v3.25Zm0-3.48v-3.25H92v3.25Zm0-3.47v-3.26H92v3.26Zm0-3.48V464H92v3.25Zm0-3.48V460.5H92v3.25Zm0-3.48V457H92v3.25Zm0-3.47v-3.25H92v3.25Zm0-3.48v-3.25H92v3.25Zm-.22,0H86v-3.25h2.89Zm-3.11,0H82.9v-3.25h2.88Zm-3.11,0H79.79v-3.25h2.88Zm-3.11,0H76.68v-3.25h2.88Zm-3.1,0H73.57v-3.25h2.89Zm-3.11,0H70.46v-3.25h2.89Zm-3.11,0H67.36v-3.25h2.88Zm-3.11,0H64.25v-3.25h2.88Zm-3.1,0H61.14v-3.25H64Zm-3.11,0H58v-3.25h2.89Zm-3.11,0H54.93v-3.25h2.88Zm-3.11,0H51.82v-3.25H54.7Zm-3.11,0H48.71v-3.25h2.88Zm-3.1,0H45.61v-3.25h2.88Zm-3.11,0H42.5v-3.25h2.88Zm0,.23v3.25H42.5v-3.25Zm-3.11,3.25H39.39v-3.25h2.88Zm0,.22v3.25H39.39V457Zm0,3.48v3.25H39.39V460.5Zm0,3.48v3.25H39.39V464Zm0,3.47v3.26H39.39v-3.26Zm0,3.48v3.25H39.39v-3.25Zm0,3.48v3.25H39.39v-3.25Zm0,3.47v3.26H39.39v-3.26Zm0,3.48v3.25H39.39v-3.25Zm0,3.48v3.25H39.39v-3.25Zm0,3.47v3.26H39.39v-3.26Zm0,3.48V495H39.39v-3.25Zm0,3.48v3.25H39.39v-3.25Zm0,3.48V502H39.39v-3.25Zm0,3.47v3.25H39.39v-3.25Zm0,3.48V509H39.39V505.7Zm.23,0h2.88V509H42.5Zm3.11,0h2.88V509H45.61Zm3.1,0h2.88V509H48.71Zm3.11,0H54.7V509H51.82Zm3.11,0h2.88V509H54.93Zm3.1,0h2.89V509H58Zm3.11,0H64V509H61.14Zm3.11,0h2.88V509H64.25Zm3.11,0h2.88V509H67.36Zm3.1,0h2.89V509H70.46Zm3.11,0h2.89V509H73.57Zm3.11,0h2.88V509H76.68Zm3.11,0h2.88V509H79.79Zm3.11,0h2.88V509H82.9Zm3.1,0h2.89V509H86Zm3.11,0H92V509H89.11Zm3.11,0H95.1V509H92.22Zm0-.23v-3.25H95.1v3.25Zm0-3.47v-3.25H95.1V502Zm0-3.48v-3.25H95.1v3.25Zm0-3.48v-3.25H95.1V495Zm0-3.47v-3.26H95.1v3.26Zm0-3.48v-3.25H95.1v3.25Zm0-3.48v-3.25H95.1v3.25Zm0-3.47v-3.26H95.1v3.26Zm0-3.48v-3.25H95.1v3.25Zm0-3.48v-3.25H95.1v3.25Zm0-3.47v-3.26H95.1v3.26Zm0-3.48V464H95.1v3.25Zm0-3.48V460.5H95.1v3.25Zm0-3.48V457H95.1v3.25Zm0-3.47v-3.25H95.1v3.25Zm0-3.48v-3.25H95.1v3.25Zm0-3.48v-3.25H95.1v3.25Zm-.22,0H89.11v-3.25H92Zm-3.11,0H86v-3.25h2.89Zm-3.11,0H82.9v-3.25h2.88Zm-3.11,0H79.79v-3.25h2.88Zm-3.11,0H76.68v-3.25h2.88Zm-3.1,0H73.57v-3.25h2.89Zm-3.11,0H70.46v-3.25h2.89Zm-3.11,0H67.36v-3.25h2.88Zm-3.11,0H64.25v-3.25h2.88Zm-3.1,0H61.14v-3.25H64Zm-3.11,0H58v-3.25h2.89Zm-3.11,0H54.93v-3.25h2.88Zm-3.11,0H51.82v-3.25H54.7Zm-3.11,0H48.71v-3.25h2.88Zm-3.1,0H45.61v-3.25h2.88Zm-3.11,0H42.5v-3.25h2.88Zm-3.11,0H39.39v-3.25h2.88Zm0,.23v3.25H39.39v-3.25Zm-3.1,3.25H36.28v-3.25h2.89Zm0,.23v3.25H36.28v-3.25Zm0,3.47v3.25H36.28V457Zm0,3.48v3.25H36.28V460.5Zm0,3.48v3.25H36.28V464Zm0,3.47v3.26H36.28v-3.26Zm0,3.48v3.25H36.28v-3.25Zm0,3.48v3.25H36.28v-3.25Zm0,3.47v3.26H36.28v-3.26Zm0,3.48v3.25H36.28v-3.25Zm0,3.48v3.25H36.28v-3.25Zm0,3.47v3.26H36.28v-3.26Zm0,3.48V495H36.28v-3.25Zm0,3.48v3.25H36.28v-3.25Zm0,3.48V502H36.28v-3.25Zm0,3.47v3.25H36.28v-3.25Zm0,3.48V509H36.28V505.7Zm0,3.48v3.25H36.28v-3.25Zm.22,0h2.88v3.25H39.39Zm3.11,0h2.88v3.25H42.5Zm3.11,0h2.88v3.25H45.61Zm3.1,0h2.88v3.25H48.71Zm3.11,0H54.7v3.25H51.82Zm3.11,0h2.88v3.25H54.93Zm3.1,0h2.89v3.25H58Zm3.11,0H64v3.25H61.14Zm3.11,0h2.88v3.25H64.25Zm3.11,0h2.88v3.25H67.36Zm3.1,0h2.89v3.25H70.46Zm3.11,0h2.89v3.25H73.57Zm3.11,0h2.88v3.25H76.68Zm3.11,0h2.88v3.25H79.79Zm3.11,0h2.88v3.25H82.9Zm3.1,0h2.89v3.25H86Zm3.11,0H92v3.25H89.11Zm3.11,0H95.1v3.25H92.22Zm3.1,0h2.89v3.25H95.32Zm0-.23V505.7h2.89V509Zm0-3.48v-3.25h2.89v3.25Zm0-3.47v-3.25h2.89V502Zm0-3.48v-3.25h2.89v3.25Zm0-3.48v-3.25h2.89V495Zm0-3.47v-3.26h2.89v3.26Zm0-3.48v-3.25h2.89v3.25Zm0-3.48v-3.25h2.89v3.25Zm0-3.47v-3.26h2.89v3.26Zm0-3.48v-3.25h2.89v3.25Zm0-3.48v-3.25h2.89v3.25Zm0-3.47v-3.26h2.89v3.26Zm0-3.48V464h2.89v3.25Zm0-3.48V460.5h2.89v3.25Zm0-3.48V457h2.89v3.25Zm0-3.47v-3.25h2.89v3.25Zm0-3.48v-3.25h2.89v3.25Zm0-3.48v-3.25h2.89v3.25Zm0-3.47v-3.26h2.89v3.26Zm-.22,0H92.22v-3.26H95.1Zm-3.1,0H89.11v-3.26H92Zm-3.11,0H86v-3.26h2.89Zm-3.11,0H82.9v-3.26h2.88Zm-3.11,0H79.79v-3.26h2.88Zm-3.11,0H76.68v-3.26h2.88Zm-3.1,0H73.57v-3.26h2.89Zm-3.11,0H70.46v-3.26h2.89Zm-3.11,0H67.36v-3.26h2.88Zm-3.11,0H64.25v-3.26h2.88Zm-3.1,0H61.14v-3.26H64Zm-3.11,0H58v-3.26h2.89Zm-3.11,0H54.93v-3.26h2.88Zm-3.11,0H51.82v-3.26H54.7Zm-3.11,0H48.71v-3.26h2.88Zm-3.1,0H45.61v-3.26h2.88Zm-3.11,0H42.5v-3.26h2.88Zm-3.11,0H39.39v-3.26h2.88Zm-3.1,0H36.28v-3.26h2.89Zm0,.22v3.25H36.28v-3.25Zm-6,3.48h2.89v3.25H33.17Zm0,3.48h2.89v3.25H33.17Zm0,3.47h2.89v3.25H33.17Zm0,3.48h2.89v3.25H33.17Zm0,3.48h2.89v3.25H33.17Zm0,3.47h2.89v3.26H33.17Zm0,3.48h2.89v3.25H33.17Zm0,3.48h2.89v3.25H33.17Zm0,3.47h2.89v3.26H33.17Zm0,3.48h2.89v3.25H33.17Zm0,3.48h2.89v3.25H33.17Zm0,3.47h2.89v3.26H33.17Zm0,3.48h2.89V495H33.17Zm0,3.48h2.89v3.25H33.17Zm0,3.48h2.89V502H33.17Zm0,3.47h2.89v3.25H33.17Zm0,3.48h2.89V509H33.17Zm0,3.48h2.89v3.25H33.17Zm0,3.47h2.89v3.25H33.17Zm3.11,0h2.89v3.25H36.28Zm3.11,0h2.88v3.25H39.39Zm3.11,0h2.88v3.25H42.5Zm3.11,0h2.88v3.25H45.61Zm3.1,0h2.88v3.25H48.71Zm3.11,0H54.7v3.25H51.82Zm3.11,0h2.88v3.25H54.93Zm3.1,0h2.89v3.25H58Zm3.11,0H64v3.25H61.14Zm3.11,0h2.88v3.25H64.25Zm3.11,0h2.88v3.25H67.36Zm3.1,0h2.89v3.25H70.46Zm3.11,0h2.89v3.25H73.57Zm3.11,0h2.88v3.25H76.68Zm3.11,0h2.88v3.25H79.79Zm3.11,0h2.88v3.25H82.9Zm3.1,0h2.89v3.25H86Zm3.11,0H92v3.25H89.11Zm3.11,0H95.1v3.25H92.22Zm3.1,0h2.89v3.25H95.32Zm3.11,0h2.89v3.25H98.43Zm0-.22v-3.25h2.89v3.25Zm0-3.48V505.7h2.89V509Zm0-3.48v-3.25h2.89v3.25Zm0-3.47v-3.25h2.89V502Zm0-3.48v-3.25h2.89v3.25Zm0-3.48v-3.25h2.89V495Zm0-3.47v-3.26h2.89v3.26Zm0-3.48v-3.25h2.89v3.25Zm0-3.48v-3.25h2.89v3.25Zm0-3.47v-3.26h2.89v3.26Zm0-3.48v-3.25h2.89v3.25Zm0-3.48v-3.25h2.89v3.25Zm0-3.47v-3.26h2.89v3.26Zm0-3.48V464h2.89v3.25Zm0-3.48V460.5h2.89v3.25Zm0-3.48V457h2.89v3.25Zm0-3.47v-3.25h2.89v3.25Zm0-3.48v-3.25h2.89v3.25Zm0-3.48v-3.25h2.89v3.25Zm0-3.47v-3.26h2.89v3.26Zm0-3.48v-3.25h2.89v3.25Zm-.22,0H95.32v-3.25h2.89Zm-3.11,0H92.22v-3.25H95.1Zm-3.1,0H89.11v-3.25H92Zm-3.11,0H86v-3.25h2.89Zm-3.11,0H82.9v-3.25h2.88Zm-3.11,0H79.79v-3.25h2.88Zm-3.11,0H76.68v-3.25h2.88Zm-3.1,0H73.57v-3.25h2.89Zm-3.11,0H70.46v-3.25h2.89Zm-3.11,0H67.36v-3.25h2.88Zm-3.11,0H64.25v-3.25h2.88Zm-3.1,0H61.14v-3.25H64Zm-3.11,0H58v-3.25h2.89Zm-3.11,0H54.93v-3.25h2.88Zm-3.11,0H51.82v-3.25H54.7Zm-3.11,0H48.71v-3.25h2.88Zm-3.1,0H45.61v-3.25h2.88Zm-3.11,0H42.5v-3.25h2.88Zm-3.11,0H39.39v-3.25h2.88Zm-3.1,0H36.28v-3.25h2.89Zm-3.11,0H33.17v-3.25h2.89Zm0,.22v3.26H33.17v-3.26Zm-2.89,73h2.89v3.25H33.17Zm3.11,0h2.89v3.25H36.28Zm3.11,0h2.88v3.25H39.39Zm3.11,0h2.88v3.25H42.5Zm3.11,0h2.88v3.25H45.61Zm3.1,0h2.88v3.25H48.71Zm3.11,0H54.7v3.25H51.82Zm3.11,0h2.88v3.25H54.93Zm3.1,0h2.89v3.25H58Zm3.11,0H64v3.25H61.14Zm3.11,0h2.88v3.25H64.25Zm3.11,0h2.88v3.25H67.36Zm3.1,0h2.89v3.25H70.46Zm3.11,0h2.89v3.25H73.57Zm3.11,0h2.88v3.25H76.68Zm3.11,0h2.88v3.25H79.79Zm3.11,0h2.88v3.25H82.9Zm3.1,0h2.89v3.25H86Zm3.11,0H92v3.25H89.11Zm3.11,0H95.1v3.25H92.22Zm3.1,0h2.89v3.25H95.32Zm3.11,0h2.89v3.25H98.43Zm3.11,0h2.88v3.25h-2.88Zm0-.23v-3.25h2.88v3.25Zm0-3.47v-3.25h2.88v3.25Zm0-3.48V505.7h2.88V509Zm0-3.48v-3.25h2.88v3.25Zm0-3.47v-3.25h2.88V502Zm0-3.48v-3.25h2.88v3.25Zm0-3.48v-3.25h2.88V495Zm0-3.47v-3.26h2.88v3.26Zm0-3.48v-3.25h2.88v3.25Zm0-3.48v-3.25h2.88v3.25Zm0-3.47v-3.26h2.88v3.26Zm0-3.48v-3.25h2.88v3.25Zm0-3.48v-3.25h2.88v3.25Zm0-3.47v-3.26h2.88v3.26Zm0-3.48V464h2.88v3.25Zm0-3.48V460.5h2.88v3.25Zm0-3.48V457h2.88v3.25Zm0-3.47v-3.25h2.88v3.25Zm0-3.48v-3.25h2.88v3.25Zm0-3.48v-3.25h2.88v3.25Zm0-3.47v-3.26h2.88v3.26Zm0-3.48v-3.25h2.88v3.25Z"/><path class="cls-2" d="M68.12,460.14l-13.59-8.46,13.59-8.46,13.6,8.46Zm-12-8.46,12,7.48,12-7.48-12-7.49Z"/><path class="cls-2" d="M68.12,515.34l-13.59-9.43,13.59-9.43,13.6,9.43Zm-12-9.43,12,8.34,12-8.34-12-8.34Z"/><path class="cls-2" d="M44.23,498l-8-6.25,8-6.25,8,6.25Zm-6.74-6.25L44.23,497,51,491.75l-6.74-5.15Z"/><path class="cls-2" d="M92.83,498l-8-6.25,8-6.25,8,6.25Zm-6.73-6.25,6.73,5.16,6.74-5.16-6.74-5.15Z"/><polygon class="cls-2" points="93.35 471.12 92.32 471.12 92.32 452.19 80.19 452.19 80.19 451.16 93.35 451.16 93.35 471.12"/><polygon class="cls-2" points="44.74 471.12 43.71 471.12 43.71 451.16 56.09 451.16 56.09 452.19 44.74 452.19 44.74 471.12"/><path class="cls-2" d="M52.19,479.26H36.46V470.6H52.19Zm-14.7-1H51.16v-6.6H37.49Z"/><path class="cls-2" d="M100.7,479.26H85V470.6H100.7Zm-14.7-1H99.67v-6.6H86Z"/><path class="cls-2" d="M76,479.26H60.26V470.6H76Zm-14.7-1H75v-6.6H61.29Z"/><rect class="cls-2" x="67.61" y="459.16" width="1.03" height="11.95"/><rect class="cls-2" x="67.61" y="478.74" width="1.03" height="18.23"/><rect class="cls-2" x="43.81" y="478.74" width="1.03" height="7.31"/><rect class="cls-2" x="92.32" y="478.62" width="1.03" height="7.31"/><polygon class="cls-2" points="55.86 506.43 43.71 506.43 43.71 497.28 44.74 497.28 44.74 505.39 55.86 505.39 55.86 506.43"/><polygon class="cls-2" points="93.27 506.55 80.61 506.55 80.61 505.52 92.24 505.52 92.24 497.4 93.27 497.4 93.27 506.55"/><g class="cls-1"><rect class="cls-2" y="46.77" width="284.89" height="213.49" rx="18.76"/><path class="cls-5" d="M0,241.49a18.82,18.82,0,0,0,18.76,18.77H266.13a18.83,18.83,0,0,0,18.76-18.77V65.77H0Z"/><rect class="cls-16" x="154.65" y="203.06" width="4.19" height="2.73"/><rect class="cls-16" x="154.6" y="188.86" width="4.19" height="2.73"/><rect class="cls-16" x="154.6" y="184.04" width="4.19" height="2.73"/><rect class="cls-16" x="154.6" y="179.21" width="4.19" height="2.73"/><rect class="cls-16" x="154.6" y="174.39" width="4.19" height="2.73"/><rect class="cls-16" x="154.6" y="169.56" width="4.19" height="2.73"/><rect class="cls-16" x="154.6" y="164.74" width="4.19" height="2.73"/><rect class="cls-16" x="154.6" y="159.91" width="4.19" height="2.73"/><rect class="cls-16" x="154.6" y="155.08" width="4.19" height="2.73"/><rect class="cls-16" x="154.6" y="150.26" width="4.19" height="2.73"/><rect class="cls-16" x="154.6" y="145.43" width="4.19" height="2.73"/><rect class="cls-16" x="154.6" y="140.61" width="4.19" height="2.73"/><rect class="cls-16" x="154.6" y="135.78" width="4.19" height="2.73"/><rect class="cls-16" x="154.6" y="130.96" width="4.19" height="2.73"/><rect class="cls-16" x="154.6" y="126.13" width="4.19" height="2.73"/><rect class="cls-16" x="154.6" y="121.3" width="4.19" height="2.73"/><rect class="cls-16" x="154.6" y="116.48" width="4.19" height="2.73"/><rect class="cls-16" x="154.6" y="111.65" width="4.19" height="2.73"/><rect class="cls-16" x="154.6" y="106.83" width="4.19" height="2.73"/><rect class="cls-16" x="154.6" y="102" width="4.19" height="2.73"/><rect class="cls-16" x="154.6" y="97.17" width="4.19" height="2.73"/><rect class="cls-16" x="154.6" y="92.35" width="4.19" height="2.73"/><rect class="cls-16" x="154.6" y="87.52" width="4.19" height="2.73"/><rect class="cls-16" x="154.6" y="82.7" width="4.19" height="2.73"/><rect class="cls-16" x="154.65" y="212.21" width="4.19" height="2.73"/><rect class="cls-16" x="154.65" y="216.95" width="4.19" height="2.73"/><rect class="cls-16" x="154.65" y="222.39" width="4.19" height="2.73"/><rect class="cls-16" x="164.67" y="92.31" width="27.69" height="2.8"/><rect class="cls-2" x="164.67" y="97.04" width="27.69" height="2.8"/><rect class="cls-2" x="164.67" y="101.32" width="27.69" height="2.8"/><rect class="cls-2" x="164.67" y="111.52" width="27.69" height="2.8"/><rect class="cls-2" x="164.67" y="116.52" width="27.69" height="2.8"/><rect class="cls-2" x="164.67" y="121.44" width="27.69" height="2.8"/><rect class="cls-2" x="164.67" y="125.74" width="27.69" height="2.8"/><rect class="cls-2" x="164.67" y="130.76" width="27.69" height="2.8"/><rect class="cls-2" x="164.67" y="135.57" width="27.69" height="2.8"/><rect class="cls-2" x="164.67" y="140.74" width="27.69" height="2.8"/><rect class="cls-2" x="164.67" y="145.71" width="27.69" height="2.8"/><rect class="cls-16" x="160.98" y="154.42" width="20.39" height="2.8"/><rect class="cls-16" x="160.98" y="163.72" width="37.6" height="2.8"/><rect class="cls-16" x="160.98" y="222.36" width="37.6" height="2.8"/><rect class="cls-16" x="160.98" y="179.02" width="54.63" height="2.8"/><rect class="cls-17" x="160.98" y="169.37" width="13.16" height="2.8"/><rect class="cls-17" x="160.98" y="183.2" width="21.54" height="2.8"/><rect class="cls-17" x="160.98" y="188.09" width="10.77" height="2.8"/><rect class="cls-17" x="160.98" y="203.02" width="12.25" height="2.8"/><rect class="cls-17" x="215.24" y="188.09" width="10.77" height="2.8"/><rect class="cls-17" x="222.55" y="192.79" width="16.96" height="2.8"/><rect class="cls-17" x="214.06" y="203.02" width="13.15" height="2.8"/><rect class="cls-17" x="265.43" y="188.09" width="10.77" height="2.8"/><rect class="cls-18" x="183.78" y="183.2" width="62.83" height="2.8"/><rect class="cls-18" x="174.03" y="188.09" width="39.86" height="2.8"/><rect class="cls-18" x="174.03" y="203.02" width="38.41" height="2.8"/><rect class="cls-18" x="160.98" y="207.76" width="36.88" height="2.8"/><rect class="cls-18" x="242.13" y="192.79" width="23.3" height="2.8"/><rect class="cls-18" x="228.9" y="203.02" width="48.48" height="2.8"/><rect class="cls-18" x="160.98" y="197.51" width="14.83" height="2.8"/><rect class="cls-18" x="160.98" y="192.79" width="59.55" height="2.8"/><rect class="cls-18" x="227.93" y="188.09" width="35.43" height="2.8"/><rect class="cls-18" x="175.91" y="169.37" width="31.31" height="2.8"/><rect class="cls-16" x="11.89" y="202.03" width="4.2" height="2.73"/><rect class="cls-16" x="11.84" y="188.35" width="4.19" height="2.73"/><rect class="cls-16" x="11.84" y="183.53" width="4.19" height="2.73"/><rect class="cls-16" x="11.84" y="178.7" width="4.19" height="2.73"/><rect class="cls-16" x="11.84" y="169.05" width="4.19" height="2.73"/><rect class="cls-16" x="11.84" y="164.22" width="4.19" height="2.73"/><rect class="cls-16" x="11.84" y="159.4" width="4.19" height="2.73"/><rect class="cls-16" x="11.84" y="149.75" width="4.19" height="2.73"/><rect class="cls-16" x="11.84" y="144.92" width="4.19" height="2.73"/><rect class="cls-16" x="11.84" y="140.1" width="4.19" height="2.73"/><rect class="cls-16" x="11.84" y="135.27" width="4.19" height="2.73"/><rect class="cls-16" x="11.84" y="130.44" width="4.19" height="2.73"/><rect class="cls-16" x="11.84" y="125.62" width="4.19" height="2.73"/><rect class="cls-16" x="11.84" y="120.79" width="4.19" height="2.73"/><rect class="cls-16" x="11.84" y="115.97" width="4.19" height="2.73"/><rect class="cls-16" x="11.84" y="111.14" width="4.19" height="2.73"/><rect class="cls-16" x="11.84" y="106.32" width="4.19" height="2.73"/><rect class="cls-16" x="11.84" y="101.49" width="4.19" height="2.73"/><rect class="cls-16" x="11.84" y="96.66" width="4.19" height="2.73"/><rect class="cls-16" x="11.84" y="91.84" width="4.19" height="2.73"/><rect class="cls-16" x="11.84" y="82.19" width="4.19" height="2.73"/><rect class="cls-16" x="11.89" y="211.7" width="4.2" height="2.73"/><rect class="cls-16" x="11.89" y="216.44" width="4.2" height="2.73"/><rect class="cls-16" x="11.84" y="192.7" width="4.19" height="2.73"/><rect class="cls-16" x="11.89" y="197.36" width="4.2" height="2.73"/><rect class="cls-16" x="11.89" y="206.46" width="4.2" height="2.73"/><rect class="cls-17" x="17.4" y="82.19" width="44.61" height="2.73"/><rect class="cls-10" x="64.01" y="82.19" width="66.84" height="2.73"/><rect class="cls-10" x="24.04" y="91.84" width="105.53" height="2.73"/><rect class="cls-10" x="42.58" y="100.76" width="59.49" height="2.73"/><rect class="cls-10" x="17.51" y="86.56" width="6.53" height="2.73"/><rect class="cls-10" x="48.41" y="130.44" width="15.59" height="2.73"/><rect class="cls-10" x="47.26" y="211.7" width="4.42" height="2.73"/><rect class="cls-10" x="73.26" y="211.7" width="4.41" height="2.73"/><rect class="cls-17" x="17.4" y="100.76" width="24.22" height="2.73"/><rect class="cls-17" x="20.31" y="106.32" width="13.47" height="2.73"/><rect class="cls-17" x="22.77" y="111.14" width="25.58" height="2.73"/><rect class="cls-17" x="22.77" y="120.79" width="11.02" height="2.73"/><rect class="cls-18" x="36.11" y="120.79" width="78.71" height="2.73"/><rect class="cls-18" x="35.44" y="130.44" width="11.82" height="2.73"/><rect class="cls-18" x="18.87" y="139.76" width="15.65" height="2.73"/><rect class="cls-18" x="18.87" y="144.92" width="15.65" height="2.73"/><rect class="cls-18" x="19.22" y="149.53" width="15.65" height="2.73"/><rect class="cls-18" x="94.97" y="149.53" width="15.65" height="2.73"/><rect class="cls-18" x="18.87" y="159.4" width="15.65" height="2.73"/><rect class="cls-18" x="18.87" y="164.22" width="9.37" height="2.73"/><rect class="cls-18" x="18.87" y="169.05" width="14.92" height="2.73"/><rect class="cls-18" x="95.34" y="169.05" width="14.92" height="2.73"/><rect class="cls-18" x="18.32" y="178.7" width="14.92" height="2.73"/><rect class="cls-18" x="63.47" y="178.7" width="14.92" height="2.73"/><rect class="cls-18" x="18.32" y="183.53" width="8.22" height="2.73"/><rect class="cls-17" x="117.46" y="120.79" width="11.02" height="2.73"/><rect class="cls-17" x="37.34" y="139.76" width="11.02" height="2.73"/><rect class="cls-17" x="22.77" y="130.44" width="11.02" height="2.73"/><rect class="cls-17" x="69.95" y="149.53" width="21.6" height="2.73"/><rect class="cls-17" x="112.17" y="149.53" width="18.68" height="2.73"/><rect class="cls-17" x="69.95" y="169.05" width="22.47" height="2.73"/><rect class="cls-17" x="111.73" y="169.05" width="17.83" height="2.73"/><rect class="cls-2" x="51" y="139.76" width="15.57" height="2.73"/><rect class="cls-2" x="51" y="144.92" width="15.57" height="2.73"/><rect class="cls-2" x="51" y="149.53" width="15.57" height="2.73"/><rect class="cls-17" x="37.34" y="144.92" width="11.02" height="2.73"/><rect class="cls-17" x="37.34" y="149.53" width="11.02" height="2.73"/><rect class="cls-2" x="43.89" y="164.22" width="15.57" height="2.73"/><rect class="cls-2" x="49.67" y="158.66" width="15.57" height="2.73"/><rect class="cls-17" x="30.24" y="164.22" width="11.01" height="2.73"/><rect class="cls-2" x="50.72" y="169.05" width="15.57" height="2.73"/><rect class="cls-17" x="37.06" y="169.05" width="11.02" height="2.73"/><rect class="cls-2" x="41.89" y="183.53" width="15.57" height="2.73"/><rect class="cls-17" x="28.23" y="183.53" width="11.02" height="2.73"/><rect class="cls-17" x="37.06" y="178.7" width="23.49" height="2.73"/><rect class="cls-17" x="79.81" y="178.7" width="17.89" height="2.73"/><rect class="cls-17" x="22.77" y="192.7" width="16.48" height="2.73"/><rect class="cls-17" x="19.99" y="197.36" width="16.48" height="2.73"/><rect class="cls-17" x="19.99" y="206.46" width="16.48" height="2.73"/><rect class="cls-17" x="22.77" y="211.7" width="22.85" height="2.73"/><rect class="cls-17" x="53.82" y="211.7" width="18.21" height="2.73"/><rect class="cls-17" x="79.65" y="211.7" width="41.85" height="2.73"/><rect class="cls-17" x="37.34" y="158.66" width="11.02" height="2.73"/><rect class="cls-9" x="140.47" y="66.75" width="3.52" height="193.51"/><path class="cls-14" d="M27,56.43a3.16,3.16,0,1,1-3.16-3.16A3.17,3.17,0,0,1,27,56.43Z"/><path class="cls-14" d="M35.05,56.43a3.16,3.16,0,1,1-3.16-3.16A3.16,3.16,0,0,1,35.05,56.43Z"/><path class="cls-14" d="M18.72,56.43a3.16,3.16,0,1,1-3.16-3.16A3.16,3.16,0,0,1,18.72,56.43Z"/></g><path class="cls-2" d="M154,378.6h-3.4V62a44.47,44.47,0,0,1,2-14.86c3.34-10.2,10.35-16,20.26-16.85l.29,3.39c-8.54.71-14.36,5.57-17.29,14.44A41.29,41.29,0,0,0,154,61.81V378.6Z"/><path class="cls-2" d="M158.06,26.28A24.59,24.59,0,1,0,182.65,1.7,24.58,24.58,0,0,0,158.06,26.28Z"/><path class="cls-2" d="M182.65,52.56a26.28,26.28,0,1,1,26.28-26.28A26.31,26.31,0,0,1,182.65,52.56Zm0-49.16a22.88,22.88,0,1,0,22.88,22.88A22.92,22.92,0,0,0,182.65,3.4Z"/><path d="M168.65,37.32h-1V15.21h4a4.89,4.89,0,0,1,3.9,1.45A6.47,6.47,0,0,1,176.76,21a6.46,6.46,0,0,1-1.25,4.32,4.86,4.86,0,0,1-3.9,1.45h-3Zm0-11.58h3a4,4,0,0,0,3.14-1.11,5.64,5.64,0,0,0,1-3.64,5.54,5.54,0,0,0-1-3.66,4,4,0,0,0-3.14-1.1h-3Z"/><path d="M187.54,15.21V37.32h-1V26.79H179.8V37.32h-1V15.21h1V25.77h6.69V15.21Z"/><path d="M191.09,37.32h-1V15.21h4a4.89,4.89,0,0,1,3.9,1.45A6.47,6.47,0,0,1,199.19,21a6.46,6.46,0,0,1-1.25,4.32,4.86,4.86,0,0,1-3.9,1.45h-2.95Zm0-11.58H194a4,4,0,0,0,3.15-1.11,5.71,5.71,0,0,0,.95-3.64,5.6,5.6,0,0,0-.95-3.66,4,4,0,0,0-3.15-1.1h-2.95Z"/><path class="cls-2" d="M152.33,278S151,244.2,189.05,239.66C189.05,239.66,188.22,276.36,152.33,278Z"/><path class="cls-2" d="M153.13,61.16s-23.24.9-26.36-25.25C126.77,35.91,152,36.48,153.13,61.16Z"/><path class="cls-2" d="M172.68,59.06s.72,18.4-20,20.87C152.69,79.93,153.14,60,172.68,59.06Z"/><path class="cls-2" d="M217.62,186.48a28.58,28.58,0,1,1-28.57-28.57A28.57,28.57,0,0,1,217.62,186.48Z"/><path class="cls-2" d="M145.91,292.84h-3.4V209.1c-.11-1.2-.89-12.36,5.3-19.18,3.09-3.41,7.35-5.14,12.66-5.14v3.41c-4.3,0-7.71,1.34-10.13,4-5.39,5.94-4.45,16.56-4.44,16.66v84Z"/><path class="cls-2" d="M189.05,216.76a30.28,30.28,0,1,1,30.27-30.28A30.31,30.31,0,0,1,189.05,216.76Zm0-57.15a26.88,26.88,0,1,0,26.87,26.87A26.91,26.91,0,0,0,189.05,159.61Z"/><path d="M178.1,197.45a6.31,6.31,0,0,1-1.65-.23,3.53,3.53,0,0,1-1.52-.89,4.73,4.73,0,0,1-1.12-1.78,8.65,8.65,0,0,1-.42-3V181.21a8.64,8.64,0,0,1,.42-2.94,4.62,4.62,0,0,1,1.12-1.79,3.57,3.57,0,0,1,1.52-.86,5.92,5.92,0,0,1,1.65-.23,5.81,5.81,0,0,1,1.62.23,3.57,3.57,0,0,1,1.52.86,4.62,4.62,0,0,1,1.12,1.79,8.64,8.64,0,0,1,.42,2.94v.53h-1.05v-.53a5.86,5.86,0,0,0-.91-3.66,3.83,3.83,0,0,0-5.47,0,5.86,5.86,0,0,0-.91,3.66v10.38a5.9,5.9,0,0,0,.94,3.7,3.23,3.23,0,0,0,2.72,1.14,3.35,3.35,0,0,0,2.72-1.14,6.13,6.13,0,0,0,.91-3.7v-.53h1.05v.53a8.65,8.65,0,0,1-.42,3,4.73,4.73,0,0,1-1.12,1.78,3.53,3.53,0,0,1-1.52.89A6.21,6.21,0,0,1,178.1,197.45Z"/><path d="M189.43,197.41a4.22,4.22,0,0,1-3.54-1.5,6.61,6.61,0,0,1-1.18-4.32v-.49h1v.49a7.46,7.46,0,0,0,.36,2.58,3.56,3.56,0,0,0,.9,1.44,2.57,2.57,0,0,0,1.19.64,5.6,5.6,0,0,0,1.25.15,3.29,3.29,0,0,0,2.73-1.23,5.43,5.43,0,0,0,1-3.42,4.26,4.26,0,0,0-.41-2,4.64,4.64,0,0,0-1-1.32,4.7,4.7,0,0,0-1.19-.82c-.42-.2-.76-.35-1-.46l-.55-.23a13.22,13.22,0,0,1-1.21-.57,5.76,5.76,0,0,1-1.4-1.05,6.41,6.41,0,0,1-1.16-1.67,5.58,5.58,0,0,1-.49-2.44,6.82,6.82,0,0,1,1.15-4.09,4.2,4.2,0,0,1,3.57-1.77,4.34,4.34,0,0,1,3.56,1.54,6.78,6.78,0,0,1,1.18,4.32v.53h-1v-.53a5.91,5.91,0,0,0-1-3.7,3.29,3.29,0,0,0-2.74-1.11,3.14,3.14,0,0,0-2.72,1.34,5.7,5.7,0,0,0-1,3.47,4.63,4.63,0,0,0,.39,2,4.8,4.8,0,0,0,1,1.37,5.32,5.32,0,0,0,1.2.89,10.49,10.49,0,0,0,1.11.52l.53.23q.42.17,1.14.51a5.62,5.62,0,0,1,1.41,1,5.49,5.49,0,0,1,1.19,1.62,5.19,5.19,0,0,1,.51,2.42,6.33,6.33,0,0,1-1.18,4A4.21,4.21,0,0,1,189.43,197.41Z"/><path d="M200.81,197.41a4.22,4.22,0,0,1-3.53-1.5,6.61,6.61,0,0,1-1.18-4.32v-.49h1v.49a7.46,7.46,0,0,0,.36,2.58,3.56,3.56,0,0,0,.9,1.44,2.57,2.57,0,0,0,1.19.64,5.59,5.59,0,0,0,1.24.15,3.29,3.29,0,0,0,2.74-1.23,5.43,5.43,0,0,0,1-3.42,4.26,4.26,0,0,0-.41-2,4.64,4.64,0,0,0-1-1.32,4.7,4.7,0,0,0-1.19-.82c-.42-.2-.76-.35-1-.46l-.55-.23a13.23,13.23,0,0,1-1.22-.57,5.72,5.72,0,0,1-1.39-1.05,6.41,6.41,0,0,1-1.16-1.67,5.44,5.44,0,0,1-.49-2.44,6.82,6.82,0,0,1,1.15-4.09,4.19,4.19,0,0,1,3.56-1.77,4.34,4.34,0,0,1,3.57,1.54,6.78,6.78,0,0,1,1.18,4.32v.53h-1.05v-.53a5.91,5.91,0,0,0-.95-3.7,3.3,3.3,0,0,0-2.75-1.11,3.13,3.13,0,0,0-2.71,1.34,5.7,5.7,0,0,0-1,3.47,4.63,4.63,0,0,0,.39,2,4.8,4.8,0,0,0,1,1.37,5.1,5.1,0,0,0,1.2.89,10.49,10.49,0,0,0,1.11.52l.52.23c.29.11.67.28,1.15.51a5.68,5.68,0,0,1,2.6,2.6,5.19,5.19,0,0,1,.51,2.42,6.33,6.33,0,0,1-1.18,4A4.22,4.22,0,0,1,200.81,197.41Z"/><path class="cls-2" d="M136.56,379.88h-3.4V86.69c0-.12,1-12.38-4.89-18.82A12.54,12.54,0,0,0,118.6,64v-3.4a15.78,15.78,0,0,1,12.2,5c6.71,7.33,5.86,20.07,5.76,21.32Z"/><circle class="cls-2" cx="105.27" cy="62.84" r="17.36"/><path class="cls-2" d="M105.27,81.9a19.07,19.07,0,1,1,19.06-19.06A19.08,19.08,0,0,1,105.27,81.9Zm0-34.73a15.67,15.67,0,1,0,15.66,15.67A15.68,15.68,0,0,0,105.27,47.17Z"/><path d="M98.25,69.5a3.89,3.89,0,0,1-1-.14,2.11,2.11,0,0,1-.93-.54,2.93,2.93,0,0,1-.67-1.08,5.28,5.28,0,0,1-.26-1.8V59.63a5.29,5.29,0,0,1,.26-1.79,2.85,2.85,0,0,1,.67-1.08,2.29,2.29,0,0,1,.93-.53,3.61,3.61,0,0,1,2,0,2.26,2.26,0,0,1,.92.53,2.75,2.75,0,0,1,.68,1.08,5.29,5.29,0,0,1,.26,1.79V60h-.64v-.32a3.48,3.48,0,0,0-.56-2.22,2,2,0,0,0-1.65-.7,2,2,0,0,0-1.67.7A3.55,3.55,0,0,0,96,59.63v6.31a3.56,3.56,0,0,0,.57,2.24,1.94,1.94,0,0,0,1.65.7,2,2,0,0,0,1.65-.7,3.62,3.62,0,0,0,.56-2.24v-.32h.64v.32a5.28,5.28,0,0,1-.26,1.8,2.82,2.82,0,0,1-.68,1.08,2.08,2.08,0,0,1-.92.54A3.87,3.87,0,0,1,98.25,69.5Z"/><path d="M108.75,63.17h-2.9v2.91h-.64V63.17h-2.9v-.63h2.9V59.63h.64v2.91h2.9Z"/><path d="M116.39,63.17h-2.9v2.91h-.64V63.17H110v-.63h2.9V59.63h.64v2.91h2.9Z"/><path class="cls-2" d="M145.91,378.6h-3.4V236.75c0-.19.81-19.53-7-27.7a10.87,10.87,0,0,0-8.23-3.5v-3.4A14.24,14.24,0,0,1,138,206.71c8.69,9.11,8,28.84,7.93,30.16Z"/><circle class="cls-2" cx="109.93" cy="203.85" r="17.36"/><path class="cls-2" d="M109.93,222.91A19.07,19.07,0,1,1,129,203.85,19.08,19.08,0,0,1,109.93,222.91Zm0-34.72a15.66,15.66,0,1,0,15.66,15.66A15.68,15.68,0,0,0,109.93,188.19Z"/><path d="M105.89,194.44h2v11.15c0,4.43-2.07,5.79-4.79,5.79A6.4,6.4,0,0,1,101,211l.31-1.76a4.69,4.69,0,0,0,1.71.32c1.83,0,2.91-.86,2.91-4.13Z"/><path d="M110.78,209a5.74,5.74,0,0,0,3,.88c1.7,0,2.69-1,2.69-2.32s-.69-2-2.43-2.69c-2.1-.79-3.4-1.94-3.4-3.85,0-2.12,1.66-3.69,4.17-3.69a5.55,5.55,0,0,1,2.85.67l-.46,1.43a4.94,4.94,0,0,0-2.45-.65c-1.76,0-2.43,1.11-2.43,2,0,1.27.79,1.89,2.56,2.62,2.18.88,3.29,2,3.29,4s-1.47,3.91-4.51,3.91a6.45,6.45,0,0,1-3.29-.86Z"/><path class="cls-2" d="M145.91,292.84h-3.4V201.26c0-.13,1-12.38-4.89-18.82a12.55,12.55,0,0,0-9.68-3.91v-3.4a15.83,15.83,0,0,1,12.2,5c6.71,7.34,5.86,20.08,5.76,21.33Z"/><path class="cls-2" d="M83.87,130.21a46.55,46.55,0,1,0,46.54-46.54A46.55,46.55,0,0,0,83.87,130.21Z"/><path class="cls-2" d="M130.41,178.46a48.24,48.24,0,1,1,34.12-14.13A47.94,47.94,0,0,1,130.41,178.46Zm0-93.09a44.85,44.85,0,1,0,44.85,44.84A44.9,44.9,0,0,0,130.41,85.37Z"/><path d="M103.49,111.7v15h9.08v-15H115v35.93h-2.45V130.78h-9.08v16.85h-2.43V111.7Z"/><path d="M122.79,115.64h-5.71V111.7H131v3.94h-5.74v32h-2.46Z"/><path d="M148.9,131.85c-.14-5-.31-11-.28-15.51h-.08c-.64,4.21-1.42,8.68-2.37,13.64l-3.32,17.44H141l-3-17.12c-.89-5.06-1.64-9.7-2.17-14h-.06c-.06,4.47-.19,10.5-.36,15.88l-.5,15.41h-2.32l1.31-35.93H137l3.2,17.38c.78,4.42,1.42,8.37,1.89,12.1h.09c.47-3.63,1.14-7.57,2-12.1l3.34-17.38h3.09l1.17,35.93h-2.37Z"/><path d="M155.48,111.7h2.42v32h8v3.89H155.48Z"/><path class="cls-2" d="M135.77,299.8s-18.4.71-20.87-20C114.9,279.8,134.88,280.25,135.77,299.8Z"/><polygon class="cls-19" points="269.41 405.76 13.27 405.76 18.22 308.75 262.14 308.92 271.19 318.28 269.41 405.76"/><polygon class="cls-9" points="267.8 403.41 13.27 401.24 18.22 308.75 262.14 308.92 267.8 403.41"/><polygon class="cls-16" points="13.27 401.24 13.27 405.76 269.41 405.76 267.8 403.41 13.27 401.24"/><polygon class="cls-11" points="30.36 313.36 21.91 313.36 21.75 318.58 30.36 318.58 30.36 313.36"/><polygon class="cls-11" points="41.42 313.36 32.97 313.36 32.8 318.58 41.42 318.58 41.42 313.36"/><polygon class="cls-11" points="52.47 313.36 44.02 313.36 43.86 318.58 52.47 318.58 52.47 313.36"/><polygon class="cls-11" points="63.53 313.36 55.08 313.36 54.91 318.58 63.53 318.58 63.53 313.36"/><polygon class="cls-11" points="74.58 313.36 66.14 313.36 65.97 318.58 74.58 318.58 74.58 313.36"/><polygon class="cls-11" points="85.64 313.36 77.19 313.36 77.03 318.58 85.64 318.58 85.64 313.36"/><polygon class="cls-11" points="96.7 313.36 88.25 313.36 88.08 318.58 96.7 318.58 96.7 313.36"/><polygon class="cls-11" points="107.75 313.36 99.3 313.36 99.14 318.58 107.75 318.58 107.75 313.36"/><polygon class="cls-11" points="118.81 313.36 110.36 313.36 110.19 318.58 118.81 318.58 118.81 313.36"/><polygon class="cls-11" points="129.86 313.36 121.41 313.36 121.25 318.58 129.86 318.58 129.86 313.36"/><polygon class="cls-11" points="140.92 313.36 132.47 313.36 132.31 318.58 140.92 318.58 140.92 313.36"/><polygon class="cls-11" points="151.98 313.36 143.52 313.36 143.36 318.58 151.98 318.58 151.98 313.36"/><polygon class="cls-11" points="163.03 313.36 154.58 313.36 154.42 318.58 163.03 318.58 163.03 313.36"/><polygon class="cls-11" points="174.09 313.36 165.64 313.36 165.47 318.58 174.09 318.58 174.09 313.36"/><polygon class="cls-11" points="75.48 321.09 75.34 332.47 85.14 332.47 85.27 321.09 75.48 321.09"/><polygon class="cls-11" points="86.69 321.09 86.64 332.47 96.14 332.47 96.3 321.09 86.69 321.09"/><polygon class="cls-11" points="108.79 321.09 108.75 332.47 116.89 332.47 117.02 321.09 108.79 321.09"/><polygon class="cls-11" points="128.4 321.09 128.35 332.47 136.17 332.47 136.3 321.09 128.4 321.09"/><polygon class="cls-11" points="118.54 321.09 118.49 332.47 126.71 332.47 126.83 321.09 118.54 321.09"/><polygon class="cls-11" points="97.81 321.09 97.76 332.47 107.17 332.47 107.3 321.09 97.81 321.09"/><polygon class="cls-11" points="21.72 321.09 21.72 332.47 30.07 332.47 30.2 321.09 21.72 321.09"/><polygon class="cls-11" points="147.23 321.09 147.18 332.47 156.6 332.47 156.73 321.09 147.23 321.09"/><polygon class="cls-11" points="31.62 321.09 31.57 332.47 41.09 332.47 41.22 321.09 31.62 321.09"/><polygon class="cls-11" points="42.63 321.09 42.59 332.47 52.1 332.47 52.23 321.09 42.63 321.09"/><polygon class="cls-11" points="137.86 321.09 137.82 332.47 145.53 332.47 145.65 321.09 137.86 321.09"/><polygon class="cls-11" points="170.48 321.09 168.6 321.09 158.34 321.09 158.28 332.47 168.56 332.47 170.3 332.47 174.77 332.47 174.77 321.09 170.48 321.09"/><polygon class="cls-11" points="64.59 321.09 64.5 332.47 74.13 332.47 74.25 321.09 64.59 321.09"/><polygon class="cls-11" points="53.51 321.09 53.39 332.47 63.12 332.47 63.24 321.09 53.51 321.09"/><polygon class="cls-11" points="21.88 335.42 21.72 336.39 21.72 346.81 37.19 346.81 37.67 335.42 21.88 335.42"/><polygon class="cls-11" points="112.78 335.42 112.6 346.81 121.4 346.81 121.87 335.42 112.78 335.42"/><polygon class="cls-11" points="38.95 335.42 38.78 346.81 48.25 346.81 48.72 335.42 38.95 335.42"/><polygon class="cls-11" points="50.03 335.42 49.85 346.81 58.72 346.81 59.19 335.42 50.03 335.42"/><polygon class="cls-11" points="123.22 335.42 123.04 346.81 131.81 346.81 132.27 335.42 123.22 335.42"/><polygon class="cls-11" points="174.77 335.42 164.99 335.42 164.79 346.81 174.77 346.81 174.77 335.42"/><polygon class="cls-11" points="60.5 335.42 60.32 346.81 69.19 346.81 69.65 335.42 60.5 335.42"/><polygon class="cls-11" points="144.37 335.42 144.25 346.81 152.71 346.81 153.21 335.42 144.37 335.42"/><polygon class="cls-11" points="154.49 335.42 154.12 346.81 163.26 346.81 163.66 335.42 154.49 335.42"/><polygon class="cls-11" points="133.71 335.42 133.67 346.81 142.5 346.81 142.96 335.42 133.71 335.42"/><polygon class="cls-11" points="102.3 335.42 102.12 346.81 110.97 346.81 111.44 335.42 102.3 335.42"/><polygon class="cls-11" points="81.43 335.42 81.25 346.81 90.05 346.81 90.51 335.42 81.43 335.42"/><polygon class="cls-11" points="70.96 335.42 70.79 346.81 79.65 346.81 80.12 335.42 70.96 335.42"/><polygon class="cls-11" points="91.83 335.42 91.66 346.81 100.49 346.81 100.95 335.42 91.83 335.42"/><polygon class="cls-11" points="22.27 349.55 22.27 360.93 43.83 360.93 44.18 349.55 22.27 349.55"/><polygon class="cls-11" points="175.32 335.42 171.17 335.42 171.03 360.93 175.32 360.93 175.32 335.42"/><polygon class="cls-11" points="108.97 349.55 108.84 360.93 117.98 360.93 118.34 349.55 108.97 349.55"/><polygon class="cls-11" points="66.59 349.55 66.46 360.93 75.61 360.93 75.96 349.55 66.59 349.55"/><polygon class="cls-11" points="56 349.55 55.87 360.93 65.01 360.93 65.37 349.55 56 349.55"/><polygon class="cls-11" points="45.4 349.55 45.27 360.93 54.42 360.93 54.77 349.55 45.4 349.55"/><polygon class="cls-11" points="77.19 349.55 77.06 360.93 86.2 360.93 86.56 349.55 77.19 349.55"/><polygon class="cls-11" points="119.56 349.55 119.43 360.93 128.61 360.93 128.96 349.55 119.56 349.55"/><polygon class="cls-11" points="98.38 349.55 98.24 360.93 107.39 360.93 107.74 349.55 98.38 349.55"/><polygon class="cls-11" points="87.78 349.55 87.65 360.93 96.8 360.93 97.15 349.55 87.78 349.55"/><polygon class="cls-11" points="130.21 349.55 130.08 360.93 139.1 360.93 139.45 349.55 130.21 349.55"/><polygon class="cls-11" points="151.37 349.55 151.24 360.93 160.24 360.93 160.59 349.55 151.37 349.55"/><polygon class="cls-11" points="161.86 349.55 161.73 360.93 169.54 360.93 169.89 349.55 161.86 349.55"/><polygon class="cls-11" points="140.71 349.55 140.57 360.93 149.76 360.93 150.12 349.55 140.71 349.55"/><polygon class="cls-11" points="38.31 363.64 38.17 375.03 46.75 375.03 47.13 363.64 38.31 363.64"/><polygon class="cls-11" points="58.28 363.64 58.14 375.03 66.72 375.03 67.11 363.64 58.28 363.64"/><polygon class="cls-11" points="118.27 363.64 118.13 375.03 126.71 375.03 127.1 363.64 118.27 363.64"/><polygon class="cls-11" points="128.3 363.64 128.16 375.03 136.7 375.03 137.08 363.64 128.3 363.64"/><rect class="cls-11" x="21.9" y="363.65" width="14.85" height="11.38"/><polygon class="cls-11" points="138.28 363.64 138.14 375.03 146.68 375.03 147.07 363.64 138.28 363.64"/><polygon class="cls-11" points="48.29 363.64 48.15 375.03 56.74 375.03 57.12 363.64 48.29 363.64"/><polygon class="cls-11" points="174.95 363.64 159.09 363.64 158.95 375.03 174.95 375.03 174.95 363.64"/><polygon class="cls-11" points="88.24 363.64 88.1 375.03 96.61 375.03 96.99 363.64 88.24 363.64"/><polygon class="cls-11" points="98.18 363.64 98.04 375.03 106.83 375.03 107.22 363.64 98.18 363.64"/><polygon class="cls-11" points="149.96 363.64 149.64 375.03 159.82 375.03 160.5 363.64 149.96 363.64"/><polygon class="cls-11" points="108.4 363.64 108.26 375.03 116.7 375.03 117.08 363.64 108.4 363.64"/><polygon class="cls-11" points="68.26 363.64 68.12 375.03 76.71 375.03 77.09 363.64 68.26 363.64"/><polygon class="cls-11" points="78.25 363.64 78.11 375.03 86.7 375.03 87.08 363.64 78.25 363.64"/><polygon class="cls-11" points="36.99 379.25 36.92 393.95 45.09 393.99 45.27 379.25 36.99 379.25"/><polygon class="cls-11" points="155.46 378.72 155.39 393.9 164.31 393.95 164.49 378.72 155.46 378.72"/><polygon class="cls-11" points="166.21 378.79 166.14 393.98 175.05 394.02 175.24 378.79 166.21 378.79"/><polygon class="cls-11" points="27.39 379.25 27.32 393.89 35.48 393.94 35.66 379.25 27.39 379.25"/><polygon class="cls-11" points="26.05 379.25 22.48 379.25 22.48 393.88 25.92 393.89 25.88 393.74 26.05 379.25"/><polygon class="cls-11" points="154.12 378.72 146.17 378.72 146.1 393.85 154.13 393.9 153.94 393.21 154.12 378.72"/><polygon class="cls-11" points="192.76 378.73 192.69 393.92 201.61 393.96 201.8 378.73 192.76 378.73"/><polygon class="cls-11" points="203.52 378.8 203.45 393.99 212.36 394.03 212.55 378.8 203.52 378.8"/><polygon class="cls-11" points="191.43 378.73 183.48 378.73 183.41 393.87 191.44 393.91 191.25 393.22 191.43 378.73"/><polygon class="cls-11" points="57.46 379.25 46.58 379.25 46.51 393.99 57.46 394.05 57.46 379.25"/><polygon class="cls-11" points="58.99 379.25 58.99 394.06 142.83 394.38 143.02 379.25 58.99 379.25"/><polygon class="cls-11" points="189.96 335.15 189.96 335.15 182.1 335.15 182.01 346.18 191.27 346.18 191.36 335.15 189.96 335.15"/><polygon class="cls-11" points="192.78 335.15 192.71 346.18 201.97 346.18 202.06 335.15 192.78 335.15"/><polygon class="cls-11" points="203.53 335.15 203.46 346.18 212.32 346.18 212.32 335.15 203.53 335.15"/><polygon class="cls-11" points="189.96 321.07 189.96 321.07 182.1 321.07 182.09 332.47 191.35 332.47 191.36 321.07 189.96 321.07"/><polygon class="cls-11" points="192.78 321.07 192.79 332.47 202.05 332.47 202.06 321.07 192.78 321.07"/><polygon class="cls-11" points="203.53 321.07 203.54 332.47 212.4 332.47 212.32 321.07 203.53 321.07"/><polygon class="cls-11" points="190.12 313.52 190.12 313.52 182.26 313.52 182.18 318.58 191.44 318.58 191.52 313.52 190.12 313.52"/><polygon class="cls-11" points="192.95 313.52 192.87 318.58 202.13 318.58 202.22 313.52 192.95 313.52"/><polygon class="cls-11" points="203.69 313.52 203.62 318.58 212.48 318.58 212.48 313.52 203.69 313.52"/><polygon class="cls-11" points="225.92 335.17 225.92 335.17 218.06 335.17 217.98 346.19 227.24 346.19 227.32 335.17 225.92 335.17"/><polygon class="cls-11" points="228.75 335.17 228.68 346.19 237.94 346.19 238.02 335.17 228.75 335.17"/><polygon class="cls-11" points="239.49 335.17 239.42 346.19 248.28 346.19 248.28 335.17 239.49 335.17"/><polygon class="cls-11" points="225.92 321.09 225.92 321.09 218.06 321.09 218.06 332.49 227.32 332.49 227.32 321.09 225.92 321.09"/><polygon class="cls-11" points="228.75 321.09 228.76 332.49 238.01 332.49 238.02 321.09 228.75 321.09"/><polygon class="cls-11" points="239.49 321.09 239.5 332.49 248.37 332.49 248.28 321.09 239.49 321.09"/><polygon class="cls-11" points="226.09 313.54 226.09 313.54 218.23 313.54 218.14 318.6 227.4 318.6 227.49 313.54 226.09 313.54"/><polygon class="cls-11" points="228.91 313.54 228.84 318.6 238.1 318.6 238.19 313.54 228.91 313.54"/><polygon class="cls-11" points="239.66 313.54 239.59 318.6 248.45 318.6 248.45 313.54 239.66 313.54"/><polygon class="cls-11" points="249.62 335.17 249.55 346.19 258.41 346.19 258.41 335.17 249.62 335.17"/><polygon class="cls-11" points="249.62 321.09 249.63 332.49 258.49 332.49 258.41 321.09 249.62 321.09"/><polygon class="cls-11" points="225.87 365.84 225.87 365.84 218.01 365.84 217.93 376.87 227.19 376.87 227.27 365.84 225.87 365.84"/><polygon class="cls-11" points="228.7 365.84 228.63 376.87 237.88 376.87 237.97 365.84 228.7 365.84"/><polygon class="cls-11" points="239.45 365.84 239.38 376.87 248.24 376.87 248.24 365.84 239.45 365.84"/><polygon class="cls-11" points="239.45 378.73 239.38 393.96 248.24 393.96 248.24 378.73 239.45 378.73"/><polygon class="cls-11" points="249.78 365.84 249.71 393.96 258.57 393.96 258.57 365.84 249.78 365.84"/><polygon class="cls-11" points="218.14 378.7 217.93 394.03 237.94 393.93 237.94 378.7 218.14 378.7"/><polygon class="cls-11" points="225.87 349.19 225.87 349.19 218.01 349.19 218.01 363.16 227.27 363.16 227.27 349.19 225.87 349.19"/><polygon class="cls-11" points="228.7 349.19 228.71 363.16 237.97 363.16 237.97 349.19 228.7 349.19"/><polygon class="cls-11" points="239.44 349.19 239.46 363.16 248.32 363.16 248.24 349.19 239.44 349.19"/><polygon class="cls-11" points="249.57 349.19 249.58 363.16 258.44 363.16 258.36 349.19 249.57 349.19"/><polygon class="cls-11" points="249.78 313.54 249.71 318.6 258.57 318.6 258.57 313.54 249.78 313.54"/><polygon class="cls-11" points="201.84 376.99 201.91 364.87 193.04 364.87 192.98 376.99 201.84 376.99"/></g></g></svg>