<svg xmlns="http://www.w3.org/2000/svg" viewBox="0 0 337.251 118.106">
  <defs>
    <style>
      .cls-1 {
        fill: #fff;
      }

      .cls-1, .cls-2 {
        fill-rule: evenodd;
      }

      .cls-2 {
        fill: #9283be;
      }
    </style>
  </defs>
  <title>info-polus-logo-eng-2</title>
  <g id="Page_1" data-name="Page 1">
    <g id="Layer_1-2" data-name="Layer 1">
      <g>
        <path class="cls-1" d="M91.036,18.435v5.412h12.236V18.435a6.183,6.183,0,0,1,.557-2.726q.557-1.143,1.378-1.144H89.1q.822,0,1.378,1.085a6.094,6.094,0,0,1,.557,2.785Zm0,7.64v42.09h12.236V26.074Zm28.746.1h-11.2q.587,0,1,.821a4.42,4.42,0,0,1,.41,1.994V54.317a4.665,4.665,0,0,1-.381,2.023,1.155,1.155,0,0,1-1.026.792h14.365q-.527,0-.939-.851A4.763,4.763,0,0,1,121.6,54.2V33.737a2.748,2.748,0,0,1,.763-1.935,2.525,2.525,0,0,1,1.935-.821h8.15a2.581,2.581,0,0,1,1.876.821,2.647,2.647,0,0,1,.821,1.935V54.317a4.665,4.665,0,0,1-.382,2.023,1.154,1.154,0,0,1-1.026.792H148.1q-.527,0-.938-.851a4.757,4.757,0,0,1-.41-2.081V31.919a5.607,5.607,0,0,0-1.671-4.016,5.383,5.383,0,0,0-4.017-1.73h-16.71a2.457,2.457,0,0,0-1.877,1.084,3.312,3.312,0,0,0-.88,2.023,6.994,6.994,0,0,0-.176-1.994,1.6,1.6,0,0,0-1.641-1.113Zm28.144,0v4.808h6.743V54.317a4.665,4.665,0,0,1-.381,2.023,1.154,1.154,0,0,1-1.026.792h14.365a1.1,1.1,0,0,1-1-.792,5.355,5.355,0,0,1-.352-2.14V30.982h11.668V26.174H166.278v-4.1a2.954,2.954,0,0,1,.645-1.876,1.852,1.852,0,0,1,1.466-.821H174.9a5.249,5.249,0,0,1,2.522.7,4.4,4.4,0,0,1,1,.7l-.938-6.214H161a5.927,5.927,0,0,0-4.485,1.964,6.8,6.8,0,0,0-1.847,4.837v4.808Zm36.813,0a5.458,5.458,0,0,0-3.987,1.7,5.526,5.526,0,0,0-1.7,4.046V51.385a5.605,5.605,0,0,0,1.671,4.016,5.385,5.385,0,0,0,4.017,1.73h27.205a5.806,5.806,0,0,0,5.746-5.746V31.919a5.805,5.805,0,0,0-5.746-5.745Zm8.619,4.808h10.026a2.584,2.584,0,0,1,1.877.821,2.646,2.646,0,0,1,.821,1.935v15.83a2.7,2.7,0,0,1-2.7,2.7H193.358a2.7,2.7,0,0,1-2.7-2.7V33.737a2.748,2.748,0,0,1,.763-1.935,2.525,2.525,0,0,1,1.935-.821Z"/>
        <path class="cls-2" d="M1.935,91.048a6.175,6.175,0,0,1-.557,2.726Q.821,94.917,0,94.917H16.476q-.82,0-1.378-1.085a6.092,6.092,0,0,1-.557-2.785V79.439H38.228A6.207,6.207,0,0,0,44.5,73.165V58.683a6.185,6.185,0,0,0-1.818-4.456,5.965,5.965,0,0,0-4.456-1.876H0q.822,0,1.378,1.084a6.092,6.092,0,0,1,.557,2.785V91.048ZM14.541,58.156H29.023a2.915,2.915,0,0,1,2.052.821,2.689,2.689,0,0,1,.88,2.052V70.7a3.006,3.006,0,0,1-2.931,2.931H14.541V58.156Zm38.488,5.8a5.459,5.459,0,0,0-3.987,1.7,5.524,5.524,0,0,0-1.7,4.046V89.172a5.606,5.606,0,0,0,1.671,4.016,5.386,5.386,0,0,0,4.017,1.73H80.235a5.805,5.805,0,0,0,5.745-5.746V69.706a5.805,5.805,0,0,0-5.745-5.746Zm8.619,4.808H71.674a2.585,2.585,0,0,1,1.877.821,2.646,2.646,0,0,1,.821,1.935v15.83a2.7,2.7,0,0,1-2.7,2.7H61.648a2.7,2.7,0,0,1-2.7-2.7V71.524a2.748,2.748,0,0,1,.763-1.935,2.526,2.526,0,0,1,1.935-.821ZM91.041,53.449V88.866c.776,8.919,13.672,10.426,13.653,9.124l-.008-.531c-.371,0-.706-.289-.988-.85a4.629,4.629,0,0,1-.432-2.081V56.063c-.111-7.206-8.46-8.044-14.837-7.94l0,.178c1.2,0,2.614,1.84,2.614,5.148Zm57.841,41.468a6.9,6.9,0,0,1-1.935-3.107V63.96H133.931q.587,0,1,.821a4.42,4.42,0,0,1,.411,1.994V87.354a2.7,2.7,0,0,1-2.7,2.7h-8.15a2.7,2.7,0,0,1-2.7-2.7V63.96H108.778q.587,0,1,.821a4.426,4.426,0,0,1,.41,1.994v22.4a5.807,5.807,0,0,0,5.746,5.746h16.71a2.38,2.38,0,0,0,1.847-1.085,3.37,3.37,0,0,0,.85-2.022,6.9,6.9,0,0,0,1.935,3.107Zm2.794-24.156V76.8a6.827,6.827,0,0,0,1.818,4.866,5.942,5.942,0,0,0,4.515,1.935h15.948a2.762,2.762,0,0,1,2.023.851,2.831,2.831,0,0,1,.85,2.081v.645a2.806,2.806,0,0,1-2.873,2.873H154.725a3.487,3.487,0,0,1-1.876-.645,6.575,6.575,0,0,1-.879-.7l1.524,6.215h28.671a6.207,6.207,0,0,0,6.274-6.273v-7.27a6.828,6.828,0,0,0-1.818-4.866,5.877,5.877,0,0,0-4.457-1.935H166.217a3,3,0,0,1-2.932-2.932,2.765,2.765,0,0,1,.85-2.023,2.833,2.833,0,0,1,2.082-.85H184.8a5.243,5.243,0,0,1,2.521.7,11.968,11.968,0,0,1,1.055.7l-1-6.215H158.009a5.928,5.928,0,0,0-4.486,1.964,6.794,6.794,0,0,0-1.847,4.837Z"/>
        <path class="cls-2" d="M300.847,58.781H284.4a26.888,26.888,0,0,0-.722-6.8,25.1,25.1,0,0,0-4.537-9.542,46.419,46.419,0,0,0,8.617-4.771,39.039,39.039,0,0,1,4.7,4.13l8.6-11.834a10.147,10.147,0,0,0,1.315-2.271c.879-2.455-.6-4.687-3.992-4.434-4.709.35-7.916,4.213-10.619,7.1l-4.022,4.371a42.038,42.038,0,0,1-7.807,4.254,28.824,28.824,0,0,0-9.3-5.536c-3.733-1.063-4.5,2.82-2.345,3.727a31.838,31.838,0,0,1,6.732,3.535,50.526,50.526,0,0,1-12.374,1.94l.023-14.757a54.818,54.818,0,0,1,22.83,5.867l19.1-25.97c1.862-3.062,2.267-6.521-1.326-7.531-3.4-.957-7.532.9-10.578,3.442l-16.684,16.98a3.567,3.567,0,0,0-.869-.85c-3.858-2.648-10.217.356-14.475,4.007a3.4,3.4,0,0,0-2.125-2.72c-7.006-3.5-17.6,6.689-23.189,12.348a55,55,0,0,1,22.171-5.571l-.007,14.683q-1.09-.067-2.188-.178a44.156,44.156,0,0,1-16.312-5.043c-2.674-1.432-4.713,1.756-2.98,3.227,5.453,3.105,7.266,5.02,19.11,6.216.762.077,1.553.137,2.369.178l-.005,11.806H232.286a24.321,24.321,0,0,1,2.355-7.75c1.267-2.9-3.167-3.4-4.557-.952a32.643,32.643,0,0,0-2.448,8.7h-16.2a26.678,26.678,0,0,1,2.351-8.308l-4.4,4.227-5.349,5.191c-3.984,4.273-3.766,6.579-1.725,9.043,1.228,1.483,3.568,2.054,6.162,1.722L204.2,76.087c-1.843,2.856-1.926,4.883-.3,6.813a4.973,4.973,0,0,0,7.825.051l4.815-3.51-9.364,11.394-3.2,4.643c-1.387,2.38-1.255,4.891,1.067,5.974,3.578,1.67,7.8.861,10.88-2.55l10.642-11.683a38.667,38.667,0,0,1,8.7-4.993,31.452,31.452,0,0,0,7.569,5.7c3.013,1.192,5.209-2.029,2.907-3.562a35.907,35.907,0,0,1-5.908-3.83A57.031,57.031,0,0,1,253.5,77.944L253.5,89.665a2.646,2.646,0,0,0,2.634,2.168h0a2.429,2.429,0,0,0,2.444-2.168l.018-11.752c9.148.3,13.6,1.68,19.025,4.582,3.021,1.718,5.356-2.417,2.748-3.748A49.921,49.921,0,0,0,258.6,73.589l.016-10.547H279.35a27.387,27.387,0,0,1-2.018,6.319c-1,2.485,2.462,5.032,4.438,1.069a32.13,32.13,0,0,0,2.224-7.389h16.974c-.515,9.513-6.254,18.011-15.107,23.916l-9.13,14.926c-1.288,2.066-6.062,6.976-2.831,8.3,3.393,1.391,7.073-3.287,8.686-5.219l23.941-30.328,12.312-13.192,9.135-7.2L302.026,95.742l-1.577,3.2c-.75,2.1,1.68,2.831,4.01.948,9.026-7.289,15.264-15.541,26.181-21.475,2.285-1.241,4.1-.284,4.226,1.172.54,6.283-3.9,13.592-10.14,19.654l.316.281q8.866-7.259,11.6-15.844c.937-2.95,1.659-9.462-4.808-7.592-9.365,2.709-18.252,11.906-24.853,17.954l18.5-27.583L334.87,50.18c.949-2.393-2.456-4.164-5.514-1.7L301.733,73.263l-1.825,2.26,4.533-7.237L319.3,48.254a25.729,25.729,0,0,0,3.885-6.88c.866-2.885-2.676-4.286-6.39-2.237a45.6,45.6,0,0,0-10.116,8.309l-6.627,7.23a26.1,26.1,0,0,1,.8,4.105Zm-89.53,4.262h16.059a28.83,28.83,0,0,0,.216,3.222,27.427,27.427,0,0,0,4.655,12.281,42.257,42.257,0,0,0-9.278,5.849c-6.872-5.684-11.207-13.139-11.652-21.352Zm81.349-21.031,7.234-7.973c3.134-2.694,8.023-4.809,10.491-2.479,2.257,2.131-1.1,7.03-2.847,9.753l-7.985,11.795a30.836,30.836,0,0,0-6.893-11.1ZM275.457,92.157l-5.925,6.627c-2.471,3.331-5.875,4.058-8.081,3.179-1.475-.587-1.36-2.573-.834-3.734l2.1-3.174a57.974,57.974,0,0,0,12.739-2.9Zm-19.622,3.286-1.358,1.724c-2.636,3.346-5.943,8.528-12.321,9.1a3.388,3.388,0,0,1-3.623-4.2c.59-2.2,2.7-5.5,4.522-8.09a58.518,58.518,0,0,0,12.779,1.46Zm-14.1-1.779-5.634,6.1c-5.334,5.6-11.945,13.418-19.8,17.761a6.3,6.3,0,0,1-6.29-.59c-2.118-2.167-.139-5.462,1.941-8.4l11.325-15.176,4.278-5.67a50.347,50.347,0,0,0,14.181,5.97Zm-9.546-30.622h21.319l0,10.6a59.031,59.031,0,0,0-17.227,3.25,19.526,19.526,0,0,1-3.784-10c-.156-1.438-.255-2.709-.3-3.852Zm42.669-18.994a16.527,16.527,0,0,1,4.274,8.779,44.541,44.541,0,0,1,.538,5.953H258.623l.018-11.8a61,61,0,0,0,16.218-2.936Z"/>
      </g>
    </g>
  </g>
</svg>
