<svg xmlns="http://www.w3.org/2000/svg" viewBox="0 0 510 442">
  <defs>
    <style>
      .cls-1 {
        fill: #9283be;
        fill-rule: evenodd;
      }
    </style>
  </defs>
  <title>info-polus-logo-1</title>
  <g id="Page_1" data-name="Page 1">
    <g id="Layer_1-2" data-name="Layer 1">
      <path class="cls-1" d="M374.854,254.982h-61.5a100.69,100.69,0,0,0-2.7-25.455,93.977,93.977,0,0,0-16.967-35.71A173.566,173.566,0,0,0,325.91,175.96a146.029,146.029,0,0,1,17.566,15.457l32.162-44.286a37.98,37.98,0,0,0,4.918-8.5c3.287-9.187-2.228-17.539-14.931-16.593-17.612,1.31-29.6,15.767-39.715,26.558l-15.042,16.359a157.18,157.18,0,0,1-29.2,15.92,107.784,107.784,0,0,0-34.764-20.719c-13.961-3.978-16.843,10.552-8.771,13.948a119.04,119.04,0,0,1,25.178,13.231,188.839,188.839,0,0,1-46.279,7.262l.085-55.228c31.585,1.326,60.83,9.247,85.379,21.958l71.432-97.189c6.964-11.459,8.478-24.4-4.961-28.183-12.732-3.58-28.169,3.361-39.561,12.883l-62.4,63.544a13.344,13.344,0,0,0-3.25-3.18c-14.429-9.91-38.211,1.331-54.135,15-.433-4.07-2.787-7.6-7.947-10.178-26.2-13.116-65.832,25.032-86.722,46.212,24.014-12.03,52.373-19.523,82.915-20.851l-.026,54.948q-4.076-.249-8.184-.668a165.055,165.055,0,0,1-61-18.872c-10-5.358-17.627,6.573-11.146,12.078,20.394,11.62,27.172,18.785,71.467,23.263,2.849.289,5.808.512,8.859.665l-.02,44.182H118.448c1.176-11.159,4.386-18.814,8.807-29.005,4.737-10.863-11.845-12.712-17.044-3.562a122.229,122.229,0,0,0-9.156,32.567H40.477a99.891,99.891,0,0,1,8.792-31.092L32.816,239.71,12.81,259.138c-14.9,15.991-14.084,24.623-6.451,33.843,4.592,5.549,13.342,7.686,23.043,6.443l-16,20.326c-6.893,10.69-7.2,18.273-1.11,25.5,6.828,8.1,19.746,11.007,29.265.19L59.568,332.3l-35.02,42.641L12.576,392.317c-5.186,8.906-4.692,18.3,3.99,22.355,13.38,6.248,29.188,3.222,40.69-9.545l39.8-43.721a144.582,144.582,0,0,1,32.55-18.686,117.631,117.631,0,0,0,28.306,21.346c11.27,4.463,19.481-7.594,10.871-13.33A134.276,134.276,0,0,1,146.688,336.4a213.158,213.158,0,0,1,51.1-9.709l-.02,43.866c.029,3.712,4.629,8.112,9.852,8.112h0c5.22,0,9.133-4.378,9.139-8.112l.068-43.979c34.213,1.132,50.866,6.286,71.152,17.146,11.3,6.431,20.03-9.045,10.278-14.028-23.057-11.925-50.625-18.535-81.4-19.3l.06-39.47h77.539c-1.365,7.828-3.88,15.207-7.548,23.65-3.739,9.3,9.209,18.831,16.6,4a120.305,120.305,0,0,0,8.318-27.652h63.48c-1.928,35.6-23.391,67.406-56.5,89.5l-34.145,55.859c-4.816,7.733-22.671,26.108-10.589,31.067,12.69,5.207,26.451-12.3,32.483-19.532l89.535-113.5,46.046-49.369L476.3,238.021,379.262,393.3l-5.9,11.959c-2.806,7.85,6.283,10.593,15,3.549,33.754-27.277,57.085-58.162,97.913-80.369,8.545-4.645,15.337-1.062,15.8,4.386,2.018,23.514-14.567,50.866-37.923,73.553l1.181,1.053q33.157-27.168,43.391-59.295c3.505-11.039,6.2-35.412-17.98-28.412-35.023,10.138-68.259,44.558-92.945,67.193L467,283.692l35.092-60.9c3.551-8.955-9.185-15.584-20.62-6.372l-103.3,92.756-6.825,8.457,16.952-27.082,55.554-74.968c5.891-8.2,12-17.322,14.53-25.747,3.238-10.8-10.008-16.041-23.9-8.372s-28.415,21-37.834,31.095l-24.783,27.056a97.738,97.738,0,0,1,2.988,15.364ZM40.027,270.93h60.059a107.967,107.967,0,0,0,.806,12.058,102.686,102.686,0,0,0,17.409,45.96,158.019,158.019,0,0,0-34.7,21.888c-25.7-21.274-41.914-49.173-43.578-79.906Zm304.231-78.705,27.053-29.838c11.722-10.082,30.006-18,39.234-9.276,8.442,7.976-4.108,26.309-10.646,36.5l-29.861,44.141a115.413,115.413,0,0,0-25.78-41.527ZM279.9,379.887l-22.16,24.8c-9.241,12.468-21.97,15.187-30.222,11.9-5.516-2.2-5.086-9.628-3.117-13.975l7.856-11.88A216.687,216.687,0,0,0,279.9,379.887Zm-73.384,12.3-5.077,6.451c-9.857,12.524-22.227,31.913-46.078,34.063a12.678,12.678,0,0,1-13.548-15.705c2.206-8.251,10.089-20.6,16.913-30.274a218.7,218.7,0,0,0,47.79,5.466Zm-52.722-6.656L132.723,408.35c-19.947,20.965-44.671,50.214-74.056,66.47-7.793,4.31-19.891,1.511-23.522-2.207-7.921-8.109-.521-20.44,7.26-31.418L84.757,384.4l16-21.218a188.222,188.222,0,0,0,53.036,22.343Zm-35.7-114.6h79.728L197.8,310.6c-22.63,1.035-44.407,4.976-64.426,12.163-7.654-10.114-12.5-22.2-14.152-37.412-.584-5.381-.953-10.14-1.132-14.417Zm159.574-71.084c8.365,9.215,14.111,20.168,15.984,32.856a166.8,166.8,0,0,1,2.012,22.28H216.944l.068-44.147a227.97,227.97,0,0,0,60.652-10.989Z" transform="translate(-1 -35)"/>
    </g>
  </g>
</svg>
