<svg xmlns="http://www.w3.org/2000/svg" viewBox="0 0 1010 430"><defs><style>.cls-1{fill:#1e172b;}.cls-2{fill:#291f3b;}.cls-3{fill:#2e2647;}.cls-4{fill:#372d54;}.cls-5{fill:#483e63;}.cls-6{fill:#50456e;}.cls-7{fill:#6c5e90;}.cls-8{fill:#74659b;}.cls-9{fill:#7e71a4;}.cls-10{fill:#9283be;}</style></defs><g id="Слой_1" data-name="Слой 1"><rect class="cls-1" width="1010" height="30" transform="translate(1010 30) rotate(180)"/><rect class="cls-2" y="40" width="1010" height="30" transform="translate(1010 110) rotate(180)"/><rect class="cls-3" y="80" width="1010" height="30" transform="translate(1010 190) rotate(180)"/><rect class="cls-4" y="120" width="1010" height="30" transform="translate(1010 270) rotate(180)"/><rect class="cls-5" y="160" width="1010" height="30" transform="translate(1010 350) rotate(180)"/><rect class="cls-6" y="200" width="1010" height="30" transform="translate(1010 430) rotate(180)"/><rect class="cls-7" y="240" width="1010" height="30" transform="translate(1010 510) rotate(180)"/><rect class="cls-8" y="280" width="1010" height="30" transform="translate(1010 590) rotate(180)"/><rect class="cls-9" y="320" width="1010" height="30" transform="translate(1010 670) rotate(180)"/><rect class="cls-9" y="360" width="1010" height="30" transform="translate(1010 750) rotate(180)"/><rect class="cls-10" y="400" width="1010" height="30" transform="translate(1010 830) rotate(180)"/></g></svg>