<svg xmlns="http://www.w3.org/2000/svg" viewBox="0 0 83.9 39.4"><defs><style>.cls-1{fill:none;stroke:#9283be;stroke-linecap:round;stroke-linejoin:round;stroke-width:2px;}.cls-2{fill:#9283be;}</style></defs><g id="Слой_1" data-name="Слой 1"><path class="cls-1" d="M9.9,37.71c10-19,17.51-18,25.26-18H82.9"/><path class="cls-2" d="M22.92,18.15C26.36,12.65,36.08.86,34.33.14S30.5,1.92,29.63,3l-13,16.43L10,26.55,5,30.45,19.09,8l.85-1.74c.41-1.13-.91-1.53-2.17-.51-4.89,4-8.27,8.42-14.19,11.64-1.24.67-2.22.15-2.29-.64C1,13.32,3.4,9.36,6.79,6.07l-.17-.15A18.46,18.46,0,0,0,.33,14.51c-.51,1.59-.9,5.12,2.6,4.11C8,17.15,12.83,12.17,16.4,8.89l-10,15L1.29,32.66c-.51,1.29,1.33,2.25,3,.92l15-13.43,1-1.23-2.46,3.93-8,10.85a13.89,13.89,0,0,0-2.1,3.73c-.47,1.56,2.91,4.11,5-1.4C17.42,27.09,19.48,23.66,22.92,18.15Z"/></g></svg>