<svg xmlns="http://www.w3.org/2000/svg" viewBox="0 0 83.9 39.4"><defs><style>.cls-1{fill:none;stroke:#9283be;stroke-linecap:round;stroke-linejoin:round;stroke-width:2px;}.cls-2{fill:#9283be;}</style></defs><g id="Слой_1" data-name="Слой 1"><path class="cls-1" d="M74,1.69c-10,19-17.51,18-25.26,18H1"/><path class="cls-2" d="M61,21.24c-3.44,5.51-13.17,17.3-11.42,18s3.83-1.78,4.71-2.83L67.25,20l6.67-7.15,5-3.9L64.81,31.43,64,33.16c-.41,1.14.91,1.54,2.17.52C71,29.73,74.4,25.26,80.32,22c1.24-.67,2.22-.15,2.29.64.29,3.4-2.11,7.36-5.49,10.65l.17.15a18.5,18.5,0,0,0,6.28-8.59c.51-1.6.9-5.13-2.6-4.11-5.08,1.47-9.89,6.45-13.47,9.73l10-14.95,5.08-8.82c.52-1.3-1.33-2.26-3-.92l-15,13.43-1,1.23,2.45-3.93,8-10.85A13.94,13.94,0,0,0,76.28,2c.47-1.56-2.92-4.11-5,1.39C66.49,12.3,64.42,15.74,61,21.24Z"/></g></svg>