<svg xmlns="http://www.w3.org/2000/svg" viewBox="0 0 452 670"><defs><style>.cls-1{fill:#7e71a4;}.cls-2{fill:#9283be;}.cls-3{fill:#1e172b;}.cls-4{fill:#291f3b;}.cls-5{fill:#2e2647;}.cls-6{fill:#372d54;}.cls-7{fill:#483e63;}.cls-8{fill:#50456e;}.cls-9{fill:#6c5e90;}.cls-10{fill:#74659b;}</style></defs><g id="Слой_1" data-name="Слой 1"><rect class="cls-1" x="122" y="480" width="305" height="50" transform="translate(549 1010) rotate(180)"/><rect class="cls-1" x="122" y="540" width="305" height="50" transform="translate(549 1130) rotate(180)"/><rect class="cls-2" x="122" y="600" width="305" height="50" transform="translate(549 1250) rotate(180)"/><rect class="cls-3" x="122" width="305" height="50" transform="translate(549 50) rotate(180)"/><circle class="cls-3" cx="427" cy="25" r="25"/><rect class="cls-4" x="122" y="60" width="305" height="50" transform="translate(549 170) rotate(180)"/><circle class="cls-4" cx="427" cy="85" r="25"/><rect class="cls-5" x="122" y="120" width="305" height="50" transform="translate(549 290) rotate(180)"/><circle class="cls-5" cx="427" cy="145" r="25"/><rect class="cls-6" x="122" y="180" width="305" height="50" transform="translate(549 410) rotate(180)"/><circle class="cls-6" cx="427" cy="205" r="25"/><rect class="cls-7" x="122" y="240" width="305" height="50" transform="translate(549 530) rotate(180)"/><circle class="cls-7" cx="427" cy="265" r="25"/><rect class="cls-8" x="122" y="300" width="305" height="50" transform="translate(549 650) rotate(180)"/><circle class="cls-8" cx="427" cy="325" r="25"/><rect class="cls-9" x="122" y="360" width="305" height="50" transform="translate(549 770) rotate(180)"/><circle class="cls-9" cx="427" cy="385" r="25"/><rect class="cls-10" x="122" y="420" width="305" height="50" transform="translate(549 890) rotate(180)"/><circle class="cls-10" cx="427" cy="445" r="25"/><circle class="cls-1" cx="427" cy="505" r="25"/><circle class="cls-1" cx="427" cy="565" r="25"/><circle class="cls-2" cx="427" cy="625" r="25"/><polygon class="cls-3" points="122 50 0 270 0 240 122 0 122 50"/><polygon class="cls-4" points="122 110 0 310 0 280 122 60 122 110"/><polygon class="cls-5" points="122 170 0 350 0 320 122 120 122 170"/><polygon class="cls-6" points="122 230 0 390 0 360 122 180 122 230"/><polygon class="cls-7" points="122 290 0 430 0 400 122 240 122 290"/><polygon class="cls-8" points="122 350 0 470 0 440 122 300 122 350"/><polygon class="cls-9" points="122 410 0 510 0 480 122 360 122 410"/><polygon class="cls-10" points="122 470 0 550 0 520 122 420 122 470"/><polygon class="cls-1" points="122 530 0 590 0 560 122 480 122 530"/><polygon class="cls-1" points="122 590 0 630 0 600 122 540 122 590"/><polygon class="cls-2" points="122 650 0 670 0 640 122 600 122 650"/></g></svg>