<svg xmlns="http://www.w3.org/2000/svg" viewBox="0 0 767 740"><defs><style>.cls-1{fill:#9283be;}.cls-2{fill:#7e71a4;}.cls-3{fill:#675a8a;}.cls-4{fill:#534972;}.cls-5{fill:#403758;}.cls-6{fill:#2c263f;}.cls-7{fill:#241e38;}.cls-8{fill:#1e172b;}</style></defs><g id="Слой_1" data-name="Слой 1"><rect class="cls-1" x="40" width="604" height="80"/><circle class="cls-1" cx="40" cy="40" r="40"/><rect class="cls-2" x="40" y="90" width="604" height="80"/><circle class="cls-2" cx="40" cy="130" r="40"/><rect class="cls-3" x="40" y="180" width="604" height="80"/><circle class="cls-3" cx="40" cy="220" r="40"/><rect class="cls-4" x="40" y="270" width="604" height="80"/><circle class="cls-4" cx="40" cy="310" r="40"/><rect class="cls-5" x="40" y="360" width="604" height="80"/><circle class="cls-5" cx="40" cy="400" r="40"/><rect class="cls-6" x="40" y="450" width="604" height="80"/><circle class="cls-6" cx="40" cy="490" r="40"/><rect class="cls-7" x="40" y="540" width="604" height="80"/><circle class="cls-7" cx="40" cy="580" r="40"/><rect class="cls-8" x="40" y="630" width="604" height="80"/><circle class="cls-8" cx="40" cy="670" r="40"/><polygon class="cls-1" points="644 80 767 320 767 270 644 0 644 80"/><polygon class="cls-2" points="644 170 767 380 767 330 644 90 644 170"/><polygon class="cls-3" points="644 260 767 440 767 390 644 180 644 260"/><polygon class="cls-4" points="644 350 767 500 767 450 644 270 644 350"/><polygon class="cls-5" points="644 440 767 560 767 510 644 360 644 440"/><polygon class="cls-6" points="644 530 767 620 767 570 644 450 644 530"/><polygon class="cls-7" points="644 620 767 680 767 630 644 540 644 620"/><polygon class="cls-8" points="644 710 767 740 767 690 644 630 644 710"/></g></svg>